NotoSansOriyaUI-CondensedExtraBlack.ufo
<glyph name="parenleft" format="2">
  <advance width="358"/>
  <unicode hex="0028"/>
  <outline>
    <contour>
      <point x="167" y="-72" type="curve"/>
      <point x="307" y="-72" type="line"/>
      <point x="240" y="67"/>
      <point x="205" y="245"/>
      <point x="205" y="423" type="curve" smooth="yes"/>
      <point x="205" y="608"/>
      <point x="240" y="786"/>
      <point x="308" y="925" type="curve"/>
      <point x="167" y="925" type="line"/>
      <point x="96" y="792"/>
      <point x="57" y="612"/>
      <point x="57" y="425" type="curve" smooth="yes"/>
      <point x="57" y="241"/>
      <point x="96" y="61"/>
    </contour>
  </outline>
</glyph>
<glyph name="comma" format="2">
  <advance width="278"/>
  <unicode hex="002C"/>
  <outline>
    <contour>
      <point x="34" y="-46" type="curve"/>
      <point x="168" y="-46" type="line"/>
      <point x="197" y="27"/>
      <point x="218" y="118"/>
      <point x="233" y="228" type="curve"/>
      <point x="228" y="239" type="line"/>
      <point x="70" y="239" type="line"/>
      <point x="66" y="164"/>
      <point x="48" y="31"/>
    </contour>
  </outline>
</glyph>
<glyph name="colon" format="2">
  <advance width="326"/>
  <unicode hex="003A"/>
  <outline>
    <contour>
      <point x="165" y="467" type="curve" smooth="yes"/>
      <point x="221" y="467"/>
      <point x="254" y="501"/>
      <point x="254" y="560" type="curve" smooth="yes"/>
      <point x="254" y="620"/>
      <point x="223" y="654"/>
      <point x="165" y="654" type="curve" smooth="yes"/>
      <point x="104" y="654"/>
      <point x="72" y="620"/>
      <point x="72" y="560" type="curve" smooth="yes"/>
      <point x="72" y="501"/>
      <point x="107" y="467"/>
    </contour>
    <contour>
      <point x="165" y="81" type="curve" smooth="yes"/>
      <point x="221" y="81"/>
      <point x="254" y="115"/>
      <point x="254" y="174" type="curve" smooth="yes"/>
      <point x="254" y="234"/>
      <point x="223" y="268"/>
      <point x="165" y="268" type="curve" smooth="yes"/>
      <point x="104" y="268"/>
      <point x="72" y="234"/>
      <point x="72" y="174" type="curve" smooth="yes"/>
      <point x="72" y="115"/>
      <point x="107" y="81"/>
    </contour>
  </outline>
</glyph>
<glyph name="backslash" format="2">
  <advance width="439"/>
  <unicode hex="005C"/>
  <outline>
    <contour>
      <point x="31" y="925" type="line"/>
      <point x="261" y="-72" type="line"/>
      <point x="408" y="-72" type="line"/>
      <point x="178" y="925" type="line"/>
    </contour>
  </outline>
</glyph>
<glyph name="bar" format="2">
  <advance width="424"/>
  <unicode hex="007C"/>
  <outline>
    <contour>
      <point x="148" y="925" type="line"/>
      <point x="148" y="-72" type="line"/>
      <point x="276" y="-72" type="line"/>
      <point x="276" y="925" type="line"/>
    </contour>
  </outline>
</glyph>
<glyph name="braceright" format="2">
  <advance width="394"/>
  <unicode hex="007D"/>
  <outline>
    <contour>
      <point x="357" y="362" type="curve"/>
      <point x="357" y="490" type="line"/>
      <point x="305" y="490"/>
      <point x="265" y="511"/>
      <point x="265" y="574" type="curve" smooth="yes"/>
      <point x="265" y="754" type="line" smooth="yes"/>
      <point x="265" y="874"/>
      <point x="214" y="925"/>
      <point x="48" y="925" type="curve"/>
      <point x="48" y="796" type="line"/>
      <point x="98" y="796"/>
      <point x="123" y="791"/>
      <point x="123" y="736" type="curve" smooth="yes"/>
      <point x="123" y="551" type="line" smooth="yes"/>
      <point x="123" y="475"/>
      <point x="161" y="441"/>
      <point x="217" y="429" type="curve"/>
      <point x="217" y="423" type="line"/>
      <point x="163" y="412"/>
      <point x="123" y="378"/>
      <point x="123" y="299" type="curve" smooth="yes"/>
      <point x="123" y="116" type="line" smooth="yes"/>
      <point x="123" y="61"/>
      <point x="98" y="56"/>
      <point x="48" y="56" type="curve"/>
      <point x="48" y="-73" type="line"/>
      <point x="213" y="-73"/>
      <point x="265" y="-22"/>
      <point x="265" y="98" type="curve" smooth="yes"/>
      <point x="265" y="284" type="line" smooth="yes"/>
      <point x="265" y="339"/>
      <point x="303" y="362"/>
    </contour>
  </outline>
</glyph>
<glyph name="divide" format="2">
  <advance width="490"/>
  <unicode hex="00F7"/>
  <outline>
    <contour>
      <point x="33" y="479" type="line"/>
      <point x="33" y="353" type="line"/>
      <point x="457" y="353" type="line"/>
      <point x="457" y="479" type="line"/>
    </contour>
    <contour>
      <point x="247" y="166" type="curve" smooth="yes"/>
      <point x="285" y="166"/>
      <point x="317" y="188"/>
      <point x="317" y="245" type="curve" smooth="yes"/>
      <point x="317" y="304"/>
      <point x="285" y="324"/>
      <point x="247" y="324" type="curve" smooth="yes"/>
      <point x="207" y="324"/>
      <point x="174" y="304"/>
      <point x="174" y="245" type="curve" smooth="yes"/>
      <point x="174" y="188"/>
      <point x="207" y="166"/>
    </contour>
    <contour>
      <point x="247" y="507" type="curve" smooth="yes"/>
      <point x="285" y="507"/>
      <point x="317" y="529"/>
      <point x="317" y="586" type="curve" smooth="yes"/>
      <point x="317" y="643"/>
      <point x="285" y="665"/>
      <point x="247" y="665" type="curve" smooth="yes"/>
      <point x="207" y="665"/>
      <point x="174" y="643"/>
      <point x="174" y="586" type="curve" smooth="yes"/>
      <point x="174" y="529"/>
      <point x="207" y="507"/>
    </contour>
  </outline>
</glyph>
<glyph name="ii-oriya" format="2">
  <advance width="726"/>
  <unicode hex="0B08"/>
  <note>
iiorya
</note>
  <guideline x="391" y="221" angle="0"/>
  <anchor x="558" y="751" name="topright"/>
  <outline>
    <contour>
      <point x="491" y="250" type="curve"/>
      <point x="636" y="10" type="line"/>
      <point x="552" y="60" type="line"/>
      <point x="756" y="191" type="line"/>
      <point x="784" y="90" type="line"/>
      <point x="620" y="334" type="line"/>
      <point x="599" y="193" type="line"/>
      <point x="659" y="268"/>
      <point x="688" y="363"/>
      <point x="688" y="453" type="curve" smooth="yes"/>
      <point x="688" y="655"/>
      <point x="543" y="759"/>
      <point x="386" y="759" type="curve" smooth="yes"/>
      <point x="215" y="759"/>
      <point x="110" y="635"/>
      <point x="102" y="510" type="curve"/>
      <point x="238" y="510" type="line"/>
      <point x="253" y="573"/>
      <point x="305" y="613"/>
      <point x="376" y="613" type="curve" smooth="yes"/>
      <point x="465" y="613"/>
      <point x="536" y="551"/>
      <point x="536" y="424" type="curve" smooth="yes"/>
      <point x="536" y="363"/>
      <point x="520" y="298"/>
    </contour>
    <contour>
      <point x="202" y="85" type="curve" smooth="yes"/>
      <point x="270" y="85"/>
      <point x="307" y="155"/>
      <point x="307" y="261" type="curve" smooth="yes"/>
      <point x="307" y="368"/>
      <point x="269" y="434"/>
      <point x="204" y="434" type="curve" smooth="yes"/>
      <point x="136" y="434"/>
      <point x="86" y="367"/>
      <point x="86" y="259" type="curve" smooth="yes"/>
      <point x="86" y="151"/>
      <point x="136" y="85"/>
    </contour>
    <contour>
      <point x="208" y="202" type="curve" smooth="yes"/>
      <point x="193" y="202"/>
      <point x="186" y="222"/>
      <point x="186" y="260" type="curve" smooth="yes"/>
      <point x="186" y="298"/>
      <point x="193" y="317"/>
      <point x="208" y="317" type="curve" smooth="yes"/>
      <point x="223" y="317"/>
      <point x="230" y="301"/>
      <point x="230" y="260" type="curve" smooth="yes"/>
      <point x="230" y="221"/>
      <point x="223" y="202"/>
    </contour>
    <contour>
      <point x="358" y="85" type="curve" smooth="yes"/>
      <point x="423" y="85"/>
      <point x="471" y="152"/>
      <point x="471" y="261" type="curve" smooth="yes"/>
      <point x="471" y="367"/>
      <point x="425" y="434"/>
      <point x="356" y="434" type="curve" smooth="yes"/>
      <point x="291" y="434"/>
      <point x="248" y="368"/>
      <point x="248" y="260" type="curve" smooth="yes"/>
      <point x="248" y="155"/>
      <point x="291" y="85"/>
    </contour>
    <contour>
      <point x="349" y="202" type="curve" smooth="yes"/>
      <point x="334" y="202"/>
      <point x="327" y="221"/>
      <point x="327" y="260" type="curve" smooth="yes"/>
      <point x="327" y="301"/>
      <point x="334" y="317"/>
      <point x="349" y="317" type="curve" smooth="yes"/>
      <point x="364" y="317"/>
      <point x="371" y="298"/>
      <point x="371" y="260" type="curve" smooth="yes"/>
      <point x="371" y="222"/>
      <point x="364" y="202"/>
    </contour>
    <contour>
      <point x="141" y="243" type="curve"/>
      <point x="176" y="335" type="line"/>
      <point x="152" y="355"/>
      <point x="138" y="380"/>
      <point x="138" y="404" type="curve" smooth="yes"/>
      <point x="138" y="444"/>
      <point x="179" y="466"/>
      <point x="223" y="466" type="curve" smooth="yes"/>
      <point x="266" y="466"/>
      <point x="312" y="445"/>
      <point x="324" y="400" type="curve"/>
      <point x="293" y="429" type="line"/>
      <point x="390" y="551" type="line"/>
      <point x="391" y="498" type="line"/>
      <point x="353" y="565"/>
      <point x="281" y="597"/>
      <point x="210" y="597" type="curve" smooth="yes"/>
      <point x="112" y="597"/>
      <point x="16" y="535"/>
      <point x="16" y="419" type="curve" smooth="yes"/>
      <point x="16" y="351"/>
      <point x="49" y="284"/>
    </contour>
  </outline>
</glyph>
<glyph name="rVocalic-oriya" format="2">
  <advance width="712"/>
  <unicode hex="0B0B"/>
  <note>
rvocalicorya
</note>
  <guideline x="391" y="225" angle="0"/>
  <anchor x="501" y="751" name="topright"/>
  <outline>
    <contour>
      <point x="142" y="285" type="curve"/>
      <point x="202" y="381" type="line"/>
      <point x="176" y="409"/>
      <point x="162" y="436"/>
      <point x="162" y="474" type="curve" smooth="yes"/>
      <point x="162" y="566"/>
      <point x="240" y="613"/>
      <point x="319" y="613" type="curve" smooth="yes"/>
      <point x="400" y="613"/>
      <point x="483" y="563"/>
      <point x="483" y="459" type="curve" smooth="yes"/>
      <point x="483" y="433"/>
      <point x="478" y="407"/>
      <point x="466" y="380" type="curve"/>
      <point x="615" y="414" type="line"/>
      <point x="626" y="445"/>
      <point x="631" y="474"/>
      <point x="631" y="505" type="curve" smooth="yes"/>
      <point x="631" y="675"/>
      <point x="476" y="759"/>
      <point x="326" y="759" type="curve" smooth="yes"/>
      <point x="167" y="759"/>
      <point x="16" y="665"/>
      <point x="16" y="497" type="curve" smooth="yes"/>
      <point x="16" y="408"/>
      <point x="59" y="338"/>
    </contour>
    <contour>
      <point x="266" y="85" type="curve" smooth="yes"/>
      <point x="368" y="85"/>
      <point x="430" y="157"/>
      <point x="430" y="273" type="curve" smooth="yes"/>
      <point x="430" y="390"/>
      <point x="368" y="461"/>
      <point x="268" y="461" type="curve" smooth="yes"/>
      <point x="165" y="461"/>
      <point x="101" y="390"/>
      <point x="101" y="273" type="curve" smooth="yes"/>
      <point x="101" y="157"/>
      <point x="165" y="85"/>
    </contour>
    <contour>
      <point x="266" y="208" type="curve" smooth="yes"/>
      <point x="244" y="208"/>
      <point x="234" y="229"/>
      <point x="234" y="273" type="curve" smooth="yes"/>
      <point x="234" y="317"/>
      <point x="244" y="338"/>
      <point x="266" y="338" type="curve" smooth="yes"/>
      <point x="288" y="338"/>
      <point x="297" y="317"/>
      <point x="297" y="273" type="curve" smooth="yes"/>
      <point x="297" y="229"/>
      <point x="287" y="208"/>
    </contour>
    <contour>
      <point x="595" y="10" type="line"/>
      <point x="511" y="60" type="line"/>
      <point x="715" y="191" type="line"/>
      <point x="743" y="90" type="line"/>
      <point x="583" y="311" type="line"/>
      <point x="534" y="226" type="line"/>
      <point x="641" y="226"/>
      <point x="696" y="288"/>
      <point x="696" y="348" type="curve" smooth="yes"/>
      <point x="696" y="406"/>
      <point x="646" y="462"/>
      <point x="545" y="462" type="curve"/>
      <point x="466" y="380" type="line"/>
      <point x="525" y="380"/>
      <point x="552" y="357"/>
      <point x="552" y="335" type="curve" smooth="yes"/>
      <point x="552" y="315"/>
      <point x="528" y="296"/>
      <point x="485" y="296" type="curve"/>
      <point x="450" y="250" type="line"/>
    </contour>
  </outline>
</glyph>
<glyph name="lVocalic-oriya" format="2">
  <advance width="507"/>
  <unicode hex="0B0C"/>
  <note>
lvocalicorya
</note>
  <anchor x="247" y="751" name="topright"/>
  <outline>
    <contour>
      <point x="172" y="274" type="curve" smooth="yes"/>
      <point x="172" y="324"/>
      <point x="202" y="347"/>
      <point x="271" y="381" type="curve" smooth="yes"/>
      <point x="285" y="388" type="line" smooth="yes"/>
      <point x="369" y="430"/>
      <point x="438" y="474"/>
      <point x="438" y="579" type="curve" smooth="yes"/>
      <point x="438" y="698"/>
      <point x="365" y="759"/>
      <point x="247" y="759" type="curve" smooth="yes"/>
      <point x="119" y="759"/>
      <point x="48" y="687"/>
      <point x="48" y="583" type="curve" smooth="yes"/>
      <point x="48" y="552"/>
      <point x="54" y="521"/>
      <point x="65" y="487" type="curve"/>
      <point x="271" y="549" type="line"/>
      <point x="232" y="487" type="line"/>
      <point x="211" y="517"/>
      <point x="197" y="550"/>
      <point x="197" y="576" type="curve" smooth="yes"/>
      <point x="197" y="602"/>
      <point x="211" y="623"/>
      <point x="246" y="623" type="curve" smooth="yes"/>
      <point x="282" y="623"/>
      <point x="290" y="601"/>
      <point x="290" y="581" type="curve" smooth="yes"/>
      <point x="289" y="539"/>
      <point x="244" y="519"/>
      <point x="185" y="490" type="curve" smooth="yes"/>
      <point x="177" y="486" type="line" smooth="yes"/>
      <point x="101" y="448"/>
      <point x="24" y="406"/>
      <point x="24" y="285" type="curve" smooth="yes"/>
      <point x="24" y="147"/>
      <point x="135" y="85"/>
      <point x="264" y="85" type="curve" smooth="yes"/>
      <point x="388" y="85"/>
      <point x="491" y="143"/>
      <point x="491" y="258" type="curve" smooth="yes"/>
      <point x="491" y="347"/>
      <point x="430" y="389"/>
      <point x="359" y="389" type="curve" smooth="yes"/>
      <point x="276" y="389"/>
      <point x="219" y="331"/>
      <point x="219" y="243" type="curve" smooth="yes"/>
      <point x="219" y="192"/>
      <point x="238" y="138"/>
      <point x="278" y="92" type="curve"/>
      <point x="376" y="118" type="line"/>
      <point x="347" y="147"/>
      <point x="325" y="207"/>
      <point x="325" y="248" type="curve" smooth="yes"/>
      <point x="325" y="269"/>
      <point x="331" y="285"/>
      <point x="347" y="285" type="curve" smooth="yes"/>
      <point x="360" y="285"/>
      <point x="365" y="274"/>
      <point x="365" y="257" type="curve" smooth="yes"/>
      <point x="365" y="218"/>
      <point x="338" y="201"/>
      <point x="280" y="201" type="curve" smooth="yes"/>
      <point x="210" y="201"/>
      <point x="172" y="225"/>
    </contour>
  </outline>
</glyph>
<glyph name="ka-oriya" format="2">
  <advance width="688"/>
  <unicode hex="0B15"/>
  <note>
kaorya
</note>
  <guideline x="391" y="225" angle="0"/>
  <anchor x="386" y="93" name="bottom"/>
  <anchor x="533" y="93" name="bottom_ra"/>
  <anchor x="533" y="103" name="bottom_ta"/>
  <anchor x="338" y="751" name="top"/>
  <anchor x="542" y="751" name="topright"/>
  <outline>
    <contour>
      <point x="140" y="272" type="curve"/>
      <point x="199" y="377" type="line"/>
      <point x="174" y="408"/>
      <point x="163" y="440"/>
      <point x="163" y="473" type="curve" smooth="yes"/>
      <point x="163" y="564"/>
      <point x="250" y="613"/>
      <point x="340" y="613" type="curve" smooth="yes"/>
      <point x="430" y="613"/>
      <point x="520" y="563"/>
      <point x="520" y="468" type="curve" smooth="yes"/>
      <point x="520" y="436"/>
      <point x="510" y="405"/>
      <point x="494" y="377" type="curve"/>
      <point x="454" y="442" type="line"/>
      <point x="704" y="362" type="line"/>
      <point x="641" y="336" type="line"/>
      <point x="660" y="383"/>
      <point x="672" y="421"/>
      <point x="672" y="471" type="curve" smooth="yes"/>
      <point x="672" y="662"/>
      <point x="503" y="759"/>
      <point x="337" y="759" type="curve" smooth="yes"/>
      <point x="175" y="759"/>
      <point x="16" y="666"/>
      <point x="16" y="493" type="curve" smooth="yes"/>
      <point x="16" y="409"/>
      <point x="54" y="333"/>
    </contour>
    <contour>
      <point x="211" y="149" type="curve" smooth="yes"/>
      <point x="291" y="149"/>
      <point x="337" y="210"/>
      <point x="337" y="306" type="curve" smooth="yes"/>
      <point x="337" y="403"/>
      <point x="291" y="463"/>
      <point x="213" y="463" type="curve" smooth="yes"/>
      <point x="133" y="463"/>
      <point x="86" y="400"/>
      <point x="86" y="304" type="curve" smooth="yes"/>
      <point x="86" y="209"/>
      <point x="132" y="149"/>
    </contour>
    <contour>
      <point x="216" y="260" type="curve" smooth="yes"/>
      <point x="201" y="260"/>
      <point x="194" y="273"/>
      <point x="194" y="306" type="curve" smooth="yes"/>
      <point x="194" y="340"/>
      <point x="201" y="353"/>
      <point x="216" y="353" type="curve" smooth="yes"/>
      <point x="231" y="353"/>
      <point x="238" y="340"/>
      <point x="238" y="306" type="curve" smooth="yes"/>
      <point x="238" y="273"/>
      <point x="231" y="260"/>
    </contour>
    <contour>
      <point x="222" y="93" type="line"/>
      <point x="360" y="93" type="line"/>
      <point x="360" y="310" type="line" smooth="yes"/>
      <point x="360" y="328"/>
      <point x="362" y="335"/>
      <point x="373" y="335" type="curve" smooth="yes"/>
      <point x="384" y="335"/>
      <point x="386" y="328"/>
      <point x="386" y="310" type="curve" smooth="yes"/>
      <point x="386" y="93" type="line"/>
      <point x="533" y="93" type="line"/>
      <point x="533" y="319" type="line" smooth="yes"/>
      <point x="533" y="414"/>
      <point x="479" y="463"/>
      <point x="409" y="463" type="curve" smooth="yes"/>
      <point x="335" y="463"/>
      <point x="270" y="408"/>
      <point x="270" y="298" type="curve"/>
      <point x="233" y="218" type="line"/>
    </contour>
  </outline>
</glyph>
<glyph name="ca-oriya" format="2">
  <advance width="590"/>
  <unicode hex="0B1A"/>
  <note>
caorya
</note>
  <guideline x="391" y="225" angle="0"/>
  <anchor x="221" y="93" name="bottom"/>
  <anchor x="570" y="93" name="bottom_ra"/>
  <anchor x="291" y="751" name="top"/>
  <anchor x="444" y="751" name="topright"/>
  <outline>
    <contour>
      <point x="141" y="289" type="curve"/>
      <point x="202" y="383" type="line"/>
      <point x="176" y="409"/>
      <point x="163" y="442"/>
      <point x="163" y="481" type="curve" smooth="yes"/>
      <point x="163" y="559"/>
      <point x="215" y="613"/>
      <point x="292" y="613" type="curve" smooth="yes"/>
      <point x="370" y="613"/>
      <point x="422" y="558"/>
      <point x="422" y="478" type="curve" smooth="yes"/>
      <point x="422" y="453"/>
      <point x="417" y="427"/>
      <point x="406" y="400" type="curve"/>
      <point x="391" y="416" type="line"/>
      <point x="576" y="346" type="line"/>
      <point x="547" y="349" type="line"/>
      <point x="563" y="383"/>
      <point x="574" y="433"/>
      <point x="574" y="484" type="curve" smooth="yes"/>
      <point x="574" y="648"/>
      <point x="462" y="759"/>
      <point x="291" y="759" type="curve" smooth="yes"/>
      <point x="126" y="759"/>
      <point x="16" y="654"/>
      <point x="16" y="501" type="curve" smooth="yes"/>
      <point x="16" y="411"/>
      <point x="54" y="337"/>
    </contour>
    <contour>
      <point x="266" y="85" type="curve" smooth="yes"/>
      <point x="368" y="85"/>
      <point x="430" y="157"/>
      <point x="430" y="273" type="curve" smooth="yes"/>
      <point x="430" y="390"/>
      <point x="368" y="461"/>
      <point x="268" y="461" type="curve" smooth="yes"/>
      <point x="165" y="461"/>
      <point x="101" y="390"/>
      <point x="101" y="273" type="curve" smooth="yes"/>
      <point x="101" y="157"/>
      <point x="165" y="85"/>
    </contour>
    <contour>
      <point x="266" y="208" type="curve" smooth="yes"/>
      <point x="244" y="208"/>
      <point x="234" y="229"/>
      <point x="234" y="273" type="curve" smooth="yes"/>
      <point x="234" y="317"/>
      <point x="244" y="338"/>
      <point x="266" y="338" type="curve" smooth="yes"/>
      <point x="287" y="338"/>
      <point x="297" y="317"/>
      <point x="297" y="273" type="curve" smooth="yes"/>
      <point x="297" y="229"/>
      <point x="287" y="208"/>
    </contour>
  </outline>
</glyph>
<glyph name="dda-oriya" format="2">
  <advance width="651"/>
  <unicode hex="0B21"/>
  <note>
ddaorya
</note>
  <guideline x="373" y="208" angle="0"/>
  <guideline x="327" y="405" angle="0"/>
  <anchor x="275" y="93" name="bottom"/>
  <anchor x="621" y="93" name="bottom_ra"/>
  <anchor x="304" y="-17" name="nukta"/>
  <anchor x="323" y="751" name="top"/>
  <anchor x="505" y="751" name="topright"/>
  <outline>
    <contour>
      <point x="141" y="289" type="curve"/>
      <point x="203" y="383" type="line"/>
      <point x="177" y="409"/>
      <point x="164" y="443"/>
      <point x="164" y="478" type="curve" smooth="yes"/>
      <point x="164" y="566"/>
      <point x="243" y="613"/>
      <point x="326" y="613" type="curve" smooth="yes"/>
      <point x="406" y="613"/>
      <point x="483" y="568"/>
      <point x="483" y="475" type="curve" smooth="yes"/>
      <point x="483" y="438"/>
      <point x="471" y="398"/>
      <point x="442" y="355" type="curve"/>
      <point x="417" y="429" type="line"/>
      <point x="675" y="332" type="line"/>
      <point x="584" y="307" type="line"/>
      <point x="619" y="358"/>
      <point x="635" y="423"/>
      <point x="635" y="482" type="curve" smooth="yes"/>
      <point x="635" y="665"/>
      <point x="479" y="759"/>
      <point x="323" y="759" type="curve" smooth="yes"/>
      <point x="167" y="759"/>
      <point x="16" y="667"/>
      <point x="16" y="497" type="curve" smooth="yes"/>
      <point x="16" y="412"/>
      <point x="54" y="337"/>
    </contour>
    <contour>
      <point x="96" y="283" type="curve" smooth="yes"/>
      <point x="96" y="163"/>
      <point x="188" y="85"/>
      <point x="305" y="85" type="curve" smooth="yes"/>
      <point x="419" y="85"/>
      <point x="500" y="158"/>
      <point x="500" y="270" type="curve" smooth="yes"/>
      <point x="500" y="336"/>
      <point x="472" y="404"/>
      <point x="390" y="436" type="curve"/>
      <point x="326" y="346" type="line"/>
      <point x="362" y="325"/>
      <point x="378" y="296"/>
      <point x="378" y="270" type="curve" smooth="yes"/>
      <point x="378" y="237"/>
      <point x="352" y="210"/>
      <point x="304" y="210" type="curve" smooth="yes"/>
      <point x="249" y="210"/>
      <point x="220" y="246"/>
      <point x="220" y="294" type="curve" smooth="yes"/>
      <point x="220" y="342"/>
      <point x="249" y="401"/>
      <point x="304" y="448" type="curve"/>
      <point x="237" y="529" type="line"/>
      <point x="148" y="468"/>
      <point x="96" y="373"/>
    </contour>
    <contour>
      <point x="321" y="267" type="line"/>
      <point x="469" y="456" type="line"/>
      <point x="392" y="524" type="line"/>
      <point x="244" y="335" type="line"/>
    </contour>
  </outline>
</glyph>
<glyph name="ta-oriya" format="2">
  <advance width="651"/>
  <unicode hex="0B24"/>
  <note>
taorya
</note>
  <guideline x="391" y="225" angle="0"/>
  <anchor x="281" y="93" name="bottom"/>
  <anchor x="610" y="93" name="bottom_ra"/>
  <anchor x="323" y="751" name="top"/>
  <anchor x="505" y="751" name="topright"/>
  <outline>
    <contour>
      <point x="16" y="497" type="curve" smooth="yes"/>
      <point x="16" y="412"/>
      <point x="54" y="337"/>
      <point x="141" y="289" type="curve"/>
      <point x="202" y="383" type="line"/>
      <point x="176" y="409"/>
      <point x="163" y="443"/>
      <point x="163" y="478" type="curve" smooth="yes"/>
      <point x="163" y="566"/>
      <point x="243" y="613"/>
      <point x="326" y="613" type="curve" smooth="yes"/>
      <point x="406" y="613"/>
      <point x="483" y="568"/>
      <point x="483" y="475" type="curve" smooth="yes"/>
      <point x="483" y="438"/>
      <point x="471" y="398"/>
      <point x="442" y="355" type="curve"/>
      <point x="427" y="425" type="line"/>
      <point x="661" y="337" type="line"/>
      <point x="584" y="307" type="line"/>
      <point x="619" y="358"/>
      <point x="635" y="423"/>
      <point x="635" y="482" type="curve" smooth="yes"/>
      <point x="635" y="665"/>
      <point x="479" y="759"/>
      <point x="323" y="759" type="curve" smooth="yes"/>
      <point x="167" y="759"/>
      <point x="16" y="667"/>
    </contour>
    <contour>
      <point x="96" y="285" type="curve" smooth="yes"/>
      <point x="96" y="180"/>
      <point x="171" y="85"/>
      <point x="307" y="85" type="curve" smooth="yes"/>
      <point x="440" y="85"/>
      <point x="500" y="177"/>
      <point x="500" y="272" type="curve" smooth="yes"/>
      <point x="500" y="369"/>
      <point x="437" y="433"/>
      <point x="358" y="433" type="curve" smooth="yes"/>
      <point x="288" y="433"/>
      <point x="255" y="384"/>
      <point x="255" y="339" type="curve" smooth="yes"/>
      <point x="255" y="300"/>
      <point x="280" y="263"/>
      <point x="327" y="263" type="curve" smooth="yes"/>
      <point x="366" y="263"/>
      <point x="394" y="288"/>
      <point x="394" y="331" type="curve" smooth="yes"/>
      <point x="394" y="344"/>
      <point x="392" y="400"/>
      <point x="346" y="400" type="curve"/>
      <point x="322" y="306" type="line"/>
      <point x="358" y="306"/>
      <point x="376" y="286"/>
      <point x="376" y="263" type="curve" smooth="yes"/>
      <point x="376" y="238"/>
      <point x="354" y="210"/>
      <point x="304" y="210" type="curve" smooth="yes"/>
      <point x="248" y="210"/>
      <point x="220" y="245"/>
      <point x="220" y="292" type="curve" smooth="yes"/>
      <point x="220" y="341"/>
      <point x="250" y="402"/>
      <point x="304" y="448" type="curve"/>
      <point x="237" y="529" type="line"/>
      <point x="148" y="468"/>
      <point x="96" y="372"/>
    </contour>
  </outline>
</glyph>
<glyph name="da-oriya" format="2">
  <advance width="688"/>
  <unicode hex="0B26"/>
  <note>
daorya
</note>
  <guideline x="531" y="44" angle="0"/>
  <guideline x="391" y="221" angle="0"/>
  <anchor x="346" y="93" name="bottom"/>
  <anchor x="653" y="93" name="bottom_ra"/>
  <anchor x="334" y="751" name="top"/>
  <anchor x="542" y="751" name="topright"/>
  <outline>
    <contour>
      <point x="264" y="137" type="curve" smooth="yes"/>
      <point x="357" y="137"/>
      <point x="445" y="195"/>
      <point x="445" y="314" type="curve"/>
      <point x="367" y="314" type="line"/>
      <point x="367" y="277"/>
      <point x="340" y="257"/>
      <point x="310" y="257" type="curve" smooth="yes"/>
      <point x="279" y="257"/>
      <point x="264" y="277"/>
      <point x="264" y="304" type="curve" smooth="yes"/>
      <point x="264" y="333"/>
      <point x="282" y="370"/>
      <point x="313" y="399" type="curve"/>
      <point x="240" y="487" type="line"/>
      <point x="156" y="436"/>
      <point x="113" y="353"/>
      <point x="113" y="281" type="curve" smooth="yes"/>
      <point x="113" y="202"/>
      <point x="166" y="137"/>
    </contour>
    <contour>
      <point x="346" y="93" type="line"/>
      <point x="493" y="93" type="line"/>
      <point x="493" y="413" type="line"/>
      <point x="346" y="413" type="line"/>
      <point x="346" y="249" type="line"/>
      <point x="363" y="188" type="line"/>
    </contour>
    <contour>
      <point x="140" y="272" type="curve"/>
      <point x="199" y="377" type="line"/>
      <point x="174" y="408"/>
      <point x="163" y="440"/>
      <point x="163" y="473" type="curve" smooth="yes"/>
      <point x="163" y="566"/>
      <point x="251" y="613"/>
      <point x="340" y="613" type="curve" smooth="yes"/>
      <point x="430" y="613"/>
      <point x="520" y="565"/>
      <point x="520" y="466" type="curve" smooth="yes"/>
      <point x="520" y="436"/>
      <point x="512" y="407"/>
      <point x="497" y="377" type="curve"/>
      <point x="466" y="425" type="line"/>
      <point x="688" y="341" type="line"/>
      <point x="645" y="336" type="line"/>
      <point x="661" y="383"/>
      <point x="672" y="421"/>
      <point x="672" y="470" type="curve" smooth="yes"/>
      <point x="672" y="662"/>
      <point x="501" y="759"/>
      <point x="334" y="759" type="curve" smooth="yes"/>
      <point x="173" y="759"/>
      <point x="16" y="670"/>
      <point x="16" y="493" type="curve" smooth="yes"/>
      <point x="16" y="409"/>
      <point x="54" y="333"/>
    </contour>
  </outline>
</glyph>
<glyph name="na-oriya" format="2">
  <advance width="642"/>
  <unicode hex="0B28"/>
  <note>
naorya
</note>
  <guideline x="391" y="221" angle="0"/>
  <anchor x="302" y="93" name="bottom"/>
  <anchor x="449" y="93" name="bottom_ra"/>
  <anchor x="449" y="103" name="bottom_ta"/>
  <anchor x="318" y="751" name="top"/>
  <anchor x="496" y="751" name="topright"/>
  <outline>
    <contour>
      <point x="141" y="289" type="curve"/>
      <point x="202" y="383" type="line"/>
      <point x="176" y="409"/>
      <point x="163" y="443"/>
      <point x="163" y="478" type="curve" smooth="yes"/>
      <point x="163" y="566"/>
      <point x="242" y="613"/>
      <point x="321" y="613" type="curve" smooth="yes"/>
      <point x="398" y="613"/>
      <point x="474" y="568"/>
      <point x="474" y="475" type="curve" smooth="yes"/>
      <point x="474" y="458"/>
      <point x="472" y="441"/>
      <point x="466" y="424" type="curve"/>
      <point x="608" y="377" type="line"/>
      <point x="620" y="411"/>
      <point x="626" y="448"/>
      <point x="626" y="482" type="curve" smooth="yes"/>
      <point x="626" y="665"/>
      <point x="471" y="759"/>
      <point x="318" y="759" type="curve" smooth="yes"/>
      <point x="166" y="759"/>
      <point x="16" y="667"/>
      <point x="16" y="497" type="curve" smooth="yes"/>
      <point x="16" y="412"/>
      <point x="54" y="337"/>
    </contour>
    <contour>
      <point x="174" y="85" type="curve" smooth="yes"/>
      <point x="231" y="85"/>
      <point x="260" y="137"/>
      <point x="260" y="183" type="curve" smooth="yes"/>
      <point x="260" y="229"/>
      <point x="232" y="279"/>
      <point x="177" y="279" type="curve" smooth="yes"/>
      <point x="129" y="279"/>
      <point x="111" y="235"/>
      <point x="107" y="202" type="curve"/>
      <point x="198" y="157" type="line"/>
      <point x="196" y="171"/>
      <point x="195" y="185"/>
      <point x="195" y="196" type="curve" smooth="yes"/>
      <point x="195" y="277"/>
      <point x="246" y="322"/>
      <point x="344" y="322" type="curve" smooth="yes"/>
      <point x="359" y="322"/>
      <point x="361" y="321"/>
      <point x="371" y="321" type="curve"/>
      <point x="302" y="370" type="line"/>
      <point x="302" y="93" type="line"/>
      <point x="449" y="93" type="line"/>
      <point x="449" y="452" type="line"/>
      <point x="422" y="458"/>
      <point x="393" y="461"/>
      <point x="365" y="461" type="curve" smooth="yes"/>
      <point x="214" y="461"/>
      <point x="74" y="378"/>
      <point x="74" y="220" type="curve" smooth="yes"/>
      <point x="74" y="125"/>
      <point x="125" y="85"/>
    </contour>
  </outline>
</glyph>
<glyph name="ma-oriya" format="2">
  <advance width="645"/>
  <unicode hex="0B2E"/>
  <note>
maorya
</note>
  <anchor x="464" y="93" name="bottom"/>
  <anchor x="611" y="93" name="bottom_ra"/>
  <anchor x="611" y="103" name="bottom_ta"/>
  <anchor x="288" y="751" name="top"/>
  <anchor x="538" y="751" name="topright"/>
  <outline>
    <contour>
      <point x="141" y="279" type="curve"/>
      <point x="206" y="372" type="line"/>
      <point x="177" y="398"/>
      <point x="163" y="433"/>
      <point x="163" y="476" type="curve" smooth="yes"/>
      <point x="163" y="566"/>
      <point x="222" y="613"/>
      <point x="311" y="613" type="curve" smooth="yes"/>
      <point x="406" y="613"/>
      <point x="476" y="560"/>
      <point x="476" y="465" type="curve"/>
      <point x="589" y="464" type="line"/>
      <point x="589" y="702"/>
      <point x="399" y="759"/>
      <point x="288" y="759" type="curve" smooth="yes"/>
      <point x="129" y="759"/>
      <point x="16" y="643"/>
      <point x="16" y="503" type="curve" smooth="yes"/>
      <point x="16" y="420"/>
      <point x="56" y="326"/>
    </contour>
    <contour>
      <point x="464" y="93" type="line"/>
      <point x="611" y="93" type="line"/>
      <point x="611" y="751" type="line"/>
      <point x="464" y="751" type="line"/>
      <point x="467" y="669" type="line"/>
      <point x="464" y="592" type="line"/>
    </contour>
    <contour>
      <point x="173" y="85" type="curve" smooth="yes"/>
      <point x="215" y="85"/>
      <point x="256" y="120"/>
      <point x="256" y="184" type="curve" smooth="yes"/>
      <point x="256" y="238"/>
      <point x="227" y="289"/>
      <point x="169" y="289" type="curve" smooth="yes"/>
      <point x="113" y="289"/>
      <point x="94" y="241"/>
      <point x="94" y="195" type="curve"/>
      <point x="206" y="148" type="line"/>
      <point x="205" y="162"/>
      <point x="204" y="174"/>
      <point x="204" y="188" type="curve" smooth="yes"/>
      <point x="204" y="294"/>
      <point x="273" y="329"/>
      <point x="420" y="343" type="curve"/>
      <point x="385" y="285" type="line"/>
      <point x="329" y="545" type="line"/>
      <point x="404" y="479" type="line"/>
      <point x="153" y="468"/>
      <point x="80" y="318"/>
      <point x="80" y="211" type="curve" smooth="yes"/>
      <point x="80" y="126"/>
      <point x="127" y="85"/>
    </contour>
  </outline>
</glyph>
<glyph name="va-oriya" format="2">
  <advance width="606"/>
  <unicode hex="0B35"/>
  <note>
vaorya
</note>
  <guideline x="391" y="221" angle="0"/>
  <anchor x="298" y="93" name="bottom"/>
  <anchor x="600" y="93" name="bottom_ra"/>
  <anchor x="308" y="751" name="top"/>
  <anchor x="460" y="751" name="topright"/>
  <outline>
    <contour>
      <point x="143" y="289" type="curve"/>
      <point x="204" y="383" type="line"/>
      <point x="177" y="409"/>
      <point x="163" y="442"/>
      <point x="163" y="480" type="curve" smooth="yes"/>
      <point x="163" y="569"/>
      <point x="231" y="613"/>
      <point x="300" y="613" type="curve" smooth="yes"/>
      <point x="369" y="613"/>
      <point x="438" y="568"/>
      <point x="438" y="478" type="curve" smooth="yes"/>
      <point x="438" y="453"/>
      <point x="433" y="427"/>
      <point x="422" y="400" type="curve"/>
      <point x="401" y="443" type="line"/>
      <point x="613" y="376" type="line"/>
      <point x="563" y="349" type="line"/>
      <point x="579" y="383"/>
      <point x="590" y="433"/>
      <point x="590" y="483" type="curve" smooth="yes"/>
      <point x="590" y="667"/>
      <point x="443" y="759"/>
      <point x="298" y="759" type="curve" smooth="yes"/>
      <point x="157" y="759"/>
      <point x="16" y="671"/>
      <point x="16" y="498" type="curve" smooth="yes"/>
      <point x="16" y="412"/>
      <point x="55" y="337"/>
    </contour>
    <contour>
      <point x="281" y="138" type="curve" smooth="yes"/>
      <point x="383" y="138"/>
      <point x="445" y="207"/>
      <point x="445" y="319" type="curve" smooth="yes"/>
      <point x="445" y="432"/>
      <point x="383" y="501"/>
      <point x="283" y="501" type="curve" smooth="yes"/>
      <point x="180" y="501"/>
      <point x="116" y="432"/>
      <point x="116" y="319" type="curve" smooth="yes"/>
      <point x="116" y="207"/>
      <point x="180" y="138"/>
    </contour>
    <contour>
      <point x="281" y="260" type="curve" smooth="yes"/>
      <point x="252" y="260"/>
      <point x="234" y="282"/>
      <point x="234" y="319" type="curve" smooth="yes"/>
      <point x="234" y="356"/>
      <point x="252" y="379"/>
      <point x="281" y="379" type="curve" smooth="yes"/>
      <point x="310" y="379"/>
      <point x="327" y="356"/>
      <point x="327" y="319" type="curve" smooth="yes"/>
      <point x="327" y="282"/>
      <point x="310" y="260"/>
    </contour>
    <contour>
      <point x="280" y="280" type="curve" smooth="yes"/>
      <point x="298" y="280"/>
      <point x="308" y="297"/>
      <point x="308" y="320" type="curve" smooth="yes"/>
      <point x="308" y="342"/>
      <point x="298" y="359"/>
      <point x="280" y="359" type="curve" smooth="yes"/>
      <point x="264" y="359"/>
      <point x="253" y="342"/>
      <point x="253" y="320" type="curve" smooth="yes"/>
      <point x="253" y="297"/>
      <point x="264" y="280"/>
    </contour>
    <contour>
      <point x="298" y="93" type="line"/>
      <point x="445" y="93" type="line"/>
      <point x="445" y="319" type="line"/>
      <point x="307" y="177" type="line"/>
    </contour>
  </outline>
</glyph>
<glyph name="eMatra-oriya" format="2">
  <advance width="467"/>
  <unicode hex="0B47"/>
  <note>
evowelsignorya
</note>
  <outline>
    <contour>
      <point x="123" y="485" type="curve"/>
      <point x="125" y="350" type="line"/>
      <point x="157" y="358"/>
      <point x="189" y="362"/>
      <point x="208" y="362" type="curve" smooth="yes"/>
      <point x="265" y="362"/>
      <point x="279" y="331"/>
      <point x="279" y="294" type="curve" smooth="yes"/>
      <point x="279" y="262"/>
      <point x="268" y="231"/>
      <point x="234" y="231" type="curve" smooth="yes"/>
      <point x="185" y="231"/>
      <point x="174" y="298"/>
      <point x="174" y="378" type="curve" smooth="yes"/>
      <point x="174" y="551"/>
      <point x="225" y="613"/>
      <point x="301" y="613" type="curve" smooth="yes"/>
      <point x="343" y="613"/>
      <point x="387" y="594"/>
      <point x="424" y="561" type="curve"/>
      <point x="382" y="550" type="line"/>
      <point x="449" y="713" type="line"/>
      <point x="404" y="743"/>
      <point x="353" y="759"/>
      <point x="298" y="759" type="curve" smooth="yes"/>
      <point x="163" y="759"/>
      <point x="22" y="665"/>
      <point x="22" y="404" type="curve" smooth="yes"/>
      <point x="22" y="203"/>
      <point x="106" y="85"/>
      <point x="243" y="85" type="curve" smooth="yes"/>
      <point x="357" y="85"/>
      <point x="431" y="167"/>
      <point x="431" y="293" type="curve" smooth="yes"/>
      <point x="431" y="426"/>
      <point x="348" y="501"/>
      <point x="226" y="501" type="curve" smooth="yes"/>
      <point x="195" y="501"/>
      <point x="160" y="496"/>
    </contour>
  </outline>
</glyph>
<glyph name="aiLength-oriya" format="2">
  <advance width="600"/>
  <unicode hex="0B56"/>
  <note>
ailengthmarkorya
</note>
  <guideline x="1190" y="527" angle="90"/>
  <guideline x="298" y="929" angle="0"/>
  <guideline x="298" y="941" angle="0"/>
  <anchor x="477" y="751" name="_topright"/>
  <outline>
    <contour>
      <point x="381" y="828" type="line"/>
      <point x="627" y="782" type="line"/>
      <point x="504" y="711" type="line"/>
      <point x="567" y="763"/>
      <point x="597" y="828"/>
      <point x="597" y="886" type="curve" smooth="yes"/>
      <point x="597" y="967"/>
      <point x="547" y="1034"/>
      <point x="452" y="1034" type="curve" smooth="yes"/>
      <point x="370" y="1034"/>
      <point x="268" y="983"/>
      <point x="217" y="983" type="curve" smooth="yes"/>
      <point x="182" y="983"/>
      <point x="158" y="1007"/>
      <point x="135" y="1061" type="curve"/>
      <point x="199" y="1060" type="line"/>
      <point x="17" y="923" type="line"/>
      <point x="26" y="964" type="line"/>
      <point x="70" y="852"/>
      <point x="131" y="837"/>
      <point x="185" y="837" type="curve" smooth="yes"/>
      <point x="284" y="837"/>
      <point x="355" y="888"/>
      <point x="406" y="888" type="curve" smooth="yes"/>
      <point x="436" y="888"/>
      <point x="445" y="871"/>
      <point x="445" y="853" type="curve" smooth="yes"/>
      <point x="445" y="824"/>
      <point x="421" y="793"/>
      <point x="388" y="764" type="curve"/>
    </contour>
  </outline>
</glyph>
<glyph name="auLength-oriya" format="2">
  <advance width="215"/>
  <unicode hex="0B57"/>
  <note>
aulengthmarkorya
</note>
  <outline>
    <contour>
      <point x="34" y="789" type="line"/>
      <point x="34" y="93" type="line"/>
      <point x="181" y="93" type="line"/>
      <point x="181" y="789" type="line"/>
    </contour>
    <contour>
      <point x="34" y="789" type="curve"/>
      <point x="93" y="697" type="line"/>
      <point x="190" y="728"/>
      <point x="231" y="816"/>
      <point x="231" y="885" type="curve" smooth="yes"/>
      <point x="231" y="964"/>
      <point x="178" y="1034"/>
      <point x="85" y="1034" type="curve" smooth="yes"/>
      <point x="5" y="1034"/>
      <point x="-98" y="983"/>
      <point x="-149" y="983" type="curve" smooth="yes"/>
      <point x="-184" y="983"/>
      <point x="-208" y="1007"/>
      <point x="-231" y="1061" type="curve"/>
      <point x="-167" y="1060" type="line"/>
      <point x="-349" y="923" type="line"/>
      <point x="-340" y="964" type="line"/>
      <point x="-296" y="852"/>
      <point x="-235" y="837"/>
      <point x="-181" y="837" type="curve" smooth="yes"/>
      <point x="-82" y="837"/>
      <point x="-9" y="888"/>
      <point x="39" y="888" type="curve" smooth="yes"/>
      <point x="66" y="888"/>
      <point x="80" y="872"/>
      <point x="80" y="852" type="curve" smooth="yes"/>
      <point x="80" y="831"/>
      <point x="65" y="805"/>
    </contour>
  </outline>
</glyph>
<glyph name="zero-oriya" format="2">
  <advance width="490"/>
  <unicode hex="0B66"/>
  <note>
zeroorya
</note>
  <outline>
    <contour>
      <point x="245" y="159" type="curve" smooth="yes"/>
      <point x="385" y="159"/>
      <point x="477" y="258"/>
      <point x="477" y="409" type="curve" smooth="yes"/>
      <point x="477" y="560"/>
      <point x="385" y="660"/>
      <point x="245" y="660" type="curve" smooth="yes"/>
      <point x="105" y="660"/>
      <point x="13" y="561"/>
      <point x="13" y="410" type="curve" smooth="yes"/>
      <point x="13" y="259"/>
      <point x="105" y="159"/>
    </contour>
    <contour>
      <point x="245" y="514" type="curve" smooth="yes"/>
      <point x="296" y="514"/>
      <point x="325" y="476"/>
      <point x="325" y="409" type="curve" smooth="yes"/>
      <point x="325" y="343"/>
      <point x="296" y="305"/>
      <point x="245" y="305" type="curve" smooth="yes"/>
      <point x="194" y="305"/>
      <point x="165" y="343"/>
      <point x="165" y="409" type="curve" smooth="yes"/>
      <point x="165" y="476"/>
      <point x="194" y="514"/>
    </contour>
  </outline>
</glyph>
<glyph name="isshar-oriya" format="2">
  <advance width="622"/>
  <unicode hex="0B70"/>
  <note>
issharorya
</note>
  <outline>
    <contour>
      <point x="443" y="789" type="line"/>
      <point x="408" y="471"/>
      <point x="353" y="342"/>
      <point x="280" y="342" type="curve" smooth="yes"/>
      <point x="219" y="342"/>
      <point x="184" y="436"/>
      <point x="179" y="570" type="curve"/>
      <point x="28" y="548" type="line"/>
      <point x="33" y="384"/>
      <point x="102" y="196"/>
      <point x="284" y="196" type="curve" smooth="yes"/>
      <point x="444" y="196"/>
      <point x="556" y="341"/>
      <point x="595" y="772" type="curve"/>
    </contour>
    <contour>
      <point x="292" y="553" type="curve" smooth="yes"/>
      <point x="336" y="553"/>
      <point x="365" y="588"/>
      <point x="365" y="641" type="curve" smooth="yes"/>
      <point x="365" y="693"/>
      <point x="336" y="730"/>
      <point x="292" y="730" type="curve" smooth="yes"/>
      <point x="248" y="730"/>
      <point x="220" y="693"/>
      <point x="220" y="641" type="curve" smooth="yes"/>
      <point x="220" y="588"/>
      <point x="248" y="553"/>
    </contour>
  </outline>
</glyph>
<glyph name="endash" format="2">
  <advance width="500"/>
  <unicode hex="2013"/>
  <outline>
    <contour>
      <point x="37" y="454" type="line"/>
      <point x="37" y="324" type="line"/>
      <point x="463" y="324" type="line"/>
      <point x="463" y="454" type="line"/>
    </contour>
  </outline>
</glyph>
<glyph name="quoteleft" format="2">
  <advance width="339"/>
  <unicode hex="2018"/>
  <outline>
    <contour>
      <point x="79" y="537" type="line"/>
      <point x="237" y="537" type="line"/>
      <point x="246" y="617"/>
      <point x="266" y="731"/>
      <point x="285" y="822" type="curve"/>
      <point x="152" y="822" type="line"/>
      <point x="121" y="750"/>
      <point x="93" y="649"/>
      <point x="74" y="548" type="curve"/>
    </contour>
  </outline>
</glyph>
<glyph name="ellipsis" format="2">
  <advance width="670"/>
  <unicode hex="2026"/>
  <outline>
    <contour>
      <point x="337" y="81" type="curve" smooth="yes"/>
      <point x="380" y="81"/>
      <point x="417" y="107"/>
      <point x="417" y="172" type="curve" smooth="yes"/>
      <point x="417" y="239"/>
      <point x="380" y="264"/>
      <point x="337" y="264" type="curve" smooth="yes"/>
      <point x="291" y="264"/>
      <point x="252" y="239"/>
      <point x="252" y="172" type="curve" smooth="yes"/>
      <point x="252" y="107"/>
      <point x="291" y="81"/>
    </contour>
    <contour>
      <point x="124" y="81" type="curve" smooth="yes"/>
      <point x="168" y="81"/>
      <point x="203" y="107"/>
      <point x="203" y="172" type="curve" smooth="yes"/>
      <point x="203" y="239"/>
      <point x="168" y="264"/>
      <point x="124" y="264" type="curve" smooth="yes"/>
      <point x="78" y="264"/>
      <point x="39" y="239"/>
      <point x="39" y="172" type="curve" smooth="yes"/>
      <point x="39" y="107"/>
      <point x="78" y="81"/>
    </contour>
    <contour>
      <point x="551" y="81" type="curve" smooth="yes"/>
      <point x="595" y="81"/>
      <point x="631" y="107"/>
      <point x="631" y="172" type="curve" smooth="yes"/>
      <point x="631" y="239"/>
      <point x="595" y="264"/>
      <point x="551" y="264" type="curve" smooth="yes"/>
      <point x="505" y="264"/>
      <point x="466" y="239"/>
      <point x="466" y="172" type="curve" smooth="yes"/>
      <point x="466" y="107"/>
      <point x="505" y="81"/>
    </contour>
  </outline>
</glyph>
<glyph name="_part_ta-oriya.below" format="2">
  <advance width="484"/>
  <note>
tasubscriptorya
</note>
  <outline>
    <contour>
      <point x="-15" y="-161" type="line"/>
      <point x="-50" y="-85" type="line"/>
      <point x="30" y="-143"/>
      <point x="125" y="-167"/>
      <point x="208" y="-167" type="curve" smooth="yes"/>
      <point x="361" y="-167"/>
      <point x="464" y="-80"/>
      <point x="464" y="63" type="curve" smooth="yes"/>
      <point x="464" y="158"/>
      <point x="419" y="214"/>
      <point x="342" y="214" type="curve" smooth="yes"/>
      <point x="273" y="214"/>
      <point x="226" y="168"/>
      <point x="226" y="95" type="curve" smooth="yes"/>
      <point x="226" y="15"/>
      <point x="282" y="-25"/>
      <point x="339" y="-25" type="curve" smooth="yes"/>
      <point x="397" y="-25"/>
      <point x="456" y="15"/>
      <point x="456" y="95" type="curve"/>
      <point x="364" y="32" type="line"/>
      <point x="349" y="-26"/>
      <point x="297" y="-50"/>
      <point x="217" y="-50" type="curve" smooth="yes"/>
      <point x="151" y="-50"/>
      <point x="68" y="-31"/>
      <point x="6" y="11" type="curve"/>
      <point x="64" y="26" type="line"/>
    </contour>
    <contour>
      <point x="368" y="94" type="curve" smooth="yes"/>
      <point x="368" y="72"/>
      <point x="359" y="60"/>
      <point x="345" y="60" type="curve" smooth="yes"/>
      <point x="331" y="60"/>
      <point x="322" y="72"/>
      <point x="322" y="94" type="curve" smooth="yes"/>
      <point x="322" y="116"/>
      <point x="331" y="128"/>
      <point x="345" y="128" type="curve" smooth="yes"/>
      <point x="359" y="128"/>
      <point x="368" y="116"/>
    </contour>
  </outline>
</glyph>
<glyph name="a-oriya.REV_BRACKET.141" format="2">
  <advance width="647"/>
  <note>
aorya
</note>
  <anchor x="540" y="751" name="topright"/>
  <outline>
    <contour>
      <point x="234" y="85" type="curve" smooth="yes"/>
      <point x="323" y="85"/>
      <point x="425" y="125"/>
      <point x="502" y="205" type="curve"/>
      <point x="477" y="394" type="line"/>
      <point x="431" y="297"/>
      <point x="316" y="231"/>
      <point x="244" y="231" type="curve" smooth="yes"/>
      <point x="207" y="231"/>
      <point x="181" y="248"/>
      <point x="181" y="285" type="curve" smooth="yes"/>
      <point x="181" y="325"/>
      <point x="212" y="339"/>
      <point x="249" y="354" type="curve" smooth="yes"/>
      <point x="274" y="364" type="line" smooth="yes"/>
      <point x="364" y="400"/>
      <point x="441" y="433"/>
      <point x="441" y="584" type="curve" smooth="yes"/>
      <point x="441" y="702"/>
      <point x="394" y="759"/>
      <point x="319" y="759" type="curve" smooth="yes"/>
      <point x="268" y="759"/>
      <point x="199" y="733"/>
      <point x="199" y="591" type="curve"/>
      <point x="243" y="591" type="line"/>
      <point x="243" y="696"/>
      <point x="210" y="759"/>
      <point x="129" y="759" type="curve" smooth="yes"/>
      <point x="56" y="759"/>
      <point x="14" y="708"/>
      <point x="14" y="626" type="curve" smooth="yes"/>
      <point x="14" y="590"/>
      <point x="24" y="529"/>
      <point x="45" y="488" type="curve"/>
      <point x="4" y="508" type="line"/>
      <point x="151" y="545" type="line"/>
      <point x="145" y="567"/>
      <point x="141" y="587"/>
      <point x="141" y="597" type="curve" smooth="yes"/>
      <point x="141" y="611"/>
      <point x="144" y="621"/>
      <point x="154" y="621" type="curve" smooth="yes"/>
      <point x="167" y="621"/>
      <point x="167" y="606"/>
      <point x="167" y="594" type="curve" smooth="yes"/>
      <point x="167" y="546" type="line"/>
      <point x="287" y="546" type="line"/>
      <point x="287" y="593" type="line" smooth="yes"/>
      <point x="287" y="609"/>
      <point x="289" y="621"/>
      <point x="300" y="621" type="curve" smooth="yes"/>
      <point x="309" y="621"/>
      <point x="314" y="610"/>
      <point x="314" y="591" type="curve" smooth="yes"/>
      <point x="314" y="521"/>
      <point x="266" y="500"/>
      <point x="228" y="487" type="curve" smooth="yes"/>
      <point x="198" y="477" type="line" smooth="yes"/>
      <point x="139" y="457"/>
      <point x="29" y="421"/>
      <point x="29" y="279" type="curve" smooth="yes"/>
      <point x="29" y="149"/>
      <point x="122" y="85"/>
    </contour>
    <contour>
      <point x="466" y="93" type="line"/>
      <point x="613" y="93" type="line"/>
      <point x="613" y="751" type="line"/>
      <point x="466" y="751" type="line"/>
      <point x="466" y="302" type="line"/>
      <point x="491" y="242" type="line"/>
    </contour>
  </outline>
</glyph>
<glyph name="aiLength-oriya.stem" format="2">
  <advance width="600"/>
  <note>
ailengthmarkorya
</note>
  <guideline x="298" y="941" angle="0"/>
  <anchor x="392" y="751" name="_topright"/>
  <outline>
    <contour>
      <point x="318" y="751" type="curve"/>
      <point x="471" y="701" type="line"/>
      <point x="410" y="697" type="line"/>
      <point x="507" y="728"/>
      <point x="548" y="816"/>
      <point x="548" y="885" type="curve" smooth="yes"/>
      <point x="548" y="964"/>
      <point x="495" y="1034"/>
      <point x="402" y="1034" type="curve" smooth="yes"/>
      <point x="322" y="1034"/>
      <point x="219" y="983"/>
      <point x="168" y="983" type="curve" smooth="yes"/>
      <point x="133" y="983"/>
      <point x="109" y="1007"/>
      <point x="86" y="1061" type="curve"/>
      <point x="150" y="1060" type="line"/>
      <point x="-32" y="923" type="line"/>
      <point x="-23" y="964" type="line"/>
      <point x="21" y="852"/>
      <point x="82" y="837"/>
      <point x="136" y="837" type="curve" smooth="yes"/>
      <point x="235" y="837"/>
      <point x="308" y="888"/>
      <point x="356" y="888" type="curve" smooth="yes"/>
      <point x="379" y="888"/>
      <point x="396" y="876"/>
      <point x="396" y="849" type="curve" smooth="yes"/>
      <point x="396" y="817"/>
      <point x="372" y="789"/>
    </contour>
  </outline>
</glyph>
<glyph name="aiLength-oriya.umbrella" format="2">
  <advance width="600"/>
  <note>
ailengthmarkorya
</note>
  <guideline x="1190" y="527" angle="90"/>
  <guideline x="298" y="941" angle="0"/>
  <anchor x="483" y="751" name="_topright"/>
  <outline>
    <contour>
      <point x="268" y="743" type="line"/>
      <point x="522" y="644" type="line"/>
      <point x="403" y="634" type="line"/>
      <point x="557" y="707"/>
      <point x="597" y="819"/>
      <point x="597" y="885" type="curve" smooth="yes"/>
      <point x="597" y="956"/>
      <point x="550" y="1034"/>
      <point x="451" y="1034" type="curve" smooth="yes"/>
      <point x="371" y="1034"/>
      <point x="268" y="983"/>
      <point x="217" y="983" type="curve" smooth="yes"/>
      <point x="182" y="983"/>
      <point x="158" y="1007"/>
      <point x="135" y="1061" type="curve"/>
      <point x="199" y="1060" type="line"/>
      <point x="17" y="923" type="line"/>
      <point x="26" y="964" type="line"/>
      <point x="70" y="852"/>
      <point x="131" y="837"/>
      <point x="185" y="837" type="curve" smooth="yes"/>
      <point x="284" y="837"/>
      <point x="355" y="888"/>
      <point x="406" y="888" type="curve" smooth="yes"/>
      <point x="436" y="888"/>
      <point x="445" y="871"/>
      <point x="445" y="853" type="curve" smooth="yes"/>
      <point x="445" y="798"/>
      <point x="357" y="735"/>
      <point x="285" y="691" type="curve"/>
    </contour>
  </outline>
</glyph>
<glyph name="ai_reph-oriya" format="2">
  <advance width="804"/>
  <outline>
    <contour>
      <point x="594" y="363" type="curve" smooth="yes"/>
      <point x="616" y="363"/>
      <point x="639" y="367"/>
      <point x="651" y="375" type="curve"/>
      <point x="651" y="526" type="line"/>
      <point x="639" y="518"/>
      <point x="616" y="513"/>
      <point x="595" y="513" type="curve" smooth="yes"/>
      <point x="575" y="513"/>
      <point x="551" y="518"/>
      <point x="535" y="526" type="curve"/>
      <point x="535" y="375" type="line"/>
      <point x="550" y="367"/>
      <point x="573" y="363"/>
    </contour>
    <contour>
      <point x="779" y="841" type="line"/>
      <point x="923" y="999" type="line"/>
      <point x="845" y="1070" type="line"/>
      <point x="701" y="911" type="line"/>
    </contour>
    <contour>
      <point x="623" y="789" type="line"/>
      <point x="623" y="93" type="line"/>
      <point x="770" y="93" type="line"/>
      <point x="770" y="789" type="line"/>
    </contour>
    <contour>
      <point x="623" y="789" type="curve"/>
      <point x="682" y="697" type="line"/>
      <point x="779" y="728"/>
      <point x="820" y="816"/>
      <point x="820" y="885" type="curve" smooth="yes"/>
      <point x="820" y="964"/>
      <point x="767" y="1034"/>
      <point x="674" y="1034" type="curve" smooth="yes"/>
      <point x="594" y="1034"/>
      <point x="491" y="983"/>
      <point x="440" y="983" type="curve" smooth="yes"/>
      <point x="405" y="983"/>
      <point x="381" y="1007"/>
      <point x="358" y="1061" type="curve"/>
      <point x="422" y="1060" type="line"/>
      <point x="240" y="923" type="line"/>
      <point x="249" y="964" type="line"/>
      <point x="293" y="852"/>
      <point x="354" y="837"/>
      <point x="408" y="837" type="curve" smooth="yes"/>
      <point x="507" y="837"/>
      <point x="580" y="888"/>
      <point x="628" y="888" type="curve" smooth="yes"/>
      <point x="655" y="888"/>
      <point x="669" y="872"/>
      <point x="669" y="852" type="curve" smooth="yes"/>
      <point x="669" y="831"/>
      <point x="654" y="805"/>
    </contour>
    <contour>
      <point x="252" y="583" type="curve"/>
      <point x="323" y="517" type="line"/>
      <point x="323" y="583"/>
      <point x="363" y="611"/>
      <point x="440" y="611" type="curve"/>
      <point x="408" y="664" type="line"/>
      <point x="408" y="208" type="line"/>
      <point x="457" y="217" type="line"/>
      <point x="323" y="316"/>
      <point x="185" y="480"/>
      <point x="57" y="647" type="curve"/>
      <point x="133" y="622" type="line"/>
      <point x="-46" y="466" type="line"/>
      <point x="-47" y="522" type="line"/>
      <point x="83" y="364"/>
      <point x="222" y="208"/>
      <point x="380" y="93" type="curve"/>
      <point x="555" y="93" type="line"/>
      <point x="555" y="751" type="line"/>
      <point x="490" y="751" type="line" smooth="yes"/>
      <point x="299" y="751"/>
      <point x="216" y="627"/>
      <point x="216" y="529" type="curve" smooth="yes"/>
      <point x="216" y="456"/>
      <point x="263" y="418"/>
      <point x="310" y="418" type="curve" smooth="yes"/>
      <point x="362" y="418"/>
      <point x="389" y="463"/>
      <point x="389" y="508" type="curve" smooth="yes"/>
      <point x="389" y="554"/>
      <point x="361" y="601"/>
      <point x="304" y="601" type="curve" smooth="yes"/>
      <point x="286" y="601"/>
      <point x="268" y="595"/>
    </contour>
  </outline>
</glyph>
<glyph name="ba-oriya.base" format="2">
  <advance width="603"/>
  <anchor x="363" y="203" name="bottom"/>
  <anchor x="300" y="751" name="top"/>
  <anchor x="457" y="751" name="topright"/>
  <outline>
    <contour>
      <point x="298" y="169" type="line"/>
      <point x="428" y="169" type="line"/>
      <point x="428" y="373" type="line"/>
      <point x="307" y="249" type="line"/>
    </contour>
    <contour>
      <point x="266" y="211" type="curve" smooth="yes"/>
      <point x="362" y="211"/>
      <point x="428" y="278"/>
      <point x="428" y="373" type="curve" smooth="yes"/>
      <point x="428" y="467"/>
      <point x="363" y="531"/>
      <point x="269" y="531" type="curve" smooth="yes"/>
      <point x="176" y="531"/>
      <point x="113" y="466"/>
      <point x="113" y="370" type="curve" smooth="yes"/>
      <point x="113" y="276"/>
      <point x="173" y="211"/>
    </contour>
    <contour>
      <point x="270" y="319" type="curve" smooth="yes"/>
      <point x="249" y="319"/>
      <point x="239" y="335"/>
      <point x="239" y="371" type="curve" smooth="yes"/>
      <point x="239" y="409"/>
      <point x="249" y="427"/>
      <point x="270" y="427" type="curve" smooth="yes"/>
      <point x="291" y="427"/>
      <point x="300" y="410"/>
      <point x="300" y="371" type="curve" smooth="yes"/>
      <point x="300" y="334"/>
      <point x="291" y="319"/>
    </contour>
    <contour>
      <point x="139" y="342" type="curve"/>
      <point x="198" y="427" type="line"/>
      <point x="174" y="449"/>
      <point x="161" y="479"/>
      <point x="161" y="512" type="curve" smooth="yes"/>
      <point x="161" y="586"/>
      <point x="225" y="623"/>
      <point x="300" y="623" type="curve" smooth="yes"/>
      <point x="374" y="623"/>
      <point x="440" y="586"/>
      <point x="440" y="510" type="curve" smooth="yes"/>
      <point x="440" y="487"/>
      <point x="434" y="465"/>
      <point x="423" y="439" type="curve"/>
      <point x="403" y="480" type="line"/>
      <point x="606" y="423" type="line"/>
      <point x="558" y="393" type="line"/>
      <point x="574" y="424"/>
      <point x="587" y="469"/>
      <point x="587" y="515" type="curve" smooth="yes"/>
      <point x="587" y="676"/>
      <point x="445" y="759"/>
      <point x="300" y="759" type="curve" smooth="yes"/>
      <point x="155" y="759"/>
      <point x="16" y="676"/>
      <point x="16" y="528" type="curve" smooth="yes"/>
      <point x="16" y="452"/>
      <point x="53" y="385"/>
    </contour>
  </outline>
</glyph>
<glyph name="ba_ja-oriya" format="2">
  <advance width="603"/>
  <guideline x="109" y="142" angle="90"/>
  <guideline x="428" y="177" angle="90"/>
  <guideline x="488" y="173" angle="90"/>
  <anchor x="300" y="751" name="top"/>
  <anchor x="457" y="751" name="topright"/>
  <outline>
    <contour>
      <point x="273" y="-155" type="curve" smooth="yes"/>
      <point x="314" y="-155"/>
      <point x="365" y="-146"/>
      <point x="401" y="-133" type="curve"/>
      <point x="372" y="-169" type="line"/>
      <point x="364" y="-137"/>
      <point x="352" y="-70"/>
      <point x="352" y="-12" type="curve" smooth="yes"/>
      <point x="352" y="24"/>
      <point x="355" y="45"/>
      <point x="367" y="45" type="curve" smooth="yes"/>
      <point x="380" y="45"/>
      <point x="380" y="28"/>
      <point x="380" y="9" type="curve" smooth="yes"/>
      <point x="380" y="-151" type="line"/>
      <point x="488" y="-151" type="line"/>
      <point x="488" y="22" type="line" smooth="yes"/>
      <point x="488" y="88"/>
      <point x="443" y="129"/>
      <point x="370" y="129" type="curve" smooth="yes"/>
      <point x="275" y="129"/>
      <point x="244" y="69"/>
      <point x="244" y="-4" type="curve" smooth="yes"/>
      <point x="244" y="-35"/>
      <point x="250" y="-76"/>
      <point x="264" y="-110" type="curve"/>
      <point x="291" y="-62" type="line"/>
      <point x="281" y="-69"/>
      <point x="272" y="-72"/>
      <point x="263" y="-72" type="curve" smooth="yes"/>
      <point x="237" y="-72"/>
      <point x="219" y="-44"/>
      <point x="219" y="-3" type="curve" smooth="yes"/>
      <point x="219" y="60"/>
      <point x="274" y="130"/>
      <point x="350" y="142" type="curve"/>
      <point x="281" y="62" type="line"/>
      <point x="153" y="150" type="line"/>
      <point x="244" y="178" type="line"/>
      <point x="151" y="133"/>
      <point x="111" y="58"/>
      <point x="111" y="-9" type="curve" smooth="yes"/>
      <point x="111" y="-99"/>
      <point x="183" y="-155"/>
    </contour>
    <contour>
      <point x="292" y="93" type="line"/>
      <point x="428" y="93" type="line"/>
      <point x="428" y="373" type="line"/>
      <point x="303" y="249" type="line"/>
    </contour>
    <contour>
      <point x="266" y="211" type="curve" smooth="yes"/>
      <point x="362" y="211"/>
      <point x="428" y="278"/>
      <point x="428" y="373" type="curve" smooth="yes"/>
      <point x="428" y="467"/>
      <point x="363" y="531"/>
      <point x="269" y="531" type="curve" smooth="yes"/>
      <point x="176" y="531"/>
      <point x="113" y="466"/>
      <point x="113" y="370" type="curve" smooth="yes"/>
      <point x="113" y="276"/>
      <point x="173" y="211"/>
    </contour>
    <contour>
      <point x="270" y="319" type="curve" smooth="yes"/>
      <point x="249" y="319"/>
      <point x="239" y="335"/>
      <point x="239" y="371" type="curve" smooth="yes"/>
      <point x="239" y="409"/>
      <point x="249" y="427"/>
      <point x="270" y="427" type="curve" smooth="yes"/>
      <point x="291" y="427"/>
      <point x="300" y="410"/>
      <point x="300" y="371" type="curve" smooth="yes"/>
      <point x="300" y="334"/>
      <point x="291" y="319"/>
    </contour>
    <contour>
      <point x="139" y="342" type="curve"/>
      <point x="198" y="427" type="line"/>
      <point x="174" y="449"/>
      <point x="161" y="479"/>
      <point x="161" y="512" type="curve" smooth="yes"/>
      <point x="161" y="586"/>
      <point x="225" y="623"/>
      <point x="300" y="623" type="curve" smooth="yes"/>
      <point x="374" y="623"/>
      <point x="440" y="586"/>
      <point x="440" y="510" type="curve" smooth="yes"/>
      <point x="440" y="487"/>
      <point x="434" y="465"/>
      <point x="423" y="439" type="curve"/>
      <point x="403" y="480" type="line"/>
      <point x="606" y="423" type="line"/>
      <point x="558" y="393" type="line"/>
      <point x="574" y="424"/>
      <point x="587" y="469"/>
      <point x="587" y="515" type="curve" smooth="yes"/>
      <point x="587" y="676"/>
      <point x="445" y="759"/>
      <point x="300" y="759" type="curve" smooth="yes"/>
      <point x="155" y="759"/>
      <point x="16" y="676"/>
      <point x="16" y="528" type="curve" smooth="yes"/>
      <point x="16" y="452"/>
      <point x="53" y="385"/>
    </contour>
  </outline>
</glyph>
<glyph name="bha-oriya.base" format="2">
  <advance width="744"/>
  <anchor x="459" y="203" name="bottom"/>
  <anchor x="366" y="751" name="top"/>
  <anchor x="586" y="751" name="topright"/>
  <outline>
    <contour>
      <point x="310" y="164" type="curve" smooth="yes"/>
      <point x="411" y="164"/>
      <point x="512" y="225"/>
      <point x="512" y="343" type="curve" smooth="yes"/>
      <point x="512" y="453" type="line"/>
      <point x="405" y="453" type="line"/>
      <point x="405" y="351" type="line" smooth="yes"/>
      <point x="405" y="300"/>
      <point x="375" y="269"/>
      <point x="321" y="269" type="curve" smooth="yes"/>
      <point x="259" y="269"/>
      <point x="231" y="310"/>
      <point x="231" y="357" type="curve" smooth="yes"/>
      <point x="231" y="390"/>
      <point x="245" y="434"/>
      <point x="283" y="486" type="curve"/>
      <point x="206" y="543" type="line"/>
      <point x="147" y="484"/>
      <point x="104" y="417"/>
      <point x="104" y="342" type="curve" smooth="yes"/>
      <point x="104" y="225"/>
      <point x="208" y="164"/>
    </contour>
    <contour>
      <point x="494" y="394" type="curve"/>
      <point x="437" y="398" type="line"/>
      <point x="421" y="374"/>
      <point x="409" y="363"/>
      <point x="393" y="363" type="curve" smooth="yes"/>
      <point x="377" y="363"/>
      <point x="371" y="376"/>
      <point x="371" y="389" type="curve" smooth="yes"/>
      <point x="371" y="402"/>
      <point x="377" y="423"/>
      <point x="390" y="443" type="curve"/>
      <point x="320" y="494" type="line"/>
      <point x="277" y="450"/>
      <point x="261" y="402"/>
      <point x="261" y="369" type="curve" smooth="yes"/>
      <point x="261" y="314"/>
      <point x="305" y="283"/>
      <point x="367" y="283" type="curve" smooth="yes"/>
      <point x="452" y="283"/>
      <point x="494" y="340"/>
    </contour>
    <contour>
      <point x="16" y="531" type="curve" smooth="yes"/>
      <point x="16" y="453"/>
      <point x="61" y="374"/>
      <point x="137" y="329" type="curve"/>
      <point x="196" y="421" type="line"/>
      <point x="173" y="442"/>
      <point x="161" y="473"/>
      <point x="161" y="503" type="curve" smooth="yes"/>
      <point x="161" y="576"/>
      <point x="234" y="623"/>
      <point x="346" y="623" type="curve" smooth="yes"/>
      <point x="482" y="623"/>
      <point x="573" y="554"/>
      <point x="573" y="449" type="curve" smooth="yes"/>
      <point x="573" y="404"/>
      <point x="559" y="354"/>
      <point x="528" y="308" type="curve"/>
      <point x="653" y="96" type="line"/>
      <point x="582" y="150" type="line"/>
      <point x="772" y="261" type="line"/>
      <point x="799" y="166" type="line"/>
      <point x="655" y="382" type="line"/>
      <point x="627" y="258" type="line"/>
      <point x="692" y="333"/>
      <point x="723" y="411"/>
      <point x="723" y="490" type="curve" smooth="yes"/>
      <point x="723" y="657"/>
      <point x="587" y="759"/>
      <point x="357" y="759" type="curve" smooth="yes"/>
      <point x="114" y="759"/>
      <point x="16" y="646"/>
    </contour>
  </outline>
</glyph>
<glyph name="bha_ra-oriya.REV_BRACKET.141" format="2">
  <advance width="840"/>
  <anchor x="389" y="751" name="top"/>
  <anchor x="674" y="751" name="topright"/>
  <outline>
    <contour>
      <point x="750" y="10" type="line"/>
      <point x="666" y="60" type="line"/>
      <point x="870" y="191" type="line"/>
      <point x="898" y="90" type="line"/>
      <point x="734" y="334" type="line"/>
      <point x="707" y="193" type="line"/>
      <point x="773" y="278"/>
      <point x="804" y="368"/>
      <point x="804" y="449" type="curve" smooth="yes"/>
      <point x="804" y="620"/>
      <point x="665" y="759"/>
      <point x="385" y="759" type="curve" smooth="yes"/>
      <point x="118" y="759"/>
      <point x="16" y="631"/>
      <point x="16" y="504" type="curve" smooth="yes"/>
      <point x="16" y="421"/>
      <point x="59" y="338"/>
      <point x="142" y="289" type="curve"/>
      <point x="198" y="377" type="line"/>
      <point x="176" y="399"/>
      <point x="163" y="438"/>
      <point x="163" y="472" type="curve" smooth="yes"/>
      <point x="163" y="541"/>
      <point x="215" y="613"/>
      <point x="382" y="613" type="curve" smooth="yes"/>
      <point x="574" y="613"/>
      <point x="652" y="520"/>
      <point x="652" y="407" type="curve" smooth="yes"/>
      <point x="652" y="358"/>
      <point x="637" y="302"/>
      <point x="605" y="250" type="curve"/>
    </contour>
    <contour>
      <point x="331" y="85" type="curve" smooth="yes"/>
      <point x="504" y="85"/>
      <point x="586" y="152"/>
      <point x="586" y="318" type="curve" smooth="yes"/>
      <point x="586" y="413" type="line"/>
      <point x="439" y="413" type="line"/>
      <point x="439" y="268" type="line" smooth="yes"/>
      <point x="439" y="228"/>
      <point x="396" y="205"/>
      <point x="351" y="205" type="curve" smooth="yes"/>
      <point x="279" y="205"/>
      <point x="249" y="247"/>
      <point x="249" y="301" type="curve" smooth="yes"/>
      <point x="249" y="350"/>
      <point x="271" y="408"/>
      <point x="320" y="457" type="curve"/>
      <point x="230" y="537" type="line"/>
      <point x="144" y="477"/>
      <point x="97" y="380"/>
      <point x="97" y="291" type="curve" smooth="yes"/>
      <point x="97" y="182"/>
      <point x="169" y="85"/>
    </contour>
    <contour>
      <point x="389" y="218" type="curve" smooth="yes"/>
      <point x="444" y="218"/>
      <point x="473" y="250"/>
      <point x="491" y="277" type="curve"/>
      <point x="470" y="350" type="line"/>
      <point x="455" y="330"/>
      <point x="443" y="321"/>
      <point x="428" y="321" type="curve" smooth="yes"/>
      <point x="414" y="321"/>
      <point x="407" y="331"/>
      <point x="407" y="345" type="curve" smooth="yes"/>
      <point x="407" y="361"/>
      <point x="415" y="382"/>
      <point x="428" y="399" type="curve"/>
      <point x="349" y="470" type="line"/>
      <point x="302" y="427"/>
      <point x="279" y="373"/>
      <point x="279" y="326" type="curve" smooth="yes"/>
      <point x="279" y="266"/>
      <point x="316" y="218"/>
    </contour>
    <contour>
      <point x="662" y="-107" type="line"/>
      <point x="662" y="113" type="line"/>
      <point x="515" y="113" type="line"/>
      <point x="515" y="23" type="line"/>
      <point x="162" y="23" type="line"/>
      <point x="162" y="-107" type="line"/>
    </contour>
  </outline>
</glyph>
<glyph name="ca-oriya.base" format="2">
  <advance width="568"/>
  <anchor x="354" y="203" name="bottom"/>
  <anchor x="281" y="751" name="top"/>
  <anchor x="422" y="751" name="topright"/>
  <outline>
    <contour>
      <point x="137" y="342" type="curve"/>
      <point x="196" y="426" type="line"/>
      <point x="175" y="446"/>
      <point x="161" y="476"/>
      <point x="161" y="511" type="curve" smooth="yes"/>
      <point x="161" y="584"/>
      <point x="219" y="623"/>
      <point x="283" y="623" type="curve" smooth="yes"/>
      <point x="344" y="623"/>
      <point x="402" y="586"/>
      <point x="402" y="508" type="curve" smooth="yes"/>
      <point x="402" y="487"/>
      <point x="397" y="464"/>
      <point x="386" y="438" type="curve"/>
      <point x="371" y="461" type="line"/>
      <point x="560" y="396" type="line"/>
      <point x="526" y="396" type="line"/>
      <point x="542" y="426"/>
      <point x="552" y="471"/>
      <point x="552" y="515" type="curve" smooth="yes"/>
      <point x="552" y="676"/>
      <point x="417" y="759"/>
      <point x="281" y="759" type="curve" smooth="yes"/>
      <point x="147" y="759"/>
      <point x="16" y="677"/>
      <point x="16" y="528" type="curve" smooth="yes"/>
      <point x="16" y="452"/>
      <point x="52" y="386"/>
    </contour>
    <contour>
      <point x="259" y="164" type="curve" smooth="yes"/>
      <point x="357" y="164"/>
      <point x="419" y="229"/>
      <point x="419" y="330" type="curve" smooth="yes"/>
      <point x="419" y="430"/>
      <point x="358" y="496"/>
      <point x="261" y="496" type="curve" smooth="yes"/>
      <point x="161" y="496"/>
      <point x="98" y="430"/>
      <point x="98" y="329" type="curve" smooth="yes"/>
      <point x="98" y="230"/>
      <point x="159" y="164"/>
    </contour>
    <contour>
      <point x="259" y="279" type="curve" smooth="yes"/>
      <point x="238" y="279"/>
      <point x="228" y="298"/>
      <point x="228" y="330" type="curve" smooth="yes"/>
      <point x="228" y="363"/>
      <point x="238" y="382"/>
      <point x="259" y="382" type="curve" smooth="yes"/>
      <point x="279" y="382"/>
      <point x="289" y="363"/>
      <point x="289" y="330" type="curve" smooth="yes"/>
      <point x="289" y="298"/>
      <point x="279" y="279"/>
    </contour>
  </outline>
</glyph>
<glyph name="ca-oriya.below" format="2">
  <note>
casubscriptorya
</note>
  <guideline x="169" y="155" angle="90"/>
  <anchor x="189" y="203" name="_bottom"/>
  <outline>
    <contour>
      <point x="88" y="-51" type="curve"/>
      <point x="129" y="5" type="line"/>
      <point x="114" y="19"/>
      <point x="106" y="36"/>
      <point x="106" y="57" type="curve" smooth="yes"/>
      <point x="106" y="99"/>
      <point x="138" y="119"/>
      <point x="171" y="119" type="curve" smooth="yes"/>
      <point x="203" y="119"/>
      <point x="235" y="99"/>
      <point x="235" y="57" type="curve" smooth="yes"/>
      <point x="235" y="45"/>
      <point x="232" y="30"/>
      <point x="226" y="16" type="curve"/>
      <point x="222" y="28" type="line"/>
      <point x="347" y="-2" type="line"/>
      <point x="319" y="-12" type="line"/>
      <point x="328" y="5"/>
      <point x="335" y="32"/>
      <point x="335" y="60" type="curve" smooth="yes"/>
      <point x="335" y="149"/>
      <point x="267" y="209"/>
      <point x="166" y="209" type="curve" smooth="yes"/>
      <point x="70" y="209"/>
      <point x="6" y="155"/>
      <point x="6" y="73" type="curve" smooth="yes"/>
      <point x="6" y="25"/>
      <point x="31" y="-23"/>
    </contour>
    <contour>
      <point x="153" y="-155" type="curve" smooth="yes"/>
      <point x="214" y="-155"/>
      <point x="250" y="-116"/>
      <point x="250" y="-56" type="curve" smooth="yes"/>
      <point x="250" y="6"/>
      <point x="214" y="45"/>
      <point x="153" y="45" type="curve" smooth="yes"/>
      <point x="93" y="45"/>
      <point x="56" y="7"/>
      <point x="56" y="-55" type="curve" smooth="yes"/>
      <point x="56" y="-116"/>
      <point x="92" y="-155"/>
    </contour>
    <contour>
      <point x="153" y="-83" type="curve" smooth="yes"/>
      <point x="143" y="-83"/>
      <point x="138" y="-74"/>
      <point x="138" y="-55" type="curve" smooth="yes"/>
      <point x="138" y="-36"/>
      <point x="143" y="-27"/>
      <point x="153" y="-27" type="curve" smooth="yes"/>
      <point x="163" y="-27"/>
      <point x="168" y="-36"/>
      <point x="168" y="-55" type="curve" smooth="yes"/>
      <point x="168" y="-74"/>
      <point x="163" y="-83"/>
    </contour>
  </outline>
</glyph>
<glyph name="ca_cha-oriya" format="2">
  <advance width="678"/>
  <note>
cachaorya
</note>
  <guideline x="307" y="112" angle="90"/>
  <guideline x="86" y="210" angle="90"/>
  <guideline x="528" y="193" angle="90"/>
  <guideline x="68" y="71" angle="0"/>
  <anchor x="333" y="751" name="top"/>
  <anchor x="532" y="751" name="topright"/>
  <outline>
    <contour>
      <point x="140" y="329" type="curve"/>
      <point x="199" y="422" type="line"/>
      <point x="174" y="449"/>
      <point x="163" y="477"/>
      <point x="163" y="506" type="curve" smooth="yes"/>
      <point x="163" y="581"/>
      <point x="253" y="623"/>
      <point x="337" y="623" type="curve" smooth="yes"/>
      <point x="421" y="623"/>
      <point x="510" y="580"/>
      <point x="510" y="499" type="curve" smooth="yes"/>
      <point x="510" y="487"/>
      <point x="508" y="474"/>
      <point x="504" y="461" type="curve"/>
      <point x="650" y="424" type="line"/>
      <point x="657" y="450"/>
      <point x="662" y="475"/>
      <point x="662" y="504" type="curve" smooth="yes"/>
      <point x="662" y="673"/>
      <point x="494" y="759"/>
      <point x="333" y="759" type="curve" smooth="yes"/>
      <point x="176" y="759"/>
      <point x="16" y="677"/>
      <point x="16" y="524" type="curve" smooth="yes"/>
      <point x="16" y="450"/>
      <point x="54" y="383"/>
    </contour>
    <contour>
      <point x="213" y="164" type="curve" smooth="yes"/>
      <point x="294" y="164"/>
      <point x="342" y="227"/>
      <point x="342" y="331" type="curve" smooth="yes"/>
      <point x="342" y="434"/>
      <point x="294" y="498"/>
      <point x="213" y="498" type="curve" smooth="yes"/>
      <point x="133" y="498"/>
      <point x="86" y="431"/>
      <point x="86" y="329" type="curve" smooth="yes"/>
      <point x="86" y="227"/>
      <point x="132" y="164"/>
    </contour>
    <contour>
      <point x="221" y="273" type="curve" smooth="yes"/>
      <point x="206" y="273"/>
      <point x="199" y="283"/>
      <point x="199" y="331" type="curve" smooth="yes"/>
      <point x="199" y="378"/>
      <point x="206" y="389"/>
      <point x="221" y="389" type="curve" smooth="yes"/>
      <point x="236" y="389"/>
      <point x="243" y="378"/>
      <point x="243" y="331" type="curve" smooth="yes"/>
      <point x="243" y="283"/>
      <point x="236" y="273"/>
    </contour>
    <contour>
      <point x="399" y="164" type="curve" smooth="yes"/>
      <point x="481" y="164"/>
      <point x="528" y="231"/>
      <point x="528" y="333" type="curve" smooth="yes"/>
      <point x="528" y="434"/>
      <point x="482" y="498"/>
      <point x="403" y="498" type="curve" smooth="yes"/>
      <point x="320" y="498"/>
      <point x="272" y="433"/>
      <point x="272" y="330" type="curve" smooth="yes"/>
      <point x="272" y="226"/>
      <point x="321" y="164"/>
    </contour>
    <contour>
      <point x="393" y="273" type="curve" smooth="yes"/>
      <point x="378" y="273"/>
      <point x="371" y="283"/>
      <point x="371" y="331" type="curve" smooth="yes"/>
      <point x="371" y="378"/>
      <point x="378" y="389"/>
      <point x="393" y="389" type="curve" smooth="yes"/>
      <point x="408" y="389"/>
      <point x="415" y="378"/>
      <point x="415" y="331" type="curve" smooth="yes"/>
      <point x="415" y="283"/>
      <point x="408" y="273"/>
    </contour>
    <contour>
      <point x="424" y="-75" type="curve" smooth="yes"/>
      <point x="498" y="-75"/>
      <point x="528" y="-11"/>
      <point x="528" y="52" type="curve" smooth="yes"/>
      <point x="528" y="118"/>
      <point x="495" y="185"/>
      <point x="420" y="185" type="curve" smooth="yes"/>
      <point x="302" y="185"/>
      <point x="264" y="15"/>
      <point x="208" y="15" type="curve" smooth="yes"/>
      <point x="190" y="15"/>
      <point x="185" y="40"/>
      <point x="185" y="54" type="curve" smooth="yes"/>
      <point x="185" y="73"/>
      <point x="193" y="95"/>
      <point x="209" y="95" type="curve" smooth="yes"/>
      <point x="264" y="95"/>
      <point x="307" y="-75"/>
    </contour>
    <contour>
      <point x="190" y="-75" type="curve" smooth="yes"/>
      <point x="307" y="-75"/>
      <point x="350" y="95"/>
      <point x="405" y="95" type="curve" smooth="yes"/>
      <point x="423" y="95"/>
      <point x="428" y="69"/>
      <point x="428" y="54" type="curve" smooth="yes"/>
      <point x="428" y="40"/>
      <point x="423" y="15"/>
      <point x="405" y="15" type="curve" smooth="yes"/>
      <point x="349" y="15"/>
      <point x="312" y="185"/>
      <point x="194" y="185" type="curve" smooth="yes"/>
      <point x="119" y="185"/>
      <point x="85" y="118"/>
      <point x="85" y="52" type="curve" smooth="yes"/>
      <point x="85" y="-12"/>
      <point x="117" y="-75"/>
    </contour>
  </outline>
</glyph>
<glyph name="candraBindu-oriya.REV_BRACKET.141" format="2">
  <note>
candrabinduorya
</note>
  <anchor x="300" y="751" name="_topright"/>
  <outline>
    <contour>
      <point x="300" y="771" type="curve" smooth="yes"/>
      <point x="413" y="771"/>
      <point x="483" y="861"/>
      <point x="490" y="1017" type="curve"/>
      <point x="385" y="1027" type="line"/>
      <point x="381" y="917"/>
      <point x="349" y="871"/>
      <point x="300" y="871" type="curve" smooth="yes"/>
      <point x="250" y="871"/>
      <point x="217" y="917"/>
      <point x="214" y="1027" type="curve"/>
      <point x="109" y="1017" type="line"/>
      <point x="116" y="861"/>
      <point x="186" y="771"/>
    </contour>
    <contour>
      <point x="300" y="899" type="curve" smooth="yes"/>
      <point x="339" y="899"/>
      <point x="358" y="935"/>
      <point x="358" y="971" type="curve" smooth="yes"/>
      <point x="358" y="1019"/>
      <point x="329" y="1043"/>
      <point x="300" y="1043" type="curve" smooth="yes"/>
      <point x="271" y="1043"/>
      <point x="242" y="1019"/>
      <point x="242" y="971" type="curve" smooth="yes"/>
      <point x="242" y="935"/>
      <point x="261" y="899"/>
    </contour>
  </outline>
</glyph>
<glyph name="cha-oriya.REV_BRACKET.141" format="2">
  <advance width="629"/>
  <note>
chaorya
</note>
  <anchor x="362" y="93" name="bottom"/>
  <anchor x="496" y="93" name="bottom_ra"/>
  <anchor x="302" y="751" name="top"/>
  <anchor x="483" y="751" name="topright"/>
  <outline>
    <contour>
      <point x="177" y="341" type="curve"/>
      <point x="177" y="341" type="line"/>
      <point x="222" y="422" type="line"/>
      <point x="184" y="439"/>
      <point x="156" y="471"/>
      <point x="156" y="524" type="curve"/>
      <point x="156" y="590"/>
      <point x="228" y="624"/>
      <point x="302" y="624" type="curve"/>
      <point x="388" y="624"/>
      <point x="461" y="586"/>
      <point x="461" y="508" type="curve"/>
      <point x="461" y="485.505"/>
      <point x="455.76" y="462.261"/>
      <point x="447.223" y="439.564" type="curve"/>
      <point x="587.752" y="390.624" type="line"/>
      <point x="604.83" y="430.803"/>
      <point x="613" y="475.98"/>
      <point x="613" y="504" type="curve"/>
      <point x="613" y="683"/>
      <point x="461" y="759"/>
      <point x="302" y="759" type="curve"/>
      <point x="101" y="759"/>
      <point x="16" y="654"/>
      <point x="16" y="537" type="curve"/>
      <point x="16" y="447"/>
      <point x="77" y="359"/>
    </contour>
    <contour>
      <point x="184" y="198" type="curve"/>
      <point x="184" y="198" type="line"/>
      <point x="171" y="198"/>
      <point x="165" y="209"/>
      <point x="165" y="223" type="curve"/>
      <point x="165" y="237"/>
      <point x="171" y="247"/>
      <point x="186" y="247" type="curve"/>
      <point x="199" y="247"/>
      <point x="218" y="239"/>
      <point x="235" y="227" type="curve"/>
      <point x="213" y="208"/>
      <point x="196" y="198"/>
    </contour>
    <contour>
      <point x="159" y="85" type="curve"/>
      <point x="159" y="85" type="line"/>
      <point x="215" y="85"/>
      <point x="253" y="119"/>
      <point x="292" y="171" type="curve"/>
      <point x="332" y="119"/>
      <point x="379" y="85"/>
      <point x="425" y="85" type="curve"/>
      <point x="502" y="85"/>
      <point x="539" y="148"/>
      <point x="539" y="214" type="curve"/>
      <point x="539" y="281"/>
      <point x="501" y="350"/>
      <point x="420" y="350" type="curve"/>
      <point x="380" y="350"/>
      <point x="354" y="330"/>
      <point x="295" y="281" type="curve"/>
      <point x="219" y="334"/>
      <point x="118" y="362"/>
      <point x="24" y="371" type="curve"/>
      <point x="17" y="265" type="line"/>
      <point x="65" y="266"/>
      <point x="112" y="264"/>
      <point x="160" y="261" type="curve"/>
      <point x="170" y="334" type="line"/>
      <point x="65" y="334"/>
      <point x="45" y="267"/>
      <point x="45" y="217" type="curve"/>
      <point x="45" y="148"/>
      <point x="82" y="85"/>
    </contour>
    <contour>
      <point x="400" y="198" type="curve"/>
      <point x="400" y="198" type="line"/>
      <point x="387" y="198"/>
      <point x="370" y="208"/>
      <point x="348" y="227" type="curve"/>
      <point x="366" y="239"/>
      <point x="384" y="247"/>
      <point x="397" y="247" type="curve"/>
      <point x="412" y="247"/>
      <point x="419" y="236"/>
      <point x="419" y="223" type="curve"/>
      <point x="419" y="210"/>
      <point x="412" y="198"/>
    </contour>
    <contour>
      <point x="292" y="329" type="curve"/>
      <point x="292" y="329" type="line"/>
      <point x="266" y="329"/>
      <point x="252" y="347"/>
      <point x="252" y="374" type="curve"/>
      <point x="252" y="401"/>
      <point x="266" y="419"/>
      <point x="292" y="419" type="curve"/>
      <point x="319" y="419"/>
      <point x="333" y="401"/>
      <point x="333" y="374" type="curve"/>
      <point x="333" y="347"/>
      <point x="319" y="329"/>
    </contour>
    <contour>
      <point x="295" y="220" type="curve"/>
      <point x="295" y="220" type="line"/>
      <point x="374" y="220"/>
      <point x="439" y="285"/>
      <point x="439" y="383" type="curve"/>
      <point x="439" y="476"/>
      <point x="387" y="544"/>
      <point x="294" y="544" type="curve"/>
      <point x="189" y="544"/>
      <point x="146" y="457"/>
      <point x="146" y="380" type="curve"/>
      <point x="146" y="293"/>
      <point x="199" y="220"/>
    </contour>
  </outline>
</glyph>
<glyph name="cha_ra-oriya.REV_BRACKET.141" format="2">
  <advance width="629"/>
  <guideline x="117" y="261" angle="90"/>
  <anchor x="302" y="751" name="top"/>
  <anchor x="483" y="751" name="topright"/>
  <outline>
    <contour>
      <point x="177" y="341" type="curve"/>
      <point x="222" y="422" type="line"/>
      <point x="184" y="439"/>
      <point x="156" y="471"/>
      <point x="156" y="524" type="curve" smooth="yes"/>
      <point x="156" y="590"/>
      <point x="228" y="624"/>
      <point x="302" y="624" type="curve" smooth="yes"/>
      <point x="388" y="624"/>
      <point x="461" y="586"/>
      <point x="461" y="508" type="curve" smooth="yes"/>
      <point x="461" y="482"/>
      <point x="454" y="455"/>
      <point x="443" y="429" type="curve"/>
      <point x="423" y="448" type="line"/>
      <point x="624" y="378" type="line"/>
      <point x="582" y="378" type="line"/>
      <point x="603" y="421"/>
      <point x="613" y="473"/>
      <point x="613" y="504" type="curve" smooth="yes"/>
      <point x="613" y="683"/>
      <point x="461" y="759"/>
      <point x="302" y="759" type="curve" smooth="yes"/>
      <point x="101" y="759"/>
      <point x="16" y="654"/>
      <point x="16" y="537" type="curve" smooth="yes"/>
      <point x="16" y="447"/>
      <point x="77" y="359"/>
    </contour>
    <contour>
      <point x="184" y="198" type="curve" smooth="yes"/>
      <point x="171" y="198"/>
      <point x="165" y="209"/>
      <point x="165" y="223" type="curve" smooth="yes"/>
      <point x="165" y="237"/>
      <point x="171" y="247"/>
      <point x="186" y="247" type="curve" smooth="yes"/>
      <point x="199" y="247"/>
      <point x="218" y="239"/>
      <point x="235" y="227" type="curve"/>
      <point x="213" y="208"/>
      <point x="196" y="198"/>
    </contour>
    <contour>
      <point x="159" y="85" type="curve" smooth="yes"/>
      <point x="215" y="85"/>
      <point x="253" y="119"/>
      <point x="292" y="171" type="curve"/>
      <point x="332" y="119"/>
      <point x="379" y="85"/>
      <point x="425" y="85" type="curve" smooth="yes"/>
      <point x="502" y="85"/>
      <point x="539" y="148"/>
      <point x="539" y="214" type="curve" smooth="yes"/>
      <point x="539" y="281"/>
      <point x="501" y="350"/>
      <point x="420" y="350" type="curve" smooth="yes"/>
      <point x="380" y="350"/>
      <point x="354" y="330"/>
      <point x="295" y="281" type="curve"/>
      <point x="219" y="334"/>
      <point x="118" y="362"/>
      <point x="24" y="371" type="curve"/>
      <point x="17" y="265" type="line"/>
      <point x="65" y="266"/>
      <point x="112" y="264"/>
      <point x="160" y="261" type="curve"/>
      <point x="170" y="334" type="line"/>
      <point x="65" y="334"/>
      <point x="45" y="267"/>
      <point x="45" y="217" type="curve" smooth="yes"/>
      <point x="45" y="148"/>
      <point x="82" y="85"/>
    </contour>
    <contour>
      <point x="400" y="198" type="curve" smooth="yes"/>
      <point x="387" y="198"/>
      <point x="370" y="208"/>
      <point x="348" y="227" type="curve"/>
      <point x="366" y="239"/>
      <point x="384" y="247"/>
      <point x="397" y="247" type="curve" smooth="yes"/>
      <point x="412" y="247"/>
      <point x="419" y="236"/>
      <point x="419" y="223" type="curve" smooth="yes"/>
      <point x="419" y="210"/>
      <point x="412" y="198"/>
    </contour>
    <contour>
      <point x="292" y="329" type="curve" smooth="yes"/>
      <point x="266" y="329"/>
      <point x="252" y="347"/>
      <point x="252" y="374" type="curve" smooth="yes"/>
      <point x="252" y="401"/>
      <point x="266" y="419"/>
      <point x="292" y="419" type="curve" smooth="yes"/>
      <point x="319" y="419"/>
      <point x="333" y="401"/>
      <point x="333" y="374" type="curve" smooth="yes"/>
      <point x="333" y="347"/>
      <point x="319" y="329"/>
    </contour>
    <contour>
      <point x="295" y="220" type="curve" smooth="yes"/>
      <point x="374" y="220"/>
      <point x="439" y="285"/>
      <point x="439" y="383" type="curve" smooth="yes"/>
      <point x="439" y="476"/>
      <point x="387" y="544"/>
      <point x="294" y="544" type="curve" smooth="yes"/>
      <point x="189" y="544"/>
      <point x="146" y="457"/>
      <point x="146" y="380" type="curve" smooth="yes"/>
      <point x="146" y="293"/>
      <point x="199" y="220"/>
    </contour>
    <contour>
      <point x="496" y="-107" type="line"/>
      <point x="496" y="122" type="line"/>
      <point x="349" y="122" type="line"/>
      <point x="349" y="23" type="line"/>
      <point x="57" y="23" type="line"/>
      <point x="57" y="-107" type="line"/>
    </contour>
  </outline>
</glyph>
<glyph name="da-oriya.base" format="2">
  <advance width="663"/>
  <anchor x="401" y="203" name="bottom"/>
  <anchor x="325" y="751" name="top"/>
  <anchor x="516" y="751" name="topright"/>
  <outline>
    <contour>
      <point x="260" y="211" type="curve" smooth="yes"/>
      <point x="307" y="211"/>
      <point x="356" y="227"/>
      <point x="393" y="265" type="curve"/>
      <point x="365" y="362" type="line"/>
      <point x="358" y="333"/>
      <point x="329" y="317"/>
      <point x="301" y="317" type="curve" smooth="yes"/>
      <point x="277" y="317"/>
      <point x="254" y="330"/>
      <point x="254" y="359" type="curve" smooth="yes"/>
      <point x="254" y="385"/>
      <point x="270" y="417"/>
      <point x="308" y="446" type="curve"/>
      <point x="240" y="528" type="line"/>
      <point x="152" y="479"/>
      <point x="108" y="418"/>
      <point x="108" y="346" type="curve" smooth="yes"/>
      <point x="108" y="251"/>
      <point x="185" y="211"/>
    </contour>
    <contour>
      <point x="327" y="169" type="line"/>
      <point x="474" y="169" type="line"/>
      <point x="474" y="453" type="line"/>
      <point x="327" y="453" type="line"/>
      <point x="327" y="307" type="line"/>
      <point x="342" y="256" type="line"/>
    </contour>
    <contour>
      <point x="137" y="329" type="curve"/>
      <point x="196" y="421" type="line"/>
      <point x="172" y="448"/>
      <point x="161" y="477"/>
      <point x="161" y="505" type="curve" smooth="yes"/>
      <point x="161" y="571"/>
      <point x="225" y="623"/>
      <point x="327" y="623" type="curve" smooth="yes"/>
      <point x="424" y="623"/>
      <point x="497" y="574"/>
      <point x="497" y="500" type="curve" smooth="yes"/>
      <point x="497" y="475"/>
      <point x="489" y="445"/>
      <point x="480" y="410" type="curve"/>
      <point x="449" y="462" type="line"/>
      <point x="680" y="385" type="line"/>
      <point x="621" y="381" type="line"/>
      <point x="637" y="424"/>
      <point x="647" y="460"/>
      <point x="647" y="501" type="curve" smooth="yes"/>
      <point x="647" y="674"/>
      <point x="485" y="759"/>
      <point x="325" y="759" type="curve" smooth="yes"/>
      <point x="169" y="759"/>
      <point x="16" y="677"/>
      <point x="16" y="524" type="curve" smooth="yes"/>
      <point x="16" y="450"/>
      <point x="52" y="383"/>
    </contour>
  </outline>
</glyph>
<glyph name="da_ra_uMatra-oriya" format="2">
  <advance width="663"/>
  <guideline x="91" y="-101" angle="90"/>
  <anchor x="325" y="751" name="top"/>
  <anchor x="516" y="751" name="topright"/>
  <outline>
    <contour>
      <point x="260" y="211" type="curve" smooth="yes"/>
      <point x="307" y="211"/>
      <point x="356" y="227"/>
      <point x="393" y="265" type="curve"/>
      <point x="365" y="362" type="line"/>
      <point x="358" y="333"/>
      <point x="329" y="317"/>
      <point x="301" y="317" type="curve" smooth="yes"/>
      <point x="277" y="317"/>
      <point x="254" y="330"/>
      <point x="254" y="359" type="curve" smooth="yes"/>
      <point x="254" y="385"/>
      <point x="270" y="417"/>
      <point x="308" y="446" type="curve"/>
      <point x="240" y="528" type="line"/>
      <point x="152" y="479"/>
      <point x="108" y="418"/>
      <point x="108" y="346" type="curve" smooth="yes"/>
      <point x="108" y="251"/>
      <point x="185" y="211"/>
    </contour>
    <contour>
      <point x="137" y="329" type="curve"/>
      <point x="196" y="421" type="line"/>
      <point x="172" y="448"/>
      <point x="161" y="477"/>
      <point x="161" y="505" type="curve" smooth="yes"/>
      <point x="161" y="571"/>
      <point x="225" y="623"/>
      <point x="327" y="623" type="curve" smooth="yes"/>
      <point x="424" y="623"/>
      <point x="497" y="574"/>
      <point x="497" y="500" type="curve" smooth="yes"/>
      <point x="497" y="475"/>
      <point x="489" y="445"/>
      <point x="480" y="410" type="curve"/>
      <point x="449" y="462" type="line"/>
      <point x="680" y="385" type="line"/>
      <point x="621" y="381" type="line"/>
      <point x="637" y="424"/>
      <point x="647" y="460"/>
      <point x="647" y="501" type="curve" smooth="yes"/>
      <point x="647" y="674"/>
      <point x="485" y="759"/>
      <point x="325" y="759" type="curve" smooth="yes"/>
      <point x="169" y="759"/>
      <point x="16" y="677"/>
      <point x="16" y="524" type="curve" smooth="yes"/>
      <point x="16" y="450"/>
      <point x="52" y="383"/>
    </contour>
    <contour>
      <point x="327" y="453" type="line"/>
      <point x="327" y="177" type="line"/>
      <point x="111" y="177" type="line"/>
      <point x="111" y="63" type="line"/>
      <point x="474" y="63" type="line"/>
      <point x="474" y="453" type="line"/>
    </contour>
    <contour>
      <point x="224" y="-139" type="curve" smooth="yes"/>
      <point x="304" y="-139"/>
      <point x="396" y="-76"/>
      <point x="396" y="73" type="curve" smooth="yes"/>
      <point x="396" y="89" type="line"/>
      <point x="296" y="89" type="line"/>
      <point x="296" y="73" type="line" smooth="yes"/>
      <point x="296" y="-27"/>
      <point x="247" y="-57"/>
      <point x="220" y="-57" type="curve" smooth="yes"/>
      <point x="208" y="-57"/>
      <point x="200" y="-51"/>
      <point x="200" y="-43" type="curve" smooth="yes"/>
      <point x="200" y="-32"/>
      <point x="211" y="-25"/>
      <point x="229" y="-25" type="curve" smooth="yes"/>
      <point x="304" y="-25"/>
      <point x="361" y="-139"/>
      <point x="461" y="-139" type="curve" smooth="yes"/>
      <point x="509" y="-139"/>
      <point x="558" y="-113"/>
      <point x="600" y="-64" type="curve"/>
      <point x="523" y="-166" type="line"/>
      <point x="492" y="-26" type="line"/>
      <point x="543" y="-31" type="line"/>
      <point x="514" y="-49"/>
      <point x="494" y="-57"/>
      <point x="466" y="-57" type="curve" smooth="yes"/>
      <point x="368" y="-57"/>
      <point x="327" y="45"/>
      <point x="223" y="45" type="curve" smooth="yes"/>
      <point x="160" y="45"/>
      <point x="118" y="8"/>
      <point x="118" y="-47" type="curve" smooth="yes"/>
      <point x="118" y="-102"/>
      <point x="160" y="-139"/>
    </contour>
  </outline>
</glyph>
<glyph name="da_va-oriya" format="2">
  <advance width="688"/>
  <anchor x="346" y="93" name="bottom"/>
  <anchor x="653" y="93" name="bottom_ra"/>
  <anchor x="175" y="116" name="curve"/>
  <anchor x="334" y="751" name="top"/>
  <anchor x="542" y="751" name="topright"/>
  <anchor x="346" y="93" name="vertical"/>
  <outline>
    <contour>
      <point x="264" y="137" type="curve" smooth="yes"/>
      <point x="357" y="137"/>
      <point x="445" y="195"/>
      <point x="445" y="314" type="curve"/>
      <point x="367" y="314" type="line"/>
      <point x="367" y="277"/>
      <point x="340" y="257"/>
      <point x="310" y="257" type="curve" smooth="yes"/>
      <point x="279" y="257"/>
      <point x="264" y="277"/>
      <point x="264" y="304" type="curve" smooth="yes"/>
      <point x="264" y="333"/>
      <point x="282" y="370"/>
      <point x="313" y="399" type="curve"/>
      <point x="240" y="487" type="line"/>
      <point x="156" y="436"/>
      <point x="113" y="353"/>
      <point x="113" y="281" type="curve" smooth="yes"/>
      <point x="113" y="202"/>
      <point x="166" y="137"/>
    </contour>
    <contour>
      <point x="346" y="93" type="line"/>
      <point x="493" y="93" type="line"/>
      <point x="493" y="413" type="line"/>
      <point x="346" y="413" type="line"/>
      <point x="346" y="249" type="line"/>
      <point x="363" y="188" type="line"/>
    </contour>
    <contour>
      <point x="140" y="272" type="curve"/>
      <point x="199" y="377" type="line"/>
      <point x="174" y="408"/>
      <point x="163" y="440"/>
      <point x="163" y="473" type="curve" smooth="yes"/>
      <point x="163" y="566"/>
      <point x="251" y="613"/>
      <point x="340" y="613" type="curve" smooth="yes"/>
      <point x="430" y="613"/>
      <point x="520" y="565"/>
      <point x="520" y="466" type="curve" smooth="yes"/>
      <point x="520" y="436"/>
      <point x="512" y="407"/>
      <point x="497" y="377" type="curve"/>
      <point x="466" y="425" type="line"/>
      <point x="688" y="341" type="line"/>
      <point x="645" y="336" type="line"/>
      <point x="661" y="383"/>
      <point x="672" y="421"/>
      <point x="672" y="470" type="curve" smooth="yes"/>
      <point x="672" y="662"/>
      <point x="501" y="759"/>
      <point x="334" y="759" type="curve" smooth="yes"/>
      <point x="173" y="759"/>
      <point x="16" y="670"/>
      <point x="16" y="493" type="curve" smooth="yes"/>
      <point x="16" y="409"/>
      <point x="54" y="333"/>
    </contour>
    <contour>
      <point x="292" y="-114" type="curve" smooth="yes"/>
      <point x="337" y="-114"/>
      <point x="378" y="-95"/>
      <point x="409" y="-53" type="curve"/>
      <point x="362" y="25" type="line"/>
      <point x="353" y="-2"/>
      <point x="335" y="-17"/>
      <point x="317" y="-17" type="curve" smooth="yes"/>
      <point x="294" y="-17"/>
      <point x="283" y="3"/>
      <point x="283" y="32" type="curve" smooth="yes"/>
      <point x="283" y="68"/>
      <point x="295" y="119"/>
      <point x="318" y="164" type="curve"/>
      <point x="349" y="88" type="line"/>
      <point x="171" y="112" type="line"/>
      <point x="194" y="151" type="line"/>
      <point x="176" y="111"/>
      <point x="167" y="70"/>
      <point x="167" y="32" type="curve" smooth="yes"/>
      <point x="167" y="-47"/>
      <point x="209" y="-114"/>
    </contour>
    <contour>
      <point x="346" y="-151" type="line"/>
      <point x="493" y="-151" type="line"/>
      <point x="493" y="93" type="line"/>
      <point x="346" y="93" type="line"/>
      <point x="346" y="-49" type="line"/>
      <point x="353" y="-58" type="line"/>
    </contour>
  </outline>
</glyph>
<glyph name="dda-oriya.REV_BRACKET.141" format="2">
  <advance width="651"/>
  <note>
ddaorya
</note>
  <guideline x="364" y="208" angle="0"/>
  <guideline x="318" y="405" angle="0"/>
  <anchor x="275" y="93" name="bottom"/>
  <anchor x="621" y="93" name="bottom_ra"/>
  <anchor x="304" y="-17" name="nukta"/>
  <anchor x="322" y="751" name="top"/>
  <anchor x="505" y="751" name="topright"/>
  <outline>
    <contour>
      <point x="141" y="289" type="curve"/>
      <point x="203" y="383" type="line"/>
      <point x="177" y="409"/>
      <point x="164" y="443"/>
      <point x="164" y="478" type="curve" smooth="yes"/>
      <point x="164" y="566"/>
      <point x="243" y="613"/>
      <point x="326" y="613" type="curve" smooth="yes"/>
      <point x="406" y="613"/>
      <point x="483" y="568"/>
      <point x="483" y="475" type="curve" smooth="yes"/>
      <point x="483" y="438"/>
      <point x="471" y="398"/>
      <point x="442" y="355" type="curve"/>
      <point x="417" y="429" type="line"/>
      <point x="675" y="332" type="line"/>
      <point x="584" y="307" type="line"/>
      <point x="619" y="358"/>
      <point x="635" y="423"/>
      <point x="635" y="482" type="curve" smooth="yes"/>
      <point x="635" y="665"/>
      <point x="479" y="759"/>
      <point x="323" y="759" type="curve" smooth="yes"/>
      <point x="167" y="759"/>
      <point x="16" y="667"/>
      <point x="16" y="497" type="curve" smooth="yes"/>
      <point x="16" y="412"/>
      <point x="54" y="337"/>
    </contour>
    <contour>
      <point x="96" y="285" type="curve" smooth="yes"/>
      <point x="96" y="163"/>
      <point x="189" y="85"/>
      <point x="300" y="85" type="curve" smooth="yes"/>
      <point x="410" y="85"/>
      <point x="500" y="145"/>
      <point x="500" y="276" type="curve" smooth="yes"/>
      <point x="500" y="334"/>
      <point x="470" y="406"/>
      <point x="390" y="436" type="curve"/>
      <point x="326" y="320" type="line"/>
      <point x="354" y="304"/>
      <point x="366" y="284"/>
      <point x="366" y="265" type="curve" smooth="yes"/>
      <point x="366" y="242"/>
      <point x="345" y="223"/>
      <point x="306" y="223" type="curve" smooth="yes"/>
      <point x="255" y="223"/>
      <point x="228" y="255"/>
      <point x="228" y="296" type="curve" smooth="yes"/>
      <point x="228" y="343"/>
      <point x="256" y="395"/>
      <point x="308" y="443" type="curve"/>
      <point x="237" y="529" type="line"/>
      <point x="148" y="468"/>
      <point x="96" y="372"/>
    </contour>
    <contour>
      <point x="321" y="267" type="line"/>
      <point x="469" y="456" type="line"/>
      <point x="392" y="524" type="line"/>
      <point x="244" y="335" type="line"/>
    </contour>
  </outline>
</glyph>
<glyph name="dda-oriya.base" format="2">
  <advance width="635"/>
  <anchor x="422" y="203" name="bottom"/>
  <anchor x="295" y="61" name="nukta"/>
  <anchor x="310" y="751" name="top"/>
  <anchor x="489" y="751" name="topright"/>
  <outline>
    <contour>
      <point x="137" y="342" type="curve"/>
      <point x="196" y="427" type="line"/>
      <point x="174" y="448"/>
      <point x="161" y="477"/>
      <point x="161" y="509" type="curve" smooth="yes"/>
      <point x="161" y="567"/>
      <point x="214" y="623"/>
      <point x="314" y="623" type="curve" smooth="yes"/>
      <point x="405" y="623"/>
      <point x="469" y="578"/>
      <point x="469" y="509" type="curve" smooth="yes"/>
      <point x="469" y="478"/>
      <point x="454" y="433"/>
      <point x="435" y="413" type="curve"/>
      <point x="402" y="470" type="line"/>
      <point x="659" y="380" type="line"/>
      <point x="571" y="359" type="line"/>
      <point x="602" y="402"/>
      <point x="619" y="460"/>
      <point x="619" y="512" type="curve" smooth="yes"/>
      <point x="619" y="654"/>
      <point x="489" y="759"/>
      <point x="310" y="759" type="curve" smooth="yes"/>
      <point x="122" y="759"/>
      <point x="16" y="642"/>
      <point x="16" y="523" type="curve" smooth="yes"/>
      <point x="16" y="451"/>
      <point x="56" y="382"/>
    </contour>
    <contour>
      <point x="93" y="341" type="curve" smooth="yes"/>
      <point x="93" y="237"/>
      <point x="174" y="163"/>
      <point x="295" y="163" type="curve" smooth="yes"/>
      <point x="410" y="163"/>
      <point x="482" y="232"/>
      <point x="482" y="323" type="curve" smooth="yes"/>
      <point x="482" y="383"/>
      <point x="449" y="439"/>
      <point x="373" y="474" type="curve"/>
      <point x="311" y="395" type="line"/>
      <point x="345" y="376"/>
      <point x="362" y="352"/>
      <point x="362" y="329" type="curve" smooth="yes"/>
      <point x="362" y="299"/>
      <point x="340" y="275"/>
      <point x="293" y="275" type="curve" smooth="yes"/>
      <point x="240" y="275"/>
      <point x="213" y="306"/>
      <point x="213" y="348" type="curve" smooth="yes"/>
      <point x="213" y="390"/>
      <point x="241" y="441"/>
      <point x="294" y="486" type="curve"/>
      <point x="229" y="558" type="line"/>
      <point x="136" y="497"/>
      <point x="93" y="416"/>
    </contour>
    <contour>
      <point x="310" y="327" type="line"/>
      <point x="452" y="492" type="line"/>
      <point x="377" y="553" type="line"/>
      <point x="236" y="388" type="line"/>
    </contour>
  </outline>
</glyph>
<glyph name="ddara-oriya.REV_BRACKET.141" format="2">
  <advance width="651"/>
  <anchor x="323" y="751" name="top"/>
  <anchor x="505" y="751" name="topright"/>
  <outline>
    <contour>
      <point x="141" y="289" type="curve"/>
      <point x="141" y="289" type="line"/>
      <point x="203" y="383" type="line"/>
      <point x="177" y="409"/>
      <point x="164" y="443"/>
      <point x="164" y="478" type="curve"/>
      <point x="164" y="566"/>
      <point x="243" y="613"/>
      <point x="326" y="613" type="curve"/>
      <point x="406" y="613"/>
      <point x="483" y="568"/>
      <point x="483" y="475" type="curve"/>
      <point x="483" y="453.944"/>
      <point x="479.114" y="431.916"/>
      <point x="470.419" y="408.916" type="curve"/>
      <point x="610.497" y="356.251" type="line"/>
      <point x="627.174" y="396.541"/>
      <point x="635" y="440.738"/>
      <point x="635" y="482" type="curve"/>
      <point x="635" y="665"/>
      <point x="479" y="759"/>
      <point x="323" y="759" type="curve"/>
      <point x="167" y="759"/>
      <point x="16" y="667"/>
      <point x="16" y="497" type="curve"/>
      <point x="16" y="412"/>
      <point x="54" y="337"/>
    </contour>
    <contour>
      <point x="96" y="285" type="curve"/>
      <point x="96" y="285" type="line"/>
      <point x="96" y="163"/>
      <point x="189" y="85"/>
      <point x="300" y="85" type="curve"/>
      <point x="410" y="85"/>
      <point x="500" y="145"/>
      <point x="500" y="276" type="curve"/>
      <point x="500" y="334"/>
      <point x="470" y="406"/>
      <point x="390" y="436" type="curve"/>
      <point x="326" y="320" type="line"/>
      <point x="354" y="304"/>
      <point x="366" y="284"/>
      <point x="366" y="265" type="curve"/>
      <point x="366" y="242"/>
      <point x="345" y="223"/>
      <point x="306" y="223" type="curve"/>
      <point x="255" y="223"/>
      <point x="228" y="255"/>
      <point x="228" y="296" type="curve"/>
      <point x="228" y="343"/>
      <point x="256" y="395"/>
      <point x="308" y="443" type="curve"/>
      <point x="237" y="529" type="line"/>
      <point x="148" y="468"/>
      <point x="96" y="372"/>
    </contour>
    <contour>
      <point x="244" y="335" type="line"/>
      <point x="321" y="267" type="line"/>
      <point x="469" y="456" type="line"/>
      <point x="392" y="524" type="line"/>
    </contour>
    <contour>
      <point x="121" y="-107" type="line"/>
      <point x="621" y="-107" type="line"/>
      <point x="621" y="113" type="line"/>
      <point x="474" y="113" type="line"/>
      <point x="474" y="23" type="line"/>
      <point x="121" y="23" type="line"/>
    </contour>
  </outline>
</glyph>
<glyph name="ddha-oriya.REV_BRACKET.141" format="2">
  <advance width="651"/>
  <note>
ddhaorya
</note>
  <guideline x="324" y="-52" angle="0"/>
  <guideline x="385" y="184" angle="90"/>
  <anchor x="214" y="93" name="bottom"/>
  <anchor x="626" y="93" name="bottom_ra"/>
  <anchor x="326" y="-17" name="nukta"/>
  <anchor x="322" y="751" name="top"/>
  <anchor x="505" y="751" name="topright"/>
  <outline>
    <contour>
      <point x="76" y="285" type="curve" smooth="yes"/>
      <point x="76" y="151"/>
      <point x="174" y="85"/>
      <point x="276" y="85" type="curve" smooth="yes"/>
      <point x="399" y="85"/>
      <point x="500" y="180"/>
      <point x="500" y="306" type="curve" smooth="yes"/>
      <point x="500" y="406"/>
      <point x="436" y="450"/>
      <point x="371" y="450" type="curve" smooth="yes"/>
      <point x="303" y="450"/>
      <point x="239" y="409"/>
      <point x="239" y="311" type="curve" smooth="yes"/>
      <point x="239" y="205"/>
      <point x="341" y="78"/>
      <point x="515" y="42" type="curve"/>
      <point x="538" y="168" type="line"/>
      <point x="415" y="184"/>
      <point x="357" y="232"/>
      <point x="357" y="297" type="curve" smooth="yes"/>
      <point x="357" y="318"/>
      <point x="363" y="326"/>
      <point x="370" y="326" type="curve" smooth="yes"/>
      <point x="377" y="326"/>
      <point x="383" y="318"/>
      <point x="383" y="298" type="curve" smooth="yes"/>
      <point x="383" y="246"/>
      <point x="343" y="214"/>
      <point x="291" y="214" type="curve" smooth="yes"/>
      <point x="236" y="214"/>
      <point x="214" y="250"/>
      <point x="214" y="296" type="curve" smooth="yes"/>
      <point x="214" y="349"/>
      <point x="240" y="406"/>
      <point x="302" y="451" type="curve"/>
      <point x="228" y="539" type="line"/>
      <point x="122" y="473"/>
      <point x="76" y="384"/>
    </contour>
    <contour>
      <point x="141" y="289" type="curve"/>
      <point x="203" y="383" type="line"/>
      <point x="177" y="409"/>
      <point x="164" y="443"/>
      <point x="164" y="478" type="curve" smooth="yes"/>
      <point x="164" y="566"/>
      <point x="243" y="613"/>
      <point x="326" y="613" type="curve" smooth="yes"/>
      <point x="406" y="613"/>
      <point x="483" y="568"/>
      <point x="483" y="476" type="curve" smooth="yes"/>
      <point x="483" y="459"/>
      <point x="480" y="442"/>
      <point x="475" y="424" type="curve"/>
      <point x="618" y="377" type="line"/>
      <point x="630" y="410"/>
      <point x="635" y="447"/>
      <point x="635" y="482" type="curve" smooth="yes"/>
      <point x="635" y="665"/>
      <point x="479" y="759"/>
      <point x="323" y="759" type="curve" smooth="yes"/>
      <point x="167" y="759"/>
      <point x="16" y="667"/>
      <point x="16" y="497" type="curve" smooth="yes"/>
      <point x="16" y="412"/>
      <point x="54" y="337"/>
    </contour>
  </outline>
</glyph>
<glyph name="ddha_ra-oriya" format="2">
  <advance width="651"/>
  <guideline x="618" y="175" angle="90"/>
  <anchor x="322" y="751" name="top"/>
  <anchor x="575" y="751" name="topright"/>
  <outline>
    <contour>
      <point x="76" y="288" type="curve" smooth="yes"/>
      <point x="76" y="153"/>
      <point x="163" y="85"/>
      <point x="278" y="85" type="curve" smooth="yes"/>
      <point x="434" y="85"/>
      <point x="500" y="211"/>
      <point x="500" y="308" type="curve" smooth="yes"/>
      <point x="500" y="402"/>
      <point x="438" y="450"/>
      <point x="368" y="450" type="curve" smooth="yes"/>
      <point x="298" y="450"/>
      <point x="239" y="403"/>
      <point x="239" y="315" type="curve" smooth="yes"/>
      <point x="239" y="178"/>
      <point x="381" y="51"/>
      <point x="567" y="34" type="curve"/>
      <point x="422" y="8" type="line"/>
      <point x="527" y="228" type="line"/>
      <point x="611" y="157" type="line"/>
      <point x="431" y="164"/>
      <point x="347" y="217"/>
      <point x="347" y="301" type="curve" smooth="yes"/>
      <point x="347" y="326"/>
      <point x="356" y="338"/>
      <point x="370" y="338" type="curve" smooth="yes"/>
      <point x="384" y="338"/>
      <point x="392" y="326"/>
      <point x="392" y="300" type="curve" smooth="yes"/>
      <point x="392" y="255"/>
      <point x="369" y="207"/>
      <point x="295" y="207" type="curve" smooth="yes"/>
      <point x="232" y="207"/>
      <point x="205" y="242"/>
      <point x="205" y="299" type="curve" smooth="yes"/>
      <point x="205" y="353"/>
      <point x="229" y="408"/>
      <point x="296" y="458" type="curve"/>
      <point x="228" y="539" type="line"/>
      <point x="135" y="480"/>
      <point x="76" y="400"/>
    </contour>
    <contour>
      <point x="141" y="289" type="curve"/>
      <point x="203" y="383" type="line"/>
      <point x="177" y="409"/>
      <point x="164" y="443"/>
      <point x="164" y="478" type="curve" smooth="yes"/>
      <point x="164" y="566"/>
      <point x="243" y="613"/>
      <point x="326" y="613" type="curve" smooth="yes"/>
      <point x="406" y="613"/>
      <point x="483" y="568"/>
      <point x="483" y="476" type="curve" smooth="yes"/>
      <point x="483" y="459"/>
      <point x="480" y="442"/>
      <point x="475" y="424" type="curve"/>
      <point x="618" y="377" type="line"/>
      <point x="630" y="410"/>
      <point x="635" y="447"/>
      <point x="635" y="482" type="curve" smooth="yes"/>
      <point x="635" y="665"/>
      <point x="479" y="759"/>
      <point x="323" y="759" type="curve" smooth="yes"/>
      <point x="167" y="759"/>
      <point x="16" y="667"/>
      <point x="16" y="497" type="curve" smooth="yes"/>
      <point x="16" y="412"/>
      <point x="54" y="337"/>
    </contour>
    <contour>
      <point x="623" y="-107" type="line"/>
      <point x="623" y="113" type="line"/>
      <point x="476" y="113" type="line"/>
      <point x="476" y="-43" type="line"/>
      <point x="542" y="23" type="line"/>
      <point x="97" y="23" type="line"/>
      <point x="97" y="-107" type="line"/>
    </contour>
  </outline>
</glyph>
<glyph name="e-oriya.REV_BRACKET.141" format="2">
  <advance width="589"/>
  <note>
eorya
</note>
  <anchor x="482" y="751" name="topright"/>
  <outline>
    <contour>
      <point x="252" y="583" type="curve"/>
      <point x="252" y="583" type="line"/>
      <point x="338" y="517" type="line"/>
      <point x="338" y="580"/>
      <point x="373" y="602"/>
      <point x="440" y="602" type="curve"/>
      <point x="408" y="664" type="line"/>
      <point x="408" y="208" type="line"/>
      <point x="457" y="217" type="line"/>
      <point x="337.612" y="305.204"/>
      <point x="215.05" y="445.005"/>
      <point x="99.213" y="592.554" type="curve"/>
      <point x="-19.649" y="488.965" type="line"/>
      <point x="102.492" y="342.427"/>
      <point x="233.026" y="199.975"/>
      <point x="380" y="93" type="curve"/>
      <point x="555" y="93" type="line"/>
      <point x="555" y="751" type="line"/>
      <point x="490" y="751" type="line" smooth="yes"/>
      <point x="299" y="751"/>
      <point x="216" y="627"/>
      <point x="216" y="529" type="curve"/>
      <point x="216" y="456"/>
      <point x="263" y="418"/>
      <point x="310" y="418" type="curve"/>
      <point x="362" y="418"/>
      <point x="389" y="463"/>
      <point x="389" y="508" type="curve"/>
      <point x="389" y="554"/>
      <point x="361" y="601"/>
      <point x="304" y="601" type="curve"/>
      <point x="286" y="601"/>
      <point x="268" y="595"/>
    </contour>
  </outline>
</glyph>
<glyph name="five-oriya.REV_BRACKET.141" format="2">
  <advance width="492"/>
  <note>
fiveorya
</note>
  <outline>
    <contour>
      <point x="400" y="284" type="curve"/>
      <point x="400" y="284" type="line"/>
      <point x="492" y="384" type="line"/>
      <point x="342" y="534"/>
      <point x="225" y="417"/>
      <point x="92" y="564" type="curve"/>
      <point x="0" y="462" type="line"/>
      <point x="127" y="321"/>
      <point x="247" y="439"/>
    </contour>
    <contour>
      <point x="215" y="85" type="curve"/>
      <point x="215" y="85" type="line"/>
      <point x="301" y="85"/>
      <point x="381" y="129"/>
      <point x="381" y="244" type="curve"/>
      <point x="381" y="296"/>
      <point x="365" y="366"/>
      <point x="285" y="425" type="curve"/>
      <point x="170" y="437" type="line"/>
      <point x="81" y="388"/>
      <point x="47" y="321"/>
      <point x="47" y="246" type="curve"/>
      <point x="47" y="132"/>
      <point x="127" y="85"/>
    </contour>
    <contour>
      <point x="109" y="601" type="curve"/>
      <point x="109" y="601" type="line"/>
      <point x="109" y="550"/>
      <point x="124" y="482"/>
      <point x="200" y="425" type="curve"/>
      <point x="313" y="413" type="line"/>
      <point x="406" y="465"/>
      <point x="431" y="534"/>
      <point x="431" y="599" type="curve"/>
      <point x="431" y="715"/>
      <point x="352" y="759"/>
      <point x="269" y="759" type="curve"/>
      <point x="185" y="759"/>
      <point x="109" y="715"/>
    </contour>
    <contour>
      <point x="246" y="564" type="curve"/>
      <point x="246" y="564" type="line"/>
      <point x="246" y="586"/>
      <point x="252" y="604"/>
      <point x="271" y="604" type="curve"/>
      <point x="289" y="604"/>
      <point x="296" y="589"/>
      <point x="296" y="567" type="curve"/>
      <point x="296" y="540"/>
      <point x="285" y="517"/>
      <point x="266" y="490" type="curve"/>
      <point x="254" y="518"/>
      <point x="246" y="539"/>
    </contour>
    <contour>
      <point x="185" y="278" type="curve"/>
      <point x="185" y="278" type="line"/>
      <point x="185" y="306"/>
      <point x="197" y="332"/>
      <point x="218" y="360" type="curve"/>
      <point x="232" y="331"/>
      <point x="241" y="308"/>
      <point x="241" y="282" type="curve"/>
      <point x="241" y="257"/>
      <point x="233" y="240"/>
      <point x="213" y="240" type="curve"/>
      <point x="194" y="240"/>
      <point x="185" y="255"/>
    </contour>
  </outline>
</glyph>
<glyph name="ga_ra-oriya" format="2">
  <advance width="645"/>
  <guideline x="93" y="149" angle="90"/>
  <anchor x="289" y="751" name="top"/>
  <anchor x="538" y="751" name="topright"/>
  <outline>
    <contour>
      <point x="266" y="85" type="curve" smooth="yes"/>
      <point x="368" y="85"/>
      <point x="430" y="157"/>
      <point x="430" y="273" type="curve" smooth="yes"/>
      <point x="430" y="390"/>
      <point x="368" y="461"/>
      <point x="268" y="461" type="curve" smooth="yes"/>
      <point x="165" y="461"/>
      <point x="101" y="390"/>
      <point x="101" y="273" type="curve" smooth="yes"/>
      <point x="101" y="157"/>
      <point x="165" y="85"/>
    </contour>
    <contour>
      <point x="266" y="208" type="curve" smooth="yes"/>
      <point x="244" y="208"/>
      <point x="234" y="229"/>
      <point x="234" y="273" type="curve" smooth="yes"/>
      <point x="234" y="317"/>
      <point x="244" y="338"/>
      <point x="266" y="338" type="curve" smooth="yes"/>
      <point x="287" y="338"/>
      <point x="297" y="317"/>
      <point x="297" y="273" type="curve" smooth="yes"/>
      <point x="297" y="229"/>
      <point x="287" y="208"/>
    </contour>
    <contour>
      <point x="316" y="613" type="curve" smooth="yes"/>
      <point x="396" y="613"/>
      <point x="476" y="564"/>
      <point x="476" y="465" type="curve"/>
      <point x="589" y="464" type="line"/>
      <point x="589" y="662"/>
      <point x="437" y="759"/>
      <point x="289" y="759" type="curve" smooth="yes"/>
      <point x="151" y="759"/>
      <point x="16" y="673"/>
      <point x="16" y="508" type="curve" smooth="yes"/>
      <point x="16" y="423"/>
      <point x="56" y="334"/>
      <point x="140" y="289" type="curve"/>
      <point x="205" y="382" type="line"/>
      <point x="177" y="406"/>
      <point x="163" y="437"/>
      <point x="163" y="475" type="curve" smooth="yes"/>
      <point x="163" y="566"/>
      <point x="239" y="613"/>
    </contour>
    <contour>
      <point x="464" y="751" type="line"/>
      <point x="472" y="668" type="line"/>
      <point x="464" y="591" type="line"/>
      <point x="464" y="23" type="line"/>
      <point x="86" y="23" type="line"/>
      <point x="86" y="-107" type="line"/>
      <point x="611" y="-107" type="line"/>
      <point x="611" y="751" type="line"/>
    </contour>
  </outline>
</glyph>
<glyph name="ha-oriya.REV_BRACKET.141" format="2">
  <advance width="646"/>
  <note>
haorya
</note>
  <guideline x="522" y="405" angle="0"/>
  <guideline x="522" y="725" angle="0"/>
  <guideline x="522" y="325" angle="0"/>
  <anchor x="274" y="93" name="bottom"/>
  <anchor x="526" y="93" name="bottom_ra"/>
  <anchor x="313" y="751" name="top"/>
  <anchor x="500" y="751" name="topright"/>
  <outline>
    <contour>
      <point x="463.925" y="404.99" type="curve"/>
      <point x="600.829" y="346.542" type="line"/>
      <point x="621.089" y="389.386"/>
      <point x="630" y="437.673"/>
      <point x="630" y="482" type="curve"/>
      <point x="630" y="665"/>
      <point x="477" y="759"/>
      <point x="313" y="759" type="curve"/>
      <point x="149" y="759"/>
      <point x="16" y="666"/>
      <point x="16" y="512" type="curve"/>
      <point x="16" y="427"/>
      <point x="56" y="366"/>
      <point x="143" y="322" type="curve"/>
      <point x="201" y="383" type="line"/>
      <point x="174" y="413"/>
      <point x="161" y="453"/>
      <point x="161" y="489" type="curve"/>
      <point x="161" y="571"/>
      <point x="226" y="613"/>
      <point x="314" y="613" type="curve"/>
      <point x="405" y="613"/>
      <point x="478" y="568"/>
      <point x="478" y="476" type="curve"/>
      <point x="478" y="453.773"/>
      <point x="473.669" y="429.742"/>
    </contour>
    <contour>
      <point x="99" y="145" type="line"/>
      <point x="485" y="10" type="line"/>
      <point x="526" y="125" type="line"/>
      <point x="234" y="224" type="line"/>
      <point x="191" y="160" type="line"/>
      <point x="298" y="264" type="line"/>
      <point x="200" y="311" type="line"/>
      <point x="85" y="207" type="line"/>
    </contour>
    <contour>
      <point x="263" y="241" type="curve"/>
      <point x="263" y="241" type="line"/>
      <point x="305" y="241"/>
      <point x="344" y="256"/>
      <point x="373" y="288" type="curve"/>
      <point x="341" y="397" type="line"/>
      <point x="330" y="378"/>
      <point x="316" y="370"/>
      <point x="304" y="370" type="curve"/>
      <point x="287" y="370"/>
      <point x="271" y="386"/>
      <point x="271" y="406" type="curve"/>
      <point x="271" y="424"/>
      <point x="282" y="446"/>
      <point x="313" y="465" type="curve"/>
      <point x="241" y="565" type="line"/>
      <point x="158" y="527"/>
      <point x="121" y="457"/>
      <point x="121" y="392" type="curve"/>
      <point x="121" y="313"/>
      <point x="175" y="241"/>
    </contour>
    <contour>
      <point x="333" y="304" type="line"/>
      <point x="316" y="209" type="line"/>
      <point x="449" y="209" type="line"/>
      <point x="449" y="499" type="line"/>
      <point x="316" y="499" type="line"/>
      <point x="316" y="336" type="line"/>
    </contour>
  </outline>
</glyph>
<glyph name="ha-oriya.below" format="2">
  <note>
hasubscriptorya
</note>
  <guideline x="189" y="157" angle="90"/>
  <anchor x="209" y="203" name="_bottom"/>
  <outline>
    <contour>
      <point x="89" y="-32" type="curve"/>
      <point x="119" y="12" type="line"/>
      <point x="105" y="23"/>
      <point x="94" y="41"/>
      <point x="94" y="61" type="curve" smooth="yes"/>
      <point x="94" y="98"/>
      <point x="133" y="119"/>
      <point x="181" y="119" type="curve" smooth="yes"/>
      <point x="229" y="119"/>
      <point x="274" y="98"/>
      <point x="274" y="55" type="curve" smooth="yes"/>
      <point x="274" y="33"/>
      <point x="263" y="8"/>
      <point x="245" y="-12" type="curve"/>
      <point x="225" y="40" type="line"/>
      <point x="381" y="-21" type="line"/>
      <point x="334" y="-41" type="line"/>
      <point x="357" y="-14"/>
      <point x="371" y="25"/>
      <point x="371" y="64" type="curve" smooth="yes"/>
      <point x="371" y="161"/>
      <point x="276" y="209"/>
      <point x="182" y="209" type="curve" smooth="yes"/>
      <point x="93" y="209"/>
      <point x="6" y="165"/>
      <point x="6" y="80" type="curve" smooth="yes"/>
      <point x="6" y="32"/>
      <point x="36" y="-15"/>
    </contour>
    <contour>
      <point x="277" y="-198" type="line"/>
      <point x="301" y="-134" type="line"/>
      <point x="107" y="-73" type="line"/>
      <point x="96" y="-113" type="line"/>
      <point x="164" y="-55" type="line"/>
      <point x="112" y="-31" type="line"/>
      <point x="46" y="-83" type="line"/>
      <point x="54" y="-128" type="line"/>
    </contour>
    <contour>
      <point x="77" y="10" type="curve" smooth="yes"/>
      <point x="77" y="-41"/>
      <point x="118" y="-68"/>
      <point x="159" y="-68" type="curve" smooth="yes"/>
      <point x="182" y="-68"/>
      <point x="205" y="-59"/>
      <point x="223" y="-41" type="curve"/>
      <point x="190" y="14" type="line"/>
      <point x="188" y="1"/>
      <point x="179" y="-6"/>
      <point x="166" y="-6" type="curve" smooth="yes"/>
      <point x="156" y="-6"/>
      <point x="149" y="3"/>
      <point x="149" y="17" type="curve" smooth="yes"/>
      <point x="149" y="29"/>
      <point x="154" y="41"/>
      <point x="169" y="55" type="curve"/>
      <point x="139" y="98" type="line"/>
      <point x="90" y="77"/>
      <point x="77" y="39"/>
    </contour>
    <contour>
      <point x="179" y="-88" type="line"/>
      <point x="259" y="-88" type="line"/>
      <point x="259" y="71" type="line"/>
      <point x="181" y="71" type="line"/>
      <point x="181" y="-28" type="line"/>
      <point x="184" y="-39" type="line"/>
    </contour>
  </outline>
</glyph>
<glyph name="ha_ja-oriya" format="2">
  <advance width="630"/>
  <note>
hajaorya
</note>
  <guideline x="436" y="206" angle="90"/>
  <guideline x="496" y="206" angle="90"/>
  <anchor x="306" y="751" name="top"/>
  <anchor x="484" y="751" name="topright"/>
  <outline>
    <contour>
      <point x="333" y="123" type="line"/>
      <point x="442" y="199" type="line"/>
      <point x="226" y="283" type="line"/>
      <point x="180" y="234" type="line"/>
      <point x="290" y="326" type="line"/>
      <point x="193" y="365" type="line"/>
      <point x="83" y="278" type="line"/>
      <point x="94" y="214" type="line"/>
    </contour>
    <contour>
      <point x="261" y="303" type="curve" smooth="yes"/>
      <point x="296" y="303"/>
      <point x="335" y="316"/>
      <point x="363" y="350" type="curve"/>
      <point x="326" y="437" type="line"/>
      <point x="322" y="415"/>
      <point x="305" y="405"/>
      <point x="289" y="405" type="curve" smooth="yes"/>
      <point x="271" y="405"/>
      <point x="255" y="418"/>
      <point x="255" y="443" type="curve" smooth="yes"/>
      <point x="255" y="463"/>
      <point x="265" y="488"/>
      <point x="291" y="508" type="curve"/>
      <point x="236" y="585" type="line"/>
      <point x="160" y="554"/>
      <point x="117" y="489"/>
      <point x="117" y="429" type="curve" smooth="yes"/>
      <point x="117" y="353"/>
      <point x="188" y="303"/>
    </contour>
    <contour>
      <point x="310" y="275" type="line"/>
      <point x="436" y="275" type="line"/>
      <point x="436" y="529" type="line"/>
      <point x="306" y="529" type="line"/>
      <point x="306" y="380" type="line"/>
      <point x="327" y="361" type="line"/>
    </contour>
    <contour>
      <point x="555" y="350" type="line"/>
      <point x="597" y="396"/>
      <point x="614" y="458"/>
      <point x="614" y="515" type="curve" smooth="yes"/>
      <point x="614" y="676"/>
      <point x="465" y="759"/>
      <point x="306" y="759" type="curve" smooth="yes"/>
      <point x="145" y="759"/>
      <point x="16" y="676"/>
      <point x="16" y="541" type="curve" smooth="yes"/>
      <point x="16" y="466"/>
      <point x="55" y="412"/>
      <point x="140" y="374" type="curve"/>
      <point x="199" y="429" type="line"/>
      <point x="174" y="455"/>
      <point x="161" y="490"/>
      <point x="161" y="521" type="curve" smooth="yes"/>
      <point x="161" y="589"/>
      <point x="224" y="623"/>
      <point x="305" y="623" type="curve" smooth="yes"/>
      <point x="393" y="623"/>
      <point x="464" y="586"/>
      <point x="464" y="509" type="curve" smooth="yes"/>
      <point x="464" y="476"/>
      <point x="452" y="438"/>
      <point x="424" y="401" type="curve"/>
      <point x="391" y="469" type="line"/>
      <point x="633" y="356" type="line"/>
    </contour>
    <contour>
      <point x="309" y="-75" type="curve" smooth="yes"/>
      <point x="345" y="-75"/>
      <point x="389" y="-66"/>
      <point x="420" y="-53" type="curve"/>
      <point x="395" y="-89" type="line"/>
      <point x="388" y="-57"/>
      <point x="378" y="10"/>
      <point x="378" y="68" type="curve" smooth="yes"/>
      <point x="378" y="104"/>
      <point x="380" y="125"/>
      <point x="391" y="125" type="curve" smooth="yes"/>
      <point x="402" y="125"/>
      <point x="402" y="108"/>
      <point x="402" y="89" type="curve" smooth="yes"/>
      <point x="402" y="-71" type="line"/>
      <point x="496" y="-71" type="line"/>
      <point x="496" y="102" type="line" smooth="yes"/>
      <point x="496" y="168"/>
      <point x="457" y="209"/>
      <point x="393" y="209" type="curve" smooth="yes"/>
      <point x="311" y="209"/>
      <point x="284" y="149"/>
      <point x="284" y="76" type="curve" smooth="yes"/>
      <point x="284" y="45"/>
      <point x="289" y="4"/>
      <point x="301" y="-30" type="curve"/>
      <point x="325" y="18" type="line"/>
      <point x="316" y="11"/>
      <point x="308" y="8"/>
      <point x="300" y="8" type="curve" smooth="yes"/>
      <point x="278" y="8"/>
      <point x="262" y="36"/>
      <point x="262" y="77" type="curve" smooth="yes"/>
      <point x="262" y="108"/>
      <point x="274" y="141"/>
      <point x="294" y="168" type="curve"/>
      <point x="319" y="109" type="line"/>
      <point x="160" y="169" type="line"/>
      <point x="217" y="204" type="line"/>
      <point x="183" y="163"/>
      <point x="168" y="115"/>
      <point x="168" y="71" type="curve" smooth="yes"/>
      <point x="168" y="-19"/>
      <point x="231" y="-75"/>
    </contour>
  </outline>
</glyph>
<glyph name="ha_ka-oriya" format="2">
  <advance width="630"/>
  <note>
hakaorya
</note>
  <guideline x="436" y="206" angle="90"/>
  <guideline x="496" y="206" angle="90"/>
  <anchor x="306" y="751" name="top"/>
  <anchor x="484" y="751" name="topright"/>
  <outline>
    <contour>
      <point x="261" y="303" type="curve" smooth="yes"/>
      <point x="296" y="303"/>
      <point x="335" y="316"/>
      <point x="363" y="350" type="curve"/>
      <point x="326" y="437" type="line"/>
      <point x="322" y="415"/>
      <point x="305" y="405"/>
      <point x="289" y="405" type="curve" smooth="yes"/>
      <point x="271" y="405"/>
      <point x="255" y="418"/>
      <point x="255" y="443" type="curve" smooth="yes"/>
      <point x="255" y="463"/>
      <point x="265" y="488"/>
      <point x="291" y="508" type="curve"/>
      <point x="236" y="585" type="line"/>
      <point x="160" y="554"/>
      <point x="117" y="489"/>
      <point x="117" y="429" type="curve" smooth="yes"/>
      <point x="117" y="353"/>
      <point x="188" y="303"/>
    </contour>
    <contour>
      <point x="310" y="275" type="line"/>
      <point x="436" y="275" type="line"/>
      <point x="436" y="529" type="line"/>
      <point x="306" y="529" type="line"/>
      <point x="306" y="380" type="line"/>
      <point x="327" y="361" type="line"/>
    </contour>
    <contour>
      <point x="555" y="350" type="line"/>
      <point x="597" y="396"/>
      <point x="614" y="458"/>
      <point x="614" y="515" type="curve" smooth="yes"/>
      <point x="614" y="676"/>
      <point x="465" y="759"/>
      <point x="306" y="759" type="curve" smooth="yes"/>
      <point x="145" y="759"/>
      <point x="16" y="676"/>
      <point x="16" y="541" type="curve" smooth="yes"/>
      <point x="16" y="466"/>
      <point x="55" y="412"/>
      <point x="140" y="374" type="curve"/>
      <point x="199" y="429" type="line"/>
      <point x="174" y="455"/>
      <point x="161" y="490"/>
      <point x="161" y="521" type="curve" smooth="yes"/>
      <point x="161" y="589"/>
      <point x="224" y="623"/>
      <point x="305" y="623" type="curve" smooth="yes"/>
      <point x="393" y="623"/>
      <point x="464" y="586"/>
      <point x="464" y="509" type="curve" smooth="yes"/>
      <point x="464" y="476"/>
      <point x="452" y="438"/>
      <point x="424" y="401" type="curve"/>
      <point x="391" y="469" type="line"/>
      <point x="633" y="356" type="line"/>
    </contour>
    <contour>
      <point x="260" y="-32" type="curve" smooth="yes"/>
      <point x="328" y="-32"/>
      <point x="365" y="16"/>
      <point x="365" y="90" type="curve" smooth="yes"/>
      <point x="365" y="163"/>
      <point x="329" y="209"/>
      <point x="262" y="209" type="curve" smooth="yes"/>
      <point x="198" y="209"/>
      <point x="155" y="162"/>
      <point x="155" y="88" type="curve" smooth="yes"/>
      <point x="155" y="14"/>
      <point x="198" y="-32"/>
    </contour>
    <contour>
      <point x="265" y="58" type="curve" smooth="yes"/>
      <point x="253" y="58"/>
      <point x="249" y="68"/>
      <point x="249" y="89" type="curve" smooth="yes"/>
      <point x="249" y="109"/>
      <point x="253" y="119"/>
      <point x="265" y="119" type="curve" smooth="yes"/>
      <point x="277" y="119"/>
      <point x="281" y="109"/>
      <point x="281" y="89" type="curve" smooth="yes"/>
      <point x="281" y="68"/>
      <point x="277" y="58"/>
    </contour>
    <contour>
      <point x="442" y="204" type="curve" smooth="yes"/>
      <point x="235" y="280" type="line"/>
      <point x="290" y="326" type="line"/>
      <point x="193" y="365" type="line"/>
      <point x="83" y="278" type="line"/>
      <point x="94" y="214" type="line"/>
      <point x="376" y="113" type="line"/>
      <point x="356" y="196" type="line"/>
      <point x="316" y="171"/>
      <point x="309" y="120"/>
      <point x="309" y="86" type="curve"/>
      <point x="295" y="47" type="line"/>
      <point x="287" y="-71" type="line"/>
      <point x="381" y="-71" type="line"/>
      <point x="381" y="103" type="line" smooth="yes"/>
      <point x="381" y="113"/>
      <point x="385" y="119"/>
      <point x="392" y="119" type="curve" smooth="yes"/>
      <point x="398" y="119"/>
      <point x="402" y="113"/>
      <point x="402" y="103" type="curve" smooth="yes"/>
      <point x="402" y="-71" type="line"/>
      <point x="496" y="-71" type="line"/>
      <point x="496" y="97" type="line" smooth="yes"/>
      <point x="496" y="155"/>
      <point x="485" y="188"/>
    </contour>
  </outline>
</glyph>
<glyph name="ha_u-oriya" format="2">
  <advance width="630"/>
  <note>
huorya
</note>
  <guideline x="306" y="184" angle="90"/>
  <guideline x="436" y="184" angle="90"/>
  <anchor x="306" y="751" name="top"/>
  <anchor x="484" y="751" name="topright"/>
  <outline>
    <contour>
      <point x="239" y="-155" type="curve" smooth="yes"/>
      <point x="341" y="-155"/>
      <point x="436" y="-58"/>
      <point x="436" y="137" type="curve"/>
      <point x="306" y="167" type="line"/>
      <point x="306" y="137" type="line"/>
      <point x="306" y="52"/>
      <point x="296" y="-47"/>
      <point x="244" y="-47" type="curve" smooth="yes"/>
      <point x="228" y="-47"/>
      <point x="220" y="-37"/>
      <point x="220" y="-25" type="curve" smooth="yes"/>
      <point x="220" y="-12"/>
      <point x="230" y="-3"/>
      <point x="241" y="-3" type="curve" smooth="yes"/>
      <point x="288" y="-3"/>
      <point x="363" y="-155"/>
      <point x="467" y="-155" type="curve" smooth="yes"/>
      <point x="507" y="-155"/>
      <point x="551" y="-133"/>
      <point x="598" y="-71" type="curve"/>
      <point x="563" y="-133" type="line"/>
      <point x="499" y="-9" type="line"/>
      <point x="523" y="1" type="line"/>
      <point x="501" y="-26"/>
      <point x="478" y="-37"/>
      <point x="458" y="-37" type="curve" smooth="yes"/>
      <point x="389" y="-37"/>
      <point x="346" y="105"/>
      <point x="228" y="105" type="curve" smooth="yes"/>
      <point x="154" y="105"/>
      <point x="102" y="48"/>
      <point x="102" y="-23" type="curve" smooth="yes"/>
      <point x="102" y="-97"/>
      <point x="159" y="-155"/>
    </contour>
    <contour>
      <point x="467" y="98" type="line"/>
      <point x="506" y="199" type="line"/>
      <point x="226" y="283" type="line"/>
      <point x="180" y="234" type="line"/>
      <point x="290" y="326" type="line"/>
      <point x="193" y="365" type="line"/>
      <point x="83" y="278" type="line"/>
      <point x="94" y="214" type="line"/>
    </contour>
    <contour>
      <point x="261" y="303" type="curve" smooth="yes"/>
      <point x="296" y="303"/>
      <point x="335" y="316"/>
      <point x="363" y="350" type="curve"/>
      <point x="326" y="437" type="line"/>
      <point x="322" y="415"/>
      <point x="305" y="405"/>
      <point x="289" y="405" type="curve" smooth="yes"/>
      <point x="271" y="405"/>
      <point x="255" y="418"/>
      <point x="255" y="443" type="curve" smooth="yes"/>
      <point x="255" y="463"/>
      <point x="265" y="488"/>
      <point x="291" y="508" type="curve"/>
      <point x="236" y="585" type="line"/>
      <point x="160" y="554"/>
      <point x="117" y="489"/>
      <point x="117" y="429" type="curve" smooth="yes"/>
      <point x="117" y="353"/>
      <point x="188" y="303"/>
    </contour>
    <contour>
      <point x="310" y="275" type="line"/>
      <point x="436" y="275" type="line"/>
      <point x="436" y="529" type="line"/>
      <point x="306" y="529" type="line"/>
      <point x="306" y="380" type="line"/>
      <point x="327" y="361" type="line"/>
    </contour>
    <contour>
      <point x="555" y="350" type="line"/>
      <point x="597" y="396"/>
      <point x="614" y="458"/>
      <point x="614" y="515" type="curve" smooth="yes"/>
      <point x="614" y="676"/>
      <point x="465" y="759"/>
      <point x="306" y="759" type="curve" smooth="yes"/>
      <point x="145" y="759"/>
      <point x="16" y="676"/>
      <point x="16" y="541" type="curve" smooth="yes"/>
      <point x="16" y="466"/>
      <point x="55" y="412"/>
      <point x="140" y="374" type="curve"/>
      <point x="199" y="429" type="line"/>
      <point x="174" y="455"/>
      <point x="161" y="490"/>
      <point x="161" y="521" type="curve" smooth="yes"/>
      <point x="161" y="589"/>
      <point x="224" y="623"/>
      <point x="305" y="623" type="curve" smooth="yes"/>
      <point x="393" y="623"/>
      <point x="464" y="586"/>
      <point x="464" y="509" type="curve" smooth="yes"/>
      <point x="464" y="476"/>
      <point x="452" y="438"/>
      <point x="424" y="401" type="curve"/>
      <point x="391" y="469" type="line"/>
      <point x="633" y="356" type="line"/>
    </contour>
  </outline>
</glyph>
<glyph name="ha_va-oriya" format="2">
  <advance width="630"/>
  <note>
habaorya
</note>
  <guideline x="306" y="163" angle="90"/>
  <guideline x="436" y="209" angle="90"/>
  <guideline x="510" y="209" angle="90"/>
  <anchor x="306" y="751" name="top"/>
  <anchor x="484" y="751" name="topright"/>
  <outline>
    <contour>
      <point x="471" y="104" type="line"/>
      <point x="510" y="205" type="line"/>
      <point x="226" y="283" type="line"/>
      <point x="180" y="234" type="line"/>
      <point x="290" y="326" type="line"/>
      <point x="193" y="365" type="line"/>
      <point x="83" y="278" type="line"/>
      <point x="94" y="214" type="line"/>
    </contour>
    <contour>
      <point x="261" y="303" type="curve" smooth="yes"/>
      <point x="296" y="303"/>
      <point x="335" y="316"/>
      <point x="363" y="350" type="curve"/>
      <point x="326" y="437" type="line"/>
      <point x="322" y="415"/>
      <point x="305" y="405"/>
      <point x="289" y="405" type="curve" smooth="yes"/>
      <point x="271" y="405"/>
      <point x="255" y="418"/>
      <point x="255" y="443" type="curve" smooth="yes"/>
      <point x="255" y="463"/>
      <point x="265" y="488"/>
      <point x="291" y="508" type="curve"/>
      <point x="236" y="585" type="line"/>
      <point x="160" y="554"/>
      <point x="117" y="489"/>
      <point x="117" y="429" type="curve" smooth="yes"/>
      <point x="117" y="353"/>
      <point x="188" y="303"/>
    </contour>
    <contour>
      <point x="310" y="275" type="line"/>
      <point x="436" y="275" type="line"/>
      <point x="436" y="529" type="line"/>
      <point x="306" y="529" type="line"/>
      <point x="306" y="380" type="line"/>
      <point x="327" y="361" type="line"/>
    </contour>
    <contour>
      <point x="555" y="350" type="line"/>
      <point x="597" y="396"/>
      <point x="614" y="458"/>
      <point x="614" y="515" type="curve" smooth="yes"/>
      <point x="614" y="676"/>
      <point x="465" y="759"/>
      <point x="306" y="759" type="curve" smooth="yes"/>
      <point x="145" y="759"/>
      <point x="16" y="676"/>
      <point x="16" y="541" type="curve" smooth="yes"/>
      <point x="16" y="466"/>
      <point x="55" y="412"/>
      <point x="140" y="374" type="curve"/>
      <point x="199" y="429" type="line"/>
      <point x="174" y="455"/>
      <point x="161" y="490"/>
      <point x="161" y="521" type="curve" smooth="yes"/>
      <point x="161" y="589"/>
      <point x="224" y="623"/>
      <point x="305" y="623" type="curve" smooth="yes"/>
      <point x="393" y="623"/>
      <point x="464" y="586"/>
      <point x="464" y="509" type="curve" smooth="yes"/>
      <point x="464" y="476"/>
      <point x="452" y="438"/>
      <point x="424" y="401" type="curve"/>
      <point x="391" y="469" type="line"/>
      <point x="633" y="356" type="line"/>
    </contour>
    <contour>
      <point x="326" y="-114" type="curve" smooth="yes"/>
      <point x="371" y="-114"/>
      <point x="412" y="-95"/>
      <point x="443" y="-53" type="curve"/>
      <point x="396" y="25" type="line"/>
      <point x="387" y="-2"/>
      <point x="369" y="-17"/>
      <point x="350" y="-17" type="curve" smooth="yes"/>
      <point x="328" y="-17"/>
      <point x="317" y="3"/>
      <point x="317" y="35" type="curve" smooth="yes"/>
      <point x="317" y="54"/>
      <point x="322" y="82"/>
      <point x="329" y="111" type="curve"/>
      <point x="351" y="90" type="line"/>
      <point x="164" y="123" type="line"/>
      <point x="240" y="155" type="line"/>
      <point x="214" y="114"/>
      <point x="201" y="68"/>
      <point x="201" y="25" type="curve" smooth="yes"/>
      <point x="201" y="-52"/>
      <point x="243" y="-114"/>
    </contour>
    <contour>
      <point x="380" y="-151" type="line"/>
      <point x="510" y="-151" type="line"/>
      <point x="510" y="205" type="line"/>
      <point x="380" y="205" type="line"/>
      <point x="380" y="-49" type="line"/>
      <point x="387" y="-58" type="line"/>
    </contour>
  </outline>
</glyph>
<glyph name="i-oriya.REV_BRACKET.141" format="2">
  <advance width="742"/>
  <note>
iorya
</note>
  <guideline x="1053" y="351" angle="0"/>
  <anchor x="576" y="751" name="topright"/>
  <outline>
    <contour>
      <point x="507" y="250" type="curve"/>
      <point x="652" y="10" type="line"/>
      <point x="568" y="60" type="line"/>
      <point x="772" y="191" type="line"/>
      <point x="800" y="90" type="line"/>
      <point x="636" y="334" type="line"/>
      <point x="609" y="193" type="line"/>
      <point x="675" y="278"/>
      <point x="706" y="368"/>
      <point x="706" y="451" type="curve"/>
      <point x="706" y="620"/>
      <point x="576" y="759"/>
      <point x="351" y="759" type="curve" smooth="yes"/>
      <point x="126" y="759"/>
      <point x="16" y="620"/>
      <point x="16" y="485" type="curve" smooth="yes"/>
      <point x="16" y="403"/>
      <point x="58" y="320"/>
      <point x="140" y="271" type="curve"/>
      <point x="198" y="376" type="line"/>
      <point x="175" y="397"/>
      <point x="163" y="427"/>
      <point x="163" y="458" type="curve" smooth="yes"/>
      <point x="163" y="529"/>
      <point x="219" y="613"/>
      <point x="349" y="613" type="curve" smooth="yes"/>
      <point x="483" y="613"/>
      <point x="554" y="520"/>
      <point x="554" y="410" type="curve" smooth="yes"/>
      <point x="554" y="358"/>
      <point x="539" y="302"/>
    </contour>
    <contour>
      <point x="206" y="85" type="curve" smooth="yes"/>
      <point x="277" y="85"/>
      <point x="314" y="156"/>
      <point x="314" y="267" type="curve" smooth="yes"/>
      <point x="314" y="378"/>
      <point x="277" y="444"/>
      <point x="208" y="444" type="curve" smooth="yes"/>
      <point x="139" y="444"/>
      <point x="86" y="377"/>
      <point x="86" y="263" type="curve" smooth="yes"/>
      <point x="86" y="148"/>
      <point x="140" y="85"/>
    </contour>
    <contour>
      <point x="215" y="210" type="curve" smooth="yes"/>
      <point x="202" y="210"/>
      <point x="197" y="225"/>
      <point x="197" y="265" type="curve" smooth="yes"/>
      <point x="197" y="304"/>
      <point x="202" y="319"/>
      <point x="215" y="319" type="curve" smooth="yes"/>
      <point x="228" y="319"/>
      <point x="233" y="304"/>
      <point x="233" y="265" type="curve" smooth="yes"/>
      <point x="233" y="225"/>
      <point x="228" y="210"/>
    </contour>
    <contour>
      <point x="372" y="85" type="curve" smooth="yes"/>
      <point x="439" y="85"/>
      <point x="491" y="151"/>
      <point x="491" y="265" type="curve" smooth="yes"/>
      <point x="491" y="377"/>
      <point x="441" y="444"/>
      <point x="372" y="444" type="curve" smooth="yes"/>
      <point x="301" y="444"/>
      <point x="261" y="375"/>
      <point x="261" y="267" type="curve" smooth="yes"/>
      <point x="261" y="155"/>
      <point x="304" y="85"/>
    </contour>
    <contour>
      <point x="362" y="210" type="curve" smooth="yes"/>
      <point x="349" y="210"/>
      <point x="344" y="225"/>
      <point x="344" y="265" type="curve" smooth="yes"/>
      <point x="344" y="304"/>
      <point x="349" y="319"/>
      <point x="362" y="319" type="curve" smooth="yes"/>
      <point x="375" y="319"/>
      <point x="380" y="304"/>
      <point x="380" y="265" type="curve" smooth="yes"/>
      <point x="380" y="225"/>
      <point x="375" y="210"/>
    </contour>
  </outline>
</glyph>
<glyph name="iMatra_reph-oriya" format="2">
  <advance width="600"/>
  <anchor x="300" y="751" name="_top"/>
  <outline>
    <contour>
      <point x="117" y="770" type="line"/>
      <point x="171" y="839"/>
      <point x="235" y="864"/>
      <point x="300" y="864" type="curve" smooth="yes"/>
      <point x="364" y="864"/>
      <point x="429" y="839"/>
      <point x="482" y="770" type="curve"/>
      <point x="574" y="845" type="line"/>
      <point x="497" y="950"/>
      <point x="400" y="994"/>
      <point x="303" y="994" type="curve" smooth="yes"/>
      <point x="205" y="994"/>
      <point x="106" y="950"/>
      <point x="25" y="845" type="curve"/>
    </contour>
    <contour>
      <point x="440" y="841" type="line"/>
      <point x="584" y="999" type="line"/>
      <point x="506" y="1070" type="line"/>
      <point x="362" y="911" type="line"/>
    </contour>
  </outline>
</glyph>
<glyph name="iMatra_reph-oriya.wide" format="2">
  <anchor x="300" y="751" name="_top"/>
  <outline>
    <contour>
      <point x="87" y="783" type="line"/>
      <point x="142" y="837"/>
      <point x="224" y="864"/>
      <point x="306" y="864" type="curve" smooth="yes"/>
      <point x="386" y="864"/>
      <point x="466" y="838"/>
      <point x="519" y="787" type="curve"/>
      <point x="600" y="874" type="line"/>
      <point x="522" y="954"/>
      <point x="413" y="994"/>
      <point x="304" y="994" type="curve" smooth="yes"/>
      <point x="194" y="994"/>
      <point x="83" y="953"/>
      <point x="6" y="870" type="curve"/>
    </contour>
    <contour>
      <point x="470" y="841" type="line"/>
      <point x="614" y="999" type="line"/>
      <point x="536" y="1070" type="line"/>
      <point x="392" y="911" type="line"/>
    </contour>
  </outline>
</glyph>
<glyph name="ii-oriya.REV_BRACKET.141" format="2">
  <advance width="726"/>
  <note>
iiorya
</note>
  <anchor x="558" y="751" name="topright"/>
  <outline>
    <contour>
      <point x="491" y="250" type="curve"/>
      <point x="636" y="10" type="line"/>
      <point x="552" y="60" type="line"/>
      <point x="756" y="191" type="line"/>
      <point x="784" y="90" type="line"/>
      <point x="620" y="334" type="line"/>
      <point x="599" y="193" type="line"/>
      <point x="659" y="268"/>
      <point x="688" y="363"/>
      <point x="688" y="453" type="curve" smooth="yes"/>
      <point x="688" y="655"/>
      <point x="543" y="759"/>
      <point x="386" y="759" type="curve" smooth="yes"/>
      <point x="215" y="759"/>
      <point x="110" y="635"/>
      <point x="102" y="510" type="curve"/>
      <point x="238" y="510" type="line"/>
      <point x="253" y="573"/>
      <point x="305" y="613"/>
      <point x="376" y="613" type="curve" smooth="yes"/>
      <point x="465" y="613"/>
      <point x="536" y="551"/>
      <point x="536" y="424" type="curve" smooth="yes"/>
      <point x="536" y="363"/>
      <point x="520" y="298"/>
    </contour>
    <contour>
      <point x="196" y="85" type="curve" smooth="yes"/>
      <point x="267" y="85"/>
      <point x="304" y="156"/>
      <point x="304" y="267" type="curve" smooth="yes"/>
      <point x="304" y="378"/>
      <point x="267" y="444"/>
      <point x="198" y="444" type="curve" smooth="yes"/>
      <point x="129" y="444"/>
      <point x="76" y="377"/>
      <point x="76" y="263" type="curve" smooth="yes"/>
      <point x="76" y="148"/>
      <point x="130" y="85"/>
    </contour>
    <contour>
      <point x="205" y="210" type="curve" smooth="yes"/>
      <point x="192" y="210"/>
      <point x="187" y="225"/>
      <point x="187" y="265" type="curve" smooth="yes"/>
      <point x="187" y="304"/>
      <point x="192" y="319"/>
      <point x="205" y="319" type="curve" smooth="yes"/>
      <point x="218" y="319"/>
      <point x="223" y="304"/>
      <point x="223" y="265" type="curve" smooth="yes"/>
      <point x="223" y="225"/>
      <point x="218" y="210"/>
    </contour>
    <contour>
      <point x="362" y="85" type="curve" smooth="yes"/>
      <point x="429" y="85"/>
      <point x="481" y="151"/>
      <point x="481" y="265" type="curve" smooth="yes"/>
      <point x="481" y="377"/>
      <point x="431" y="444"/>
      <point x="362" y="444" type="curve" smooth="yes"/>
      <point x="291" y="444"/>
      <point x="251" y="375"/>
      <point x="251" y="267" type="curve" smooth="yes"/>
      <point x="251" y="155"/>
      <point x="294" y="85"/>
    </contour>
    <contour>
      <point x="352" y="210" type="curve" smooth="yes"/>
      <point x="339" y="210"/>
      <point x="334" y="225"/>
      <point x="334" y="265" type="curve" smooth="yes"/>
      <point x="334" y="304"/>
      <point x="339" y="319"/>
      <point x="352" y="319" type="curve" smooth="yes"/>
      <point x="365" y="319"/>
      <point x="370" y="304"/>
      <point x="370" y="265" type="curve" smooth="yes"/>
      <point x="370" y="225"/>
      <point x="365" y="210"/>
    </contour>
    <contour>
      <point x="141" y="243" type="curve"/>
      <point x="176" y="335" type="line"/>
      <point x="152" y="355"/>
      <point x="138" y="380"/>
      <point x="138" y="402" type="curve" smooth="yes"/>
      <point x="138" y="441"/>
      <point x="174" y="461"/>
      <point x="215" y="461" type="curve" smooth="yes"/>
      <point x="258" y="461"/>
      <point x="307" y="438"/>
      <point x="319" y="392" type="curve"/>
      <point x="287" y="429" type="line"/>
      <point x="389" y="551" type="line"/>
      <point x="391" y="500" type="line"/>
      <point x="352" y="567"/>
      <point x="281" y="598"/>
      <point x="212" y="598" type="curve" smooth="yes"/>
      <point x="113" y="598"/>
      <point x="16" y="534"/>
      <point x="16" y="419" type="curve" smooth="yes"/>
      <point x="16" y="351"/>
      <point x="49" y="284"/>
    </contour>
  </outline>
</glyph>
<glyph name="ja-oriya.REV_BRACKET.141" format="2">
  <advance width="688"/>
  <note>
jaorya
</note>
  <anchor x="386" y="93" name="bottom"/>
  <anchor x="533" y="93" name="bottom_ra"/>
  <anchor x="337" y="751" name="top"/>
  <anchor x="542" y="751" name="topright"/>
  <outline>
    <contour>
      <point x="278" y="86" type="curve" smooth="yes"/>
      <point x="325" y="86"/>
      <point x="380" y="98"/>
      <point x="438" y="122" type="curve"/>
      <point x="377" y="81" type="line"/>
      <point x="368" y="121"/>
      <point x="360" y="221"/>
      <point x="360" y="279" type="curve" smooth="yes"/>
      <point x="360" y="324"/>
      <point x="365" y="335"/>
      <point x="375" y="335" type="curve" smooth="yes"/>
      <point x="386" y="335"/>
      <point x="386" y="321"/>
      <point x="386" y="301" type="curve" smooth="yes"/>
      <point x="386" y="93" type="line"/>
      <point x="533" y="93" type="line"/>
      <point x="533" y="322" type="line" smooth="yes"/>
      <point x="533" y="415"/>
      <point x="479" y="464"/>
      <point x="389" y="464" type="curve" smooth="yes"/>
      <point x="278" y="464"/>
      <point x="230" y="390"/>
      <point x="230" y="282" type="curve" smooth="yes"/>
      <point x="230" y="248"/>
      <point x="235" y="209"/>
      <point x="243" y="153" type="curve"/>
      <point x="297" y="220" type="line"/>
      <point x="291" y="217"/>
      <point x="277" y="213"/>
      <point x="265" y="213" type="curve" smooth="yes"/>
      <point x="233" y="213"/>
      <point x="217" y="246"/>
      <point x="217" y="289" type="curve" smooth="yes"/>
      <point x="217" y="362"/>
      <point x="264" y="457"/>
      <point x="348" y="470" type="curve"/>
      <point x="347" y="399" type="line"/>
      <point x="205" y="588" type="line"/>
      <point x="298" y="559" type="line"/>
      <point x="142" y="503"/>
      <point x="86" y="403"/>
      <point x="86" y="290" type="curve" smooth="yes"/>
      <point x="86" y="156"/>
      <point x="164" y="86"/>
    </contour>
    <contour>
      <point x="140" y="272" type="curve"/>
      <point x="199" y="377" type="line"/>
      <point x="174" y="408"/>
      <point x="163" y="440"/>
      <point x="163" y="473" type="curve" smooth="yes"/>
      <point x="163" y="564"/>
      <point x="250" y="613"/>
      <point x="340" y="613" type="curve" smooth="yes"/>
      <point x="430" y="613"/>
      <point x="520" y="563"/>
      <point x="520" y="468" type="curve" smooth="yes"/>
      <point x="520" y="436"/>
      <point x="510" y="405"/>
      <point x="494" y="377" type="curve"/>
      <point x="457" y="443" type="line"/>
      <point x="720" y="357" type="line"/>
      <point x="644" y="336" type="line"/>
      <point x="661" y="383"/>
      <point x="672" y="421"/>
      <point x="672" y="470" type="curve" smooth="yes"/>
      <point x="672" y="662"/>
      <point x="503" y="759"/>
      <point x="337" y="759" type="curve" smooth="yes"/>
      <point x="175" y="759"/>
      <point x="16" y="666"/>
      <point x="16" y="493" type="curve" smooth="yes"/>
      <point x="16" y="409"/>
      <point x="54" y="333"/>
    </contour>
  </outline>
</glyph>
<glyph name="ja-oriya.base.REV_BRACKET.141" format="2">
  <advance width="666"/>
  <anchor x="447" y="203" name="bottom"/>
  <anchor x="325" y="751" name="top"/>
  <anchor x="520" y="751" name="topright"/>
  <outline>
    <contour>
      <point x="273" y="165" type="curve" smooth="yes"/>
      <point x="317" y="165"/>
      <point x="373" y="175"/>
      <point x="411" y="192" type="curve"/>
      <point x="372" y="148" type="line"/>
      <point x="364" y="188"/>
      <point x="354" y="266"/>
      <point x="354" y="337" type="curve" smooth="yes"/>
      <point x="354" y="359"/>
      <point x="355" y="385"/>
      <point x="368" y="385" type="curve" smooth="yes"/>
      <point x="377" y="385"/>
      <point x="377" y="371"/>
      <point x="377" y="356" type="curve" smooth="yes"/>
      <point x="377" y="169" type="line"/>
      <point x="517" y="169" type="line"/>
      <point x="517" y="373" type="line" smooth="yes"/>
      <point x="517" y="448"/>
      <point x="471" y="498"/>
      <point x="377" y="498" type="curve" smooth="yes"/>
      <point x="262" y="498"/>
      <point x="228" y="427"/>
      <point x="228" y="343" type="curve" smooth="yes"/>
      <point x="228" y="304"/>
      <point x="236" y="256"/>
      <point x="248" y="214" type="curve"/>
      <point x="286" y="286" type="line"/>
      <point x="284" y="282"/>
      <point x="271" y="276"/>
      <point x="256" y="276" type="curve" smooth="yes"/>
      <point x="225" y="276"/>
      <point x="213" y="304"/>
      <point x="213" y="339" type="curve" smooth="yes"/>
      <point x="213" y="392"/>
      <point x="241" y="463"/>
      <point x="292" y="492" type="curve"/>
      <point x="236" y="562" type="line"/>
      <point x="138" y="517"/>
      <point x="86" y="438"/>
      <point x="83" y="345" type="curve" smooth="yes"/>
      <point x="79" y="220"/>
      <point x="171" y="165"/>
    </contour>
    <contour>
      <point x="137" y="329" type="curve"/>
      <point x="196" y="421" type="line"/>
      <point x="172" y="448"/>
      <point x="161" y="477"/>
      <point x="161" y="505" type="curve" smooth="yes"/>
      <point x="161" y="572"/>
      <point x="226" y="623"/>
      <point x="329" y="623" type="curve" smooth="yes"/>
      <point x="428" y="623"/>
      <point x="500" y="575"/>
      <point x="500" y="500" type="curve" smooth="yes"/>
      <point x="500" y="475"/>
      <point x="491" y="445"/>
      <point x="483" y="410" type="curve"/>
      <point x="435" y="482" type="line"/>
      <point x="693" y="404" type="line"/>
      <point x="624" y="381" type="line"/>
      <point x="640" y="425"/>
      <point x="650" y="460"/>
      <point x="650" y="502" type="curve" smooth="yes"/>
      <point x="650" y="673"/>
      <point x="488" y="759"/>
      <point x="327" y="759" type="curve" smooth="yes"/>
      <point x="169" y="759"/>
      <point x="16" y="677"/>
      <point x="16" y="524" type="curve" smooth="yes"/>
      <point x="16" y="450"/>
      <point x="52" y="383"/>
    </contour>
  </outline>
</glyph>
<glyph name="ja-oriya.below" format="2">
  <note>
jasubscriptorya
</note>
  <guideline x="171" y="206" angle="90"/>
  <anchor x="216" y="203" name="_bottom"/>
  <outline>
    <contour>
      <point x="147" y="-75" type="curve" smooth="yes"/>
      <point x="183" y="-75"/>
      <point x="227" y="-66"/>
      <point x="258" y="-53" type="curve"/>
      <point x="233" y="-89" type="line"/>
      <point x="226" y="-57"/>
      <point x="216" y="10"/>
      <point x="216" y="68" type="curve" smooth="yes"/>
      <point x="216" y="104"/>
      <point x="218" y="125"/>
      <point x="229" y="125" type="curve" smooth="yes"/>
      <point x="240" y="125"/>
      <point x="240" y="108"/>
      <point x="240" y="89" type="curve" smooth="yes"/>
      <point x="240" y="-71" type="line"/>
      <point x="334" y="-71" type="line"/>
      <point x="334" y="102" type="line" smooth="yes"/>
      <point x="334" y="168"/>
      <point x="295" y="209"/>
      <point x="231" y="209" type="curve" smooth="yes"/>
      <point x="149" y="209"/>
      <point x="122" y="149"/>
      <point x="122" y="76" type="curve" smooth="yes"/>
      <point x="122" y="45"/>
      <point x="127" y="4"/>
      <point x="139" y="-30" type="curve"/>
      <point x="163" y="18" type="line"/>
      <point x="154" y="11"/>
      <point x="146" y="8"/>
      <point x="138" y="8" type="curve" smooth="yes"/>
      <point x="116" y="8"/>
      <point x="100" y="36"/>
      <point x="100" y="77" type="curve" smooth="yes"/>
      <point x="100" y="140"/>
      <point x="148" y="210"/>
      <point x="214" y="222" type="curve"/>
      <point x="154" y="142" type="line"/>
      <point x="43" y="230" type="line"/>
      <point x="122" y="258" type="line"/>
      <point x="41" y="213"/>
      <point x="6" y="138"/>
      <point x="6" y="71" type="curve" smooth="yes"/>
      <point x="6" y="-19"/>
      <point x="69" y="-75"/>
    </contour>
  </outline>
</glyph>
<glyph name="ja_ja_va-oriya" format="2">
  <advance width="754"/>
  <guideline x="637" y="-108" angle="0"/>
  <guideline x="513" y="177" angle="90"/>
  <guideline x="573" y="173" angle="90"/>
  <anchor x="325" y="751" name="top"/>
  <anchor x="520" y="751" name="topright"/>
  <outline>
    <contour>
      <point x="610" y="-151" type="line"/>
      <point x="740" y="-151" type="line"/>
      <point x="740" y="153" type="line"/>
      <point x="610" y="153" type="line"/>
      <point x="610" y="-68" type="line"/>
      <point x="617" y="-77" type="line"/>
    </contour>
    <contour>
      <point x="470" y="13" type="line" smooth="yes"/>
      <point x="470" y="-69"/>
      <point x="514" y="-111"/>
      <point x="582" y="-111" type="curve" smooth="yes"/>
      <point x="634" y="-111"/>
      <point x="669" y="-82"/>
      <point x="696" y="-40" type="curve"/>
      <point x="642" y="11" type="line"/>
      <point x="633" y="-16"/>
      <point x="614" y="-27"/>
      <point x="598" y="-27" type="curve" smooth="yes"/>
      <point x="573" y="-27"/>
      <point x="573" y="-2"/>
      <point x="573" y="13" type="curve" smooth="yes"/>
      <point x="573" y="102" type="line" smooth="yes"/>
      <point x="573" y="168"/>
      <point x="531" y="209"/>
      <point x="459" y="209" type="curve" smooth="yes"/>
      <point x="381" y="209"/>
      <point x="340" y="162"/>
      <point x="340" y="77" type="curve" smooth="yes"/>
      <point x="340" y="45"/>
      <point x="346" y="4"/>
      <point x="359" y="-30" type="curve"/>
      <point x="385" y="18" type="line"/>
      <point x="380" y="14"/>
      <point x="369" y="9"/>
      <point x="356" y="9" type="curve" smooth="yes"/>
      <point x="328" y="9"/>
      <point x="316" y="35"/>
      <point x="316" y="68" type="curve" smooth="yes"/>
      <point x="316" y="106"/>
      <point x="333" y="153"/>
      <point x="365" y="177" type="curve"/>
      <point x="261" y="207" type="line"/>
      <point x="222" y="166"/>
      <point x="202" y="116"/>
      <point x="202" y="71" type="curve" smooth="yes"/>
      <point x="202" y="-19"/>
      <point x="271" y="-75"/>
      <point x="368" y="-75" type="curve" smooth="yes"/>
      <point x="407" y="-75"/>
      <point x="456" y="-66"/>
      <point x="490" y="-53" type="curve"/>
      <point x="462" y="-89" type="line"/>
      <point x="455" y="-57"/>
      <point x="444" y="7"/>
      <point x="444" y="74" type="curve" smooth="yes"/>
      <point x="444" y="103"/>
      <point x="446" y="125"/>
      <point x="459" y="125" type="curve" smooth="yes"/>
      <point x="470" y="125"/>
      <point x="470" y="107"/>
      <point x="470" y="89" type="curve" smooth="yes"/>
    </contour>
    <contour>
      <point x="271" y="165" type="curve" smooth="yes"/>
      <point x="318" y="165"/>
      <point x="373" y="175"/>
      <point x="411" y="192" type="curve"/>
      <point x="370" y="148" type="line"/>
      <point x="362" y="188"/>
      <point x="352" y="266"/>
      <point x="352" y="336" type="curve" smooth="yes"/>
      <point x="352" y="358"/>
      <point x="353" y="385"/>
      <point x="367" y="385" type="curve" smooth="yes"/>
      <point x="377" y="385"/>
      <point x="377" y="372"/>
      <point x="377" y="356" type="curve" smooth="yes"/>
      <point x="377" y="169" type="line"/>
      <point x="517" y="169" type="line"/>
      <point x="517" y="373" type="line" smooth="yes"/>
      <point x="517" y="448"/>
      <point x="471" y="498"/>
      <point x="380" y="498" type="curve" smooth="yes"/>
      <point x="270" y="498"/>
      <point x="236" y="427"/>
      <point x="236" y="343" type="curve" smooth="yes"/>
      <point x="236" y="304"/>
      <point x="244" y="256"/>
      <point x="256" y="214" type="curve"/>
      <point x="286" y="286" type="line"/>
      <point x="284" y="282"/>
      <point x="272" y="276"/>
      <point x="254" y="276" type="curve" smooth="yes"/>
      <point x="227" y="276"/>
      <point x="212" y="303"/>
      <point x="208" y="340" type="curve" smooth="yes"/>
      <point x="203" y="391"/>
      <point x="237" y="452"/>
      <point x="292" y="492" type="curve"/>
      <point x="236" y="562" type="line"/>
      <point x="134" y="515"/>
      <point x="87" y="437"/>
      <point x="83" y="345" type="curve" smooth="yes"/>
      <point x="78" y="222"/>
      <point x="171" y="165"/>
    </contour>
    <contour>
      <point x="137" y="329" type="curve"/>
      <point x="196" y="421" type="line"/>
      <point x="172" y="448"/>
      <point x="161" y="477"/>
      <point x="161" y="505" type="curve" smooth="yes"/>
      <point x="161" y="572"/>
      <point x="226" y="623"/>
      <point x="329" y="623" type="curve" smooth="yes"/>
      <point x="428" y="623"/>
      <point x="500" y="575"/>
      <point x="500" y="500" type="curve" smooth="yes"/>
      <point x="500" y="475"/>
      <point x="491" y="445"/>
      <point x="483" y="410" type="curve"/>
      <point x="435" y="482" type="line"/>
      <point x="693" y="404" type="line"/>
      <point x="624" y="381" type="line"/>
      <point x="640" y="425"/>
      <point x="650" y="460"/>
      <point x="650" y="502" type="curve" smooth="yes"/>
      <point x="650" y="673"/>
      <point x="488" y="759"/>
      <point x="327" y="759" type="curve" smooth="yes"/>
      <point x="169" y="759"/>
      <point x="16" y="677"/>
      <point x="16" y="524" type="curve" smooth="yes"/>
      <point x="16" y="450"/>
      <point x="52" y="383"/>
    </contour>
  </outline>
</glyph>
<glyph name="ja_ra-oriya.REV_BRACKET.141" format="2">
  <advance width="688"/>
  <guideline x="60" y="128" angle="90"/>
  <anchor x="337" y="751" name="top"/>
  <anchor x="542" y="751" name="topright"/>
  <outline>
    <contour>
      <point x="140" y="272" type="curve"/>
      <point x="199" y="377" type="line"/>
      <point x="174" y="408"/>
      <point x="163" y="440"/>
      <point x="163" y="473" type="curve" smooth="yes"/>
      <point x="163" y="564"/>
      <point x="250" y="613"/>
      <point x="340" y="613" type="curve" smooth="yes"/>
      <point x="430" y="613"/>
      <point x="520" y="563"/>
      <point x="520" y="468" type="curve" smooth="yes"/>
      <point x="520" y="436"/>
      <point x="510" y="405"/>
      <point x="494" y="377" type="curve"/>
      <point x="457" y="443" type="line"/>
      <point x="720" y="357" type="line"/>
      <point x="644" y="336" type="line"/>
      <point x="661" y="383"/>
      <point x="672" y="421"/>
      <point x="672" y="470" type="curve" smooth="yes"/>
      <point x="672" y="662"/>
      <point x="503" y="759"/>
      <point x="337" y="759" type="curve" smooth="yes"/>
      <point x="175" y="759"/>
      <point x="16" y="666"/>
      <point x="16" y="493" type="curve" smooth="yes"/>
      <point x="16" y="409"/>
      <point x="54" y="333"/>
    </contour>
    <contour>
      <point x="94" y="-107" type="line"/>
      <point x="533" y="-107" type="line"/>
      <point x="533" y="322" type="line" smooth="yes"/>
      <point x="533" y="415"/>
      <point x="479" y="464"/>
      <point x="389" y="464" type="curve" smooth="yes"/>
      <point x="278" y="464"/>
      <point x="230" y="390"/>
      <point x="230" y="282" type="curve" smooth="yes"/>
      <point x="230" y="248"/>
      <point x="235" y="209"/>
      <point x="243" y="153" type="curve"/>
      <point x="297" y="220" type="line"/>
      <point x="291" y="217"/>
      <point x="277" y="213"/>
      <point x="265" y="213" type="curve" smooth="yes"/>
      <point x="233" y="213"/>
      <point x="217" y="246"/>
      <point x="217" y="289" type="curve" smooth="yes"/>
      <point x="217" y="362"/>
      <point x="264" y="457"/>
      <point x="348" y="470" type="curve"/>
      <point x="347" y="399" type="line"/>
      <point x="205" y="588" type="line"/>
      <point x="298" y="559" type="line"/>
      <point x="142" y="503"/>
      <point x="86" y="403"/>
      <point x="86" y="290" type="curve" smooth="yes"/>
      <point x="86" y="156"/>
      <point x="164" y="86"/>
      <point x="278" y="86" type="curve" smooth="yes"/>
      <point x="325" y="86"/>
      <point x="380" y="98"/>
      <point x="438" y="122" type="curve"/>
      <point x="377" y="81" type="line"/>
      <point x="368" y="121"/>
      <point x="360" y="221"/>
      <point x="360" y="279" type="curve" smooth="yes"/>
      <point x="360" y="324"/>
      <point x="365" y="335"/>
      <point x="375" y="335" type="curve" smooth="yes"/>
      <point x="386" y="335"/>
      <point x="386" y="321"/>
      <point x="386" y="301" type="curve" smooth="yes"/>
      <point x="386" y="23" type="line"/>
      <point x="94" y="23" type="line"/>
    </contour>
  </outline>
</glyph>
<glyph name="ja_ra-oriya" format="2">
  <advance width="688"/>
  <guideline x="60" y="128" angle="90"/>
  <anchor x="337" y="751" name="top"/>
  <anchor x="542" y="751" name="topright"/>
  <outline>
    <contour>
      <point x="140" y="272" type="curve"/>
      <point x="199" y="377" type="line"/>
      <point x="174" y="408"/>
      <point x="163" y="440"/>
      <point x="163" y="473" type="curve" smooth="yes"/>
      <point x="163" y="564"/>
      <point x="250" y="613"/>
      <point x="340" y="613" type="curve" smooth="yes"/>
      <point x="430" y="613"/>
      <point x="520" y="563"/>
      <point x="520" y="468" type="curve" smooth="yes"/>
      <point x="520" y="436"/>
      <point x="510" y="405"/>
      <point x="494" y="377" type="curve"/>
      <point x="457" y="443" type="line"/>
      <point x="720" y="357" type="line"/>
      <point x="644" y="336" type="line"/>
      <point x="661" y="383"/>
      <point x="672" y="421"/>
      <point x="672" y="470" type="curve" smooth="yes"/>
      <point x="672" y="662"/>
      <point x="503" y="759"/>
      <point x="337" y="759" type="curve" smooth="yes"/>
      <point x="175" y="759"/>
      <point x="16" y="666"/>
      <point x="16" y="493" type="curve" smooth="yes"/>
      <point x="16" y="409"/>
      <point x="54" y="333"/>
    </contour>
    <contour>
      <point x="94" y="-107" type="line"/>
      <point x="533" y="-107" type="line"/>
      <point x="533" y="322" type="line" smooth="yes"/>
      <point x="533" y="415"/>
      <point x="478" y="464"/>
      <point x="392" y="464" type="curve" smooth="yes"/>
      <point x="286" y="464"/>
      <point x="240" y="390"/>
      <point x="240" y="280" type="curve" smooth="yes"/>
      <point x="240" y="248"/>
      <point x="245" y="209"/>
      <point x="253" y="153" type="curve"/>
      <point x="297" y="220" type="line"/>
      <point x="291" y="217"/>
      <point x="277" y="213"/>
      <point x="265" y="213" type="curve" smooth="yes"/>
      <point x="230" y="213"/>
      <point x="213" y="246"/>
      <point x="213" y="289" type="curve" smooth="yes"/>
      <point x="213" y="362"/>
      <point x="261" y="464"/>
      <point x="348" y="481" type="curve"/>
      <point x="347" y="399" type="line"/>
      <point x="205" y="588" type="line"/>
      <point x="298" y="559" type="line"/>
      <point x="142" y="503"/>
      <point x="86" y="403"/>
      <point x="86" y="290" type="curve" smooth="yes"/>
      <point x="86" y="156"/>
      <point x="164" y="86"/>
      <point x="278" y="86" type="curve" smooth="yes"/>
      <point x="325" y="86"/>
      <point x="380" y="98"/>
      <point x="438" y="122" type="curve"/>
      <point x="376" y="81" type="line"/>
      <point x="367" y="121"/>
      <point x="359" y="221"/>
      <point x="359" y="279" type="curve" smooth="yes"/>
      <point x="359" y="324"/>
      <point x="364" y="335"/>
      <point x="375" y="335" type="curve" smooth="yes"/>
      <point x="386" y="335"/>
      <point x="386" y="321"/>
      <point x="386" y="301" type="curve" smooth="yes"/>
      <point x="386" y="23" type="line"/>
      <point x="94" y="23" type="line"/>
    </contour>
  </outline>
</glyph>
<glyph name="ja_va-oriya" format="2">
  <advance width="666"/>
  <anchor x="325" y="751" name="top"/>
  <anchor x="520" y="751" name="topright"/>
  <outline>
    <contour>
      <point x="137" y="329" type="curve"/>
      <point x="196" y="421" type="line"/>
      <point x="172" y="448"/>
      <point x="161" y="477"/>
      <point x="161" y="505" type="curve" smooth="yes"/>
      <point x="161" y="572"/>
      <point x="226" y="623"/>
      <point x="329" y="623" type="curve" smooth="yes"/>
      <point x="428" y="623"/>
      <point x="500" y="575"/>
      <point x="500" y="500" type="curve" smooth="yes"/>
      <point x="500" y="475"/>
      <point x="491" y="445"/>
      <point x="483" y="410" type="curve"/>
      <point x="435" y="482" type="line"/>
      <point x="693" y="404" type="line"/>
      <point x="624" y="381" type="line"/>
      <point x="640" y="425"/>
      <point x="650" y="460"/>
      <point x="650" y="502" type="curve" smooth="yes"/>
      <point x="650" y="673"/>
      <point x="488" y="759"/>
      <point x="327" y="759" type="curve" smooth="yes"/>
      <point x="169" y="759"/>
      <point x="16" y="677"/>
      <point x="16" y="524" type="curve" smooth="yes"/>
      <point x="16" y="450"/>
      <point x="52" y="383"/>
    </contour>
    <contour>
      <point x="323" y="-114" type="curve" smooth="yes"/>
      <point x="368" y="-114"/>
      <point x="409" y="-95"/>
      <point x="440" y="-53" type="curve"/>
      <point x="393" y="25" type="line"/>
      <point x="384" y="-2"/>
      <point x="366" y="-17"/>
      <point x="347" y="-17" type="curve" smooth="yes"/>
      <point x="325" y="-17"/>
      <point x="314" y="3"/>
      <point x="314" y="35" type="curve" smooth="yes"/>
      <point x="314" y="54"/>
      <point x="319" y="80"/>
      <point x="326" y="110" type="curve"/>
      <point x="347" y="91" type="line"/>
      <point x="160" y="123" type="line"/>
      <point x="237" y="156" type="line"/>
      <point x="212" y="114"/>
      <point x="198" y="68"/>
      <point x="198" y="25" type="curve" smooth="yes"/>
      <point x="198" y="-53"/>
      <point x="240" y="-114"/>
    </contour>
    <contour>
      <point x="517" y="-151" type="line"/>
      <point x="517" y="373" type="line" smooth="yes"/>
      <point x="517" y="451"/>
      <point x="470" y="496"/>
      <point x="382" y="498" type="curve" smooth="yes"/>
      <point x="267" y="501"/>
      <point x="236" y="428"/>
      <point x="236" y="346" type="curve" smooth="yes"/>
      <point x="236" y="304"/>
      <point x="244" y="256"/>
      <point x="256" y="214" type="curve"/>
      <point x="286" y="286" type="line"/>
      <point x="284" y="282"/>
      <point x="270" y="276"/>
      <point x="257" y="276" type="curve" smooth="yes"/>
      <point x="226" y="276"/>
      <point x="210" y="307"/>
      <point x="208" y="340" type="curve" smooth="yes"/>
      <point x="204" y="395"/>
      <point x="236" y="453"/>
      <point x="288" y="496" type="curve"/>
      <point x="236" y="562" type="line"/>
      <point x="138" y="517"/>
      <point x="86" y="438"/>
      <point x="83" y="345" type="curve" smooth="yes"/>
      <point x="79" y="220"/>
      <point x="171" y="165"/>
      <point x="273" y="165" type="curve" smooth="yes"/>
      <point x="317" y="165"/>
      <point x="373" y="175"/>
      <point x="411" y="192" type="curve"/>
      <point x="369" y="148" type="line"/>
      <point x="361" y="188"/>
      <point x="351" y="266"/>
      <point x="351" y="336" type="curve" smooth="yes"/>
      <point x="351" y="358"/>
      <point x="352" y="385"/>
      <point x="366" y="385" type="curve" smooth="yes"/>
      <point x="377" y="385"/>
      <point x="377" y="372"/>
      <point x="377" y="356" type="curve" smooth="yes"/>
      <point x="377" y="-49" type="line"/>
      <point x="384" y="-58" type="line"/>
      <point x="377" y="-151" type="line"/>
    </contour>
  </outline>
</glyph>
<glyph name="jha-oriya.below" format="2">
  <note>
jhasubscriptorya
</note>
  <guideline x="175" y="155" angle="90"/>
  <anchor x="152" y="203" name="_bottom"/>
  <outline>
    <contour>
      <point x="88" y="-51" type="curve"/>
      <point x="129" y="5" type="line"/>
      <point x="114" y="18"/>
      <point x="106" y="35"/>
      <point x="106" y="55" type="curve" smooth="yes"/>
      <point x="106" y="89"/>
      <point x="122" y="129"/>
      <point x="179" y="129" type="curve" smooth="yes"/>
      <point x="186" y="129"/>
      <point x="192" y="129"/>
      <point x="199" y="129" type="curve"/>
      <point x="181" y="209" type="line"/>
      <point x="178" y="209"/>
      <point x="175" y="209"/>
      <point x="164" y="209" type="curve" smooth="yes"/>
      <point x="73" y="209"/>
      <point x="6" y="155"/>
      <point x="6" y="74" type="curve" smooth="yes"/>
      <point x="6" y="23"/>
      <point x="32" y="-24"/>
    </contour>
    <contour>
      <point x="287" y="-171" type="line"/>
      <point x="337" y="-51" type="line"/>
      <point x="340" y="-70" type="line"/>
      <point x="217" y="-26" type="line"/>
      <point x="185" y="-101" type="line"/>
      <point x="304" y="-161" type="line"/>
    </contour>
    <contour>
      <point x="247" y="40" type="curve" smooth="yes"/>
      <point x="310" y="40"/>
      <point x="344" y="80"/>
      <point x="344" y="127" type="curve" smooth="yes"/>
      <point x="344" y="172"/>
      <point x="313" y="223"/>
      <point x="252" y="253" type="curve"/>
      <point x="364" y="248" type="line"/>
      <point x="248" y="162" type="line"/>
      <point x="249" y="183" type="line"/>
      <point x="259" y="173"/>
      <point x="264" y="155"/>
      <point x="264" y="140" type="curve" smooth="yes"/>
      <point x="264" y="126"/>
      <point x="259" y="114"/>
      <point x="247" y="114" type="curve" smooth="yes"/>
      <point x="235" y="114"/>
      <point x="230" y="127"/>
      <point x="230" y="141" type="curve" smooth="yes"/>
      <point x="230" y="151"/>
      <point x="233" y="162"/>
      <point x="236" y="169" type="curve"/>
      <point x="181" y="209" type="line"/>
      <point x="159" y="182"/>
      <point x="150" y="156"/>
      <point x="150" y="129" type="curve" smooth="yes"/>
      <point x="150" y="73"/>
      <point x="190" y="40"/>
    </contour>
    <contour>
      <point x="153" y="-155" type="curve" smooth="yes"/>
      <point x="214" y="-155"/>
      <point x="250" y="-116"/>
      <point x="250" y="-56" type="curve" smooth="yes"/>
      <point x="250" y="6"/>
      <point x="214" y="45"/>
      <point x="153" y="45" type="curve" smooth="yes"/>
      <point x="93" y="45"/>
      <point x="56" y="7"/>
      <point x="56" y="-55" type="curve" smooth="yes"/>
      <point x="56" y="-116"/>
      <point x="92" y="-155"/>
    </contour>
    <contour>
      <point x="153" y="-83" type="curve" smooth="yes"/>
      <point x="143" y="-83"/>
      <point x="138" y="-74"/>
      <point x="138" y="-55" type="curve" smooth="yes"/>
      <point x="138" y="-36"/>
      <point x="143" y="-27"/>
      <point x="153" y="-27" type="curve" smooth="yes"/>
      <point x="163" y="-27"/>
      <point x="168" y="-36"/>
      <point x="168" y="-55" type="curve" smooth="yes"/>
      <point x="168" y="-74"/>
      <point x="163" y="-83"/>
    </contour>
  </outline>
</glyph>
<glyph name="ka-oriya.REV_BRACKET.141" format="2">
  <advance width="688"/>
  <note>
kaorya
</note>
  <anchor x="386" y="93" name="bottom"/>
  <anchor x="533" y="93" name="bottom_ra"/>
  <anchor x="533" y="103" name="bottom_ta"/>
  <anchor x="338" y="751" name="top"/>
  <anchor x="542" y="751" name="topright"/>
  <outline>
    <contour>
      <point x="140" y="272" type="curve"/>
      <point x="199" y="377" type="line"/>
      <point x="174" y="408"/>
      <point x="163" y="440"/>
      <point x="163" y="473" type="curve" smooth="yes"/>
      <point x="163" y="564"/>
      <point x="250" y="613"/>
      <point x="340" y="613" type="curve" smooth="yes"/>
      <point x="430" y="613"/>
      <point x="520" y="563"/>
      <point x="520" y="468" type="curve" smooth="yes"/>
      <point x="520" y="436"/>
      <point x="510" y="405"/>
      <point x="494" y="377" type="curve"/>
      <point x="454" y="442" type="line"/>
      <point x="704" y="362" type="line"/>
      <point x="641" y="336" type="line"/>
      <point x="660" y="383"/>
      <point x="672" y="421"/>
      <point x="672" y="471" type="curve" smooth="yes"/>
      <point x="672" y="662"/>
      <point x="503" y="759"/>
      <point x="337" y="759" type="curve" smooth="yes"/>
      <point x="175" y="759"/>
      <point x="16" y="666"/>
      <point x="16" y="493" type="curve" smooth="yes"/>
      <point x="16" y="409"/>
      <point x="54" y="333"/>
    </contour>
    <contour>
      <point x="211" y="149" type="curve" smooth="yes"/>
      <point x="291" y="149"/>
      <point x="337" y="210"/>
      <point x="337" y="306" type="curve" smooth="yes"/>
      <point x="337" y="403"/>
      <point x="291" y="463"/>
      <point x="213" y="463" type="curve" smooth="yes"/>
      <point x="133" y="463"/>
      <point x="86" y="400"/>
      <point x="86" y="304" type="curve" smooth="yes"/>
      <point x="86" y="209"/>
      <point x="132" y="149"/>
    </contour>
    <contour>
      <point x="216" y="274" type="curve" smooth="yes"/>
      <point x="205" y="274"/>
      <point x="200" y="284"/>
      <point x="200" y="306" type="curve" smooth="yes"/>
      <point x="200" y="328"/>
      <point x="205" y="338"/>
      <point x="216" y="338" type="curve" smooth="yes"/>
      <point x="227" y="338"/>
      <point x="232" y="328"/>
      <point x="232" y="306" type="curve" smooth="yes"/>
      <point x="232" y="284"/>
      <point x="227" y="274"/>
    </contour>
    <contour>
      <point x="212" y="93" type="line"/>
      <point x="360" y="93" type="line"/>
      <point x="360" y="310" type="line" smooth="yes"/>
      <point x="360" y="328"/>
      <point x="362" y="335"/>
      <point x="373" y="335" type="curve" smooth="yes"/>
      <point x="384" y="335"/>
      <point x="386" y="328"/>
      <point x="386" y="310" type="curve" smooth="yes"/>
      <point x="386" y="93" type="line"/>
      <point x="533" y="93" type="line"/>
      <point x="533" y="319" type="line" smooth="yes"/>
      <point x="533" y="415"/>
      <point x="479" y="464"/>
      <point x="409" y="464" type="curve" smooth="yes"/>
      <point x="335" y="464"/>
      <point x="270" y="409"/>
      <point x="270" y="298" type="curve"/>
      <point x="223" y="218" type="line"/>
    </contour>
  </outline>
</glyph>
<glyph name="ka-oriya.base" format="2">
  <advance width="662"/>
  <anchor x="442" y="203" name="bottom"/>
  <anchor x="513" y="169" name="bottom_ta"/>
  <anchor x="325" y="751" name="top"/>
  <anchor x="516" y="751" name="topright"/>
  <outline>
    <contour>
      <point x="137" y="329" type="curve"/>
      <point x="196" y="421" type="line"/>
      <point x="172" y="448"/>
      <point x="161" y="477"/>
      <point x="161" y="505" type="curve" smooth="yes"/>
      <point x="161" y="572"/>
      <point x="225" y="623"/>
      <point x="328" y="623" type="curve" smooth="yes"/>
      <point x="428" y="623"/>
      <point x="500" y="575"/>
      <point x="500" y="500" type="curve" smooth="yes"/>
      <point x="500" y="475"/>
      <point x="491" y="445"/>
      <point x="483" y="410" type="curve"/>
      <point x="434" y="480" type="line"/>
      <point x="695" y="406" type="line"/>
      <point x="620" y="381" type="line"/>
      <point x="636" y="424"/>
      <point x="646" y="460"/>
      <point x="646" y="501" type="curve" smooth="yes"/>
      <point x="646" y="674"/>
      <point x="484" y="759"/>
      <point x="325" y="759" type="curve" smooth="yes"/>
      <point x="169" y="759"/>
      <point x="16" y="677"/>
      <point x="16" y="524" type="curve" smooth="yes"/>
      <point x="16" y="450"/>
      <point x="52" y="383"/>
    </contour>
    <contour>
      <point x="205" y="221" type="curve" smooth="yes"/>
      <point x="282" y="221"/>
      <point x="327" y="275"/>
      <point x="327" y="359" type="curve" smooth="yes"/>
      <point x="327" y="444"/>
      <point x="282" y="498"/>
      <point x="207" y="498" type="curve" smooth="yes"/>
      <point x="129" y="498"/>
      <point x="83" y="441"/>
      <point x="83" y="357" type="curve" smooth="yes"/>
      <point x="83" y="274"/>
      <point x="128" y="221"/>
    </contour>
    <contour>
      <point x="209" y="319" type="curve" smooth="yes"/>
      <point x="194" y="319"/>
      <point x="188" y="331"/>
      <point x="188" y="360" type="curve" smooth="yes"/>
      <point x="188" y="388"/>
      <point x="194" y="400"/>
      <point x="208" y="400" type="curve" smooth="yes"/>
      <point x="221" y="400"/>
      <point x="228" y="389"/>
      <point x="228" y="360" type="curve" smooth="yes"/>
      <point x="228" y="331"/>
      <point x="221" y="319"/>
    </contour>
    <contour>
      <point x="219" y="169" type="line"/>
      <point x="347" y="169" type="line"/>
      <point x="347" y="362" type="line" smooth="yes"/>
      <point x="347" y="377"/>
      <point x="350" y="385"/>
      <point x="359" y="385" type="curve" smooth="yes"/>
      <point x="368" y="385"/>
      <point x="371" y="377"/>
      <point x="371" y="362" type="curve" smooth="yes"/>
      <point x="371" y="169" type="line"/>
      <point x="513" y="169" type="line"/>
      <point x="513" y="371" type="line" smooth="yes"/>
      <point x="513" y="453"/>
      <point x="461" y="498"/>
      <point x="397" y="498" type="curve" smooth="yes"/>
      <point x="327" y="498"/>
      <point x="268" y="449"/>
      <point x="268" y="353" type="curve"/>
      <point x="230" y="282" type="line"/>
    </contour>
  </outline>
</glyph>
<glyph name="ka_ra-oriya.REV_BRACKET.141" format="2">
  <advance width="688"/>
  <guideline x="77" y="168" angle="90"/>
  <anchor x="338" y="751" name="top"/>
  <anchor x="542" y="751" name="topright"/>
  <outline>
    <contour>
      <point x="140" y="272" type="curve"/>
      <point x="199" y="377" type="line"/>
      <point x="174" y="408"/>
      <point x="163" y="440"/>
      <point x="163" y="473" type="curve" smooth="yes"/>
      <point x="163" y="564"/>
      <point x="250" y="613"/>
      <point x="340" y="613" type="curve" smooth="yes"/>
      <point x="430" y="613"/>
      <point x="520" y="563"/>
      <point x="520" y="468" type="curve" smooth="yes"/>
      <point x="520" y="436"/>
      <point x="510" y="405"/>
      <point x="494" y="377" type="curve"/>
      <point x="454" y="442" type="line"/>
      <point x="704" y="362" type="line"/>
      <point x="641" y="336" type="line"/>
      <point x="660" y="383"/>
      <point x="672" y="421"/>
      <point x="672" y="471" type="curve" smooth="yes"/>
      <point x="672" y="662"/>
      <point x="503" y="759"/>
      <point x="337" y="759" type="curve" smooth="yes"/>
      <point x="175" y="759"/>
      <point x="16" y="666"/>
      <point x="16" y="493" type="curve" smooth="yes"/>
      <point x="16" y="409"/>
      <point x="54" y="333"/>
    </contour>
    <contour>
      <point x="211" y="149" type="curve" smooth="yes"/>
      <point x="291" y="149"/>
      <point x="337" y="210"/>
      <point x="337" y="306" type="curve" smooth="yes"/>
      <point x="337" y="403"/>
      <point x="291" y="463"/>
      <point x="213" y="463" type="curve" smooth="yes"/>
      <point x="133" y="463"/>
      <point x="86" y="400"/>
      <point x="86" y="304" type="curve" smooth="yes"/>
      <point x="86" y="209"/>
      <point x="132" y="149"/>
    </contour>
    <contour>
      <point x="409" y="463" type="curve" smooth="yes"/>
      <point x="335" y="463"/>
      <point x="270" y="408"/>
      <point x="270" y="298" type="curve"/>
      <point x="223" y="218" type="line"/>
      <point x="212" y="93" type="line"/>
      <point x="360" y="93" type="line"/>
      <point x="360" y="310" type="line" smooth="yes"/>
      <point x="360" y="328"/>
      <point x="362" y="335"/>
      <point x="373" y="335" type="curve" smooth="yes"/>
      <point x="384" y="335"/>
      <point x="386" y="328"/>
      <point x="386" y="310" type="curve" smooth="yes"/>
      <point x="386" y="23" type="line"/>
      <point x="94" y="23" type="line"/>
      <point x="94" y="-107" type="line"/>
      <point x="533" y="-107" type="line"/>
      <point x="533" y="319" type="line" smooth="yes"/>
      <point x="533" y="414"/>
      <point x="479" y="463"/>
    </contour>
    <contour>
      <point x="216" y="274" type="curve" smooth="yes"/>
      <point x="205" y="274"/>
      <point x="200" y="284"/>
      <point x="200" y="306" type="curve" smooth="yes"/>
      <point x="200" y="328"/>
      <point x="205" y="338"/>
      <point x="216" y="338" type="curve" smooth="yes"/>
      <point x="227" y="338"/>
      <point x="232" y="328"/>
      <point x="232" y="306" type="curve" smooth="yes"/>
      <point x="232" y="284"/>
      <point x="227" y="274"/>
    </contour>
  </outline>
</glyph>
<glyph name="ka_ta_ra-oriya" format="2">
  <advance width="787"/>
  <guideline x="535" y="365" angle="90"/>
  <anchor x="371" y="751" name="top"/>
  <anchor x="611" y="751" name="topright"/>
  <outline>
    <contour>
      <point x="128" y="322" type="curve"/>
      <point x="192" y="420" type="line"/>
      <point x="171" y="442"/>
      <point x="161" y="466"/>
      <point x="161" y="489" type="curve" smooth="yes"/>
      <point x="161" y="559"/>
      <point x="235" y="623"/>
      <point x="376" y="623" type="curve" smooth="yes"/>
      <point x="511" y="623"/>
      <point x="592" y="564"/>
      <point x="592" y="467" type="curve" smooth="yes"/>
      <point x="592" y="437"/>
      <point x="584" y="405"/>
      <point x="568" y="371" type="curve"/>
      <point x="712" y="352" type="line"/>
      <point x="732" y="396"/>
      <point x="741" y="439"/>
      <point x="741" y="480" type="curve" smooth="yes"/>
      <point x="741" y="636"/>
      <point x="603" y="759"/>
      <point x="371" y="759" type="curve" smooth="yes"/>
      <point x="147" y="759"/>
      <point x="16" y="641"/>
      <point x="16" y="508" type="curve" smooth="yes"/>
      <point x="16" y="435"/>
      <point x="53" y="370"/>
    </contour>
    <contour>
      <point x="132" y="-28" type="line"/>
      <point x="139" y="42" type="line"/>
      <point x="207" y="5"/>
      <point x="286" y="-13"/>
      <point x="370" y="-13" type="curve" smooth="yes"/>
      <point x="579" y="-13"/>
      <point x="771" y="100"/>
      <point x="771" y="264" type="curve" smooth="yes"/>
      <point x="771" y="357"/>
      <point x="722" y="414"/>
      <point x="650" y="414" type="curve" smooth="yes"/>
      <point x="584" y="414"/>
      <point x="535" y="366"/>
      <point x="535" y="296" type="curve" smooth="yes"/>
      <point x="535" y="228"/>
      <point x="581" y="180"/>
      <point x="643" y="180" type="curve" smooth="yes"/>
      <point x="704" y="180"/>
      <point x="746" y="228"/>
      <point x="746" y="296" type="curve"/>
      <point x="663" y="237" type="line"/>
      <point x="646" y="152"/>
      <point x="511" y="98"/>
      <point x="374" y="98" type="curve" smooth="yes"/>
      <point x="252" y="98"/>
      <point x="129" y="140"/>
      <point x="82" y="226" type="curve"/>
      <point x="204" y="173" type="line"/>
    </contour>
    <contour>
      <point x="651" y="260" type="curve" smooth="yes"/>
      <point x="636" y="260"/>
      <point x="627" y="272"/>
      <point x="627" y="293" type="curve" smooth="yes"/>
      <point x="627" y="314"/>
      <point x="636" y="326"/>
      <point x="651" y="326" type="curve" smooth="yes"/>
      <point x="667" y="326"/>
      <point x="676" y="313"/>
      <point x="676" y="291" type="curve" smooth="yes"/>
      <point x="676" y="272"/>
      <point x="667" y="260"/>
    </contour>
    <contour>
      <point x="209" y="221" type="curve" smooth="yes"/>
      <point x="286" y="221"/>
      <point x="331" y="275"/>
      <point x="331" y="359" type="curve" smooth="yes"/>
      <point x="331" y="444"/>
      <point x="286" y="498"/>
      <point x="211" y="498" type="curve" smooth="yes"/>
      <point x="133" y="498"/>
      <point x="87" y="441"/>
      <point x="87" y="357" type="curve" smooth="yes"/>
      <point x="87" y="274"/>
      <point x="132" y="221"/>
    </contour>
    <contour>
      <point x="212" y="319" type="curve" smooth="yes"/>
      <point x="198" y="319"/>
      <point x="192" y="332"/>
      <point x="192" y="360" type="curve" smooth="yes"/>
      <point x="192" y="388"/>
      <point x="198" y="400"/>
      <point x="212" y="400" type="curve" smooth="yes"/>
      <point x="225" y="400"/>
      <point x="232" y="389"/>
      <point x="232" y="360" type="curve" smooth="yes"/>
      <point x="232" y="331"/>
      <point x="225" y="319"/>
    </contour>
    <contour>
      <point x="223" y="173" type="line"/>
      <point x="358" y="173" type="line"/>
      <point x="358" y="362" type="line" smooth="yes"/>
      <point x="358" y="377"/>
      <point x="361" y="385"/>
      <point x="370" y="385" type="curve" smooth="yes"/>
      <point x="379" y="385"/>
      <point x="382" y="377"/>
      <point x="382" y="362" type="curve" smooth="yes"/>
      <point x="382" y="173" type="line"/>
      <point x="517" y="173" type="line"/>
      <point x="517" y="371" type="line" smooth="yes"/>
      <point x="517" y="453"/>
      <point x="465" y="498"/>
      <point x="401" y="498" type="curve" smooth="yes"/>
      <point x="331" y="498"/>
      <point x="272" y="449"/>
      <point x="272" y="353" type="curve"/>
      <point x="234" y="282" type="line"/>
    </contour>
    <contour>
      <point x="673" y="-197" type="line"/>
      <point x="673" y="93" type="line"/>
      <point x="544" y="93" type="line"/>
      <point x="544" y="-78" type="line"/>
      <point x="163" y="-78" type="line"/>
      <point x="163" y="-197" type="line"/>
    </contour>
  </outline>
</glyph>
